<svg xmlns="http://www.w3.org/2000/svg" viewBox="0 0 478.165 478.165"><path fill="#fff" d="M341.848 256.794c1.255 3.228 1.793 6.475 1.793 9.703 0 6.515-2.291 12.771-6.037 17.911-3.726 5.1-8.986 9.185-15.321 10.759-.06.02-.08.02-.1.279h-.04c-2.889.976-5.997 1.435-8.926 1.435-6.953 0-13.847-2.65-19.166-6.933-5.519-4.244-9.623-10.3-10.779-17.393 0 0 0-.299-.259-.299v-.02c-.219-1.913-.518-3.746-.518-5.638 0-6.176 2.231-12.233 5.638-17.274 3.646-4.941 8.667-8.886 14.345-10.838h.06c3.267-1.315 6.913-1.853 10.261-1.853 6.176 0 12.293 1.893 17.652 5.379 5.14 3.347 9.344 8.328 11.297 14.644 0 0 0 .08.02.08v.06c0-.002.08-.002.08-.002zm-19.147 77.045c-2.371-1.494-5.22-2.431-8.089-2.431-2.63 0-5.061.558-7.312 2.032-21.079 12.612-45.864 19.565-70.609 19.565-18.569 0-36.859-3.805-53.614-12.133l-.04-.02h-.159c-2.411-.996-5.379-3.208-8.448-5.2-1.634-1.235-3.267-2.211-5.1-2.849-1.873-.877-3.785-1.355-5.917-1.355-1.813 0-3.686.418-5.559 1.096-.04.02-.219.279-.259.279-2.969 1.056-5.14 3.228-6.694 5.638-1.474 2.351-2.152 5.26-2.152 8.089 0 2.69.677 5.16 1.893 7.511 1.175 2.291 3.048 4.224 5.419 5.579 23.809 16.198 51.841 23.33 80.073 23.33 25.402 0 51.024-5.738 73.598-16.477l.319-.259.08-.02c2.909-1.853 6.973-3.327 10.719-5.658 1.873-1.076 3.686-2.471 5.2-4.303 1.474-1.813 2.829-4.104 3.626-6.515.199-1.295.438-2.331.438-3.327 0-2.212-.458-4.144-1.375-5.977-1.435-2.81-3.647-5.081-6.038-6.595zm-167.198-38.672h.06c3.188 1.255 6.256 1.733 9.324 1.733 7.85 0 15.361-3.208 20.999-8.348 5.618-5.12 9.543-12.532 9.543-20.92v-.578c.04-.438.04-.877.04-1.295 0-8.129-3.766-15.56-9.384-20.701-5.758-5.32-13.249-8.527-20.999-8.527-2.072 0-4.184.259-6.276.677-.02 0-.02.08-.04.08-10.3 2.172-19.366 9.743-22.673 20.362v.02c-.936 2.809-1.395 5.738-1.395 8.826 0 6.256 2.112 12.691 5.698 17.832 3.686 5.08 8.846 8.966 14.943 10.799.12.02.12.04.16.04zm322.622-74.992c0 1.096.04 2.072.04 3.188 0 11.536-3.746 22.733-9.882 32.356-5.937 8.667-13.887 16.138-23.171 21.179.777 4.642.936 9.324.936 13.986 0 24.904-8.507 49.51-23.55 69.214-27.873 36.918-70.45 58.754-113.425 69.852h-.04c-23.131 5.618-46.641 8.388-70.37 8.388-35.265 0-70.529-6.415-103.403-19.565h-.06c-34.089-14.046-66.545-36.42-86.428-69.155-10.739-17.632-16.616-38.154-16.616-58.695 0-4.622.279-9.344.797-13.707-8.926-5.1-16.656-12.412-22.454-20.94-6.097-9.105-10.022-19.963-10.5-31.26v-.179c0-15.899 6.834-31.041 17.712-42.218 10.759-11.038 25.462-18.29 41.162-18.29h.677a51.704 51.704 0 0 1 4.941-.239c7.93 0 15.879 1.255 23.47 4.204l.04.02c6.376 2.69 12.831 5.897 18.489 10.5 1.873-.936 3.925-2.072 6.117-2.869 34.508-20.521 74.693-28.451 113.863-30.742.299-19.386 2.769-39.668 12.153-57.44 7.91-14.723 21.537-26.199 37.835-30.184l.04-.02h.02c6.356-1.195 12.532-1.773 18.688-1.773 16.656 0 32.993 3.925 48.155 10.022 6.894-10.281 16.616-18.13 27.853-22.673l.08-.02.04-.02c6.874-2.072 13.628-3.267 20.88-3.267 7.491 0 14.943 1.395 21.976 4.443.04 0 .08.02.1.02 9.942 3.925 18.628 11.018 24.645 20.043 6.077 8.926 9.504 19.605 9.504 30.642 0 2.052-.06 3.985-.179 6.077v.02s0 .159-.259.159c-1.056 14.245-8.189 26.678-18.409 35.563-10.3 9.005-23.689 14.385-37.317 14.385-2.271 0-4.523-.179-6.535-.418-13.548-.976-26.179-7.611-35.484-17.314-9.384-9.763-15.401-22.812-15.401-36.819 0-.697.06-1.395.06-2.052-12.671-5.658-26.16-10.36-39.628-10.32-1.893 0-3.805.159-5.718.239-10.181 1.076-19.505 7.412-23.888 16.517-6.894 13.349-8.288 28.989-8.388 44.589 38.393 2.411 77.144 11.695 111.233 31.28l.458.299c.538.398 1.873 1.076 2.889 1.614 2.331-1.873 4.742-3.785 7.551-5.559 10.52-6.834 22.733-10.3 34.866-10.3 5.3 0 10.818.697 16.019 2.072l.339.02h.12v.02c12.512 3.208 23.709 10.4 32.176 19.983 8.267 9.642 13.926 21.855 15.181 35.144zM364.66 94.079c0 .618 0 1.116.04 1.634v.159c.359 6.615 3.327 12.871 8.049 17.513 5.001 4.543 11.217 7.451 17.752 7.451h.319c.458.02.976.02 1.395.02 6.575 0 13.07-2.809 17.871-7.431 5.001-4.602 8.268-10.838 8.368-17.573l.02-.159c.04-.498.04-.976.04-1.494 0-6.973-3.028-13.548-8.149-18.449-5.1-4.901-12.014-7.93-18.648-7.93-2.231 0-4.264.279-6.475.956h-.04l-.04.02c-5.559 1.415-10.719 4.861-14.464 9.364-3.727 4.622-6.038 10.121-6.038 15.919zM80.352 197.283c-5.1-2.351-10.36-4.044-15.68-4.025-.916 0-1.813.02-2.749.199h-.239c-7.511.219-15.162 3.507-20.82 8.727-5.798 5.32-9.563 12.353-9.822 20.262v.199c-.02.518-.159 1.195-.159 1.733 0 4.861 1.574 9.523 4.124 13.767 1.713 3.208 4.244 6.057 7.013 8.587 8.845-19.305 22.632-35.762 38.332-49.449zM415.963 291.9c0-17.254-6.336-34.547-16.277-48.434-20.103-27.973-51.323-46.163-83.579-56.284l-.339-.159c-6.176-1.873-12.552-3.586-18.768-4.981-19.027-4.224-38.293-6.495-57.798-6.495-25.98 0-51.921 3.905-76.905 11.615-32.416 10.261-63.676 28.291-83.759 56.284v.02c-10.101 14.146-15.979 31.439-15.979 48.753 0 6.216.777 12.671 2.411 18.808 3.686 13.946 10.759 26.439 20.043 37.237 9.284 10.799 20.561 20.103 32.455 27.574 2.59 1.514 5.32 3.188 7.969 4.662 34.547 19.226 74.394 27.654 113.903 27.654 6.734 0 13.349-.1 20.202-.558 39.727-3.267 79.535-15.022 112.05-39.11v-.04c10.3-7.551 19.684-16.815 27.196-27.156 7.571-10.619 13.09-22.314 15.52-34.966v-.04h.02c.898-4.702 1.635-9.443 1.635-14.384zm31.32-68.537c0-4.184-.956-8.348-3.128-12.293l-.04-.02-.04-.04c-2.809-5.778-7.053-10.081-12.532-13.07-5.24-3.008-11.376-4.543-17.712-4.543-5.658 0-11.237 1.295-16.078 3.825 15.6 13.727 29.547 30.164 38.492 49.55 2.829-2.53 5.439-5.459 7.292-8.946 2.371-4.442 3.746-9.542 3.746-14.463z"/></svg>