<svg xmlns="http://www.w3.org/2000/svg" width="22.531" height="12.75" viewBox="0 0 22.531 12.75"><defs><style>.cls-1{fill:#fff;fill-rule:evenodd}</style></defs><path class="cls-1" d="M19.392 8.11a27.668 27.668 0 0 1 2.207 2.22 6.277 6.277 0 0 1 .791 1.13.824.824 0 0 1-.5 1.28h-3.282a2.562 2.562 0 0 1-2.09-.85c-.454-.47-.875-.96-1.312-1.44a3.088 3.088 0 0 0-.591-.52.684.684 0 0 0-1.093.26 3.456 3.456 0 0 0-.346 1.53.875.875 0 0 1-1.045 1.02 8.525 8.525 0 0 1-4.7-1.01 10.4 10.4 0 0 1-3.16-2.96A39.815 39.815 0 0 1 .112 1.35C-.151.77.041.45.686.44Q2.292.41 3.9.44a.953.953 0 0 1 .892.67A19.822 19.822 0 0 0 6.97 5.14a3.451 3.451 0 0 0 .823.91.5.5 0 0 0 .85-.25 2.818 2.818 0 0 0 .189-.85 12.543 12.543 0 0 0-.053-2.96A1.245 1.245 0 0 0 7.726.85C7.412.79 7.459.68 7.611.5A1.177 1.177 0 0 1 8.618 0h3.71a.88.88 0 0 1 .794.96v4.12a1.212 1.212 0 0 0 .523 1.06.743.743 0 0 0 .741-.37 12.617 12.617 0 0 0 2.088-3.21c.251-.5.467-1.03.677-1.56a.79.79 0 0 1 .839-.57h3.57a1.655 1.655 0 0 1 .316.02.619.619 0 0 1 .581.95 8.907 8.907 0 0 1-1.419 2.46c-.6.83-1.232 1.62-1.823 2.45a1.122 1.122 0 0 0 .175 1.8z"/></svg>