<?xml version="1.0" encoding="UTF-8"?>
<svg width="187px" height="50px" viewBox="0 0 187 50" version="1.1" xmlns="http://www.w3.org/2000/svg" xmlns:xlink="http://www.w3.org/1999/xlink">
    <!-- Generator: sketchtool 51.2 (57519) - http://www.bohemiancoding.com/sketch -->
    <title>7AD32F09-4789-4FE6-ACED-C4A3C2720B41</title>
    <desc>Created with sketchtool.</desc>
    <defs>
        <linearGradient x1="0%" y1="0%" x2="100%" y2="0%" id="linearGradient-1">
            <stop stop-color="#024A9A" offset="0%"></stop>
            <stop stop-color="#00669E" offset="100%"></stop>
        </linearGradient>
    </defs>
    <g id="1440" stroke="none" stroke-width="1" fill="none" fill-rule="evenodd">
        <g id="png_2.0/ostrog_2.0_text_page_01" transform="translate(-669.000000, -249.000000)">
            <g id="Картинка-игры" transform="translate(190.000000, 56.000000)">
                <g id="svg_2.0/text_page/app_store" transform="translate(479.000000, 193.000000)">
                    <path d="M6,0 L181,0 C184.313708,-6.08718376e-16 187,2.6862915 187,6 L187,44 C187,47.3137085 184.313708,50 181,50 L6,50 C2.6862915,50 4.05812251e-16,47.3137085 0,44 L1.77635684e-15,6 C1.37054459e-15,2.6862915 2.6862915,6.08718376e-16 6,0 Z" id="Rectangle-2-Copy-4" fill="#000000"></path>
                    <path d="M6,0 L181,0 C184.313708,-6.08718376e-16 187,2.6862915 187,6 L187,44 C187,47.3137085 184.313708,50 181,50 L6,50 C2.6862915,50 4.05812251e-16,47.3137085 0,44 L1.77635684e-15,6 C1.37054459e-15,2.6862915 2.6862915,6.08718376e-16 6,0 Z" id="Rectangle-2-Copy-10" fill="url(#linearGradient-1)" opacity="0.300000012"></path>
                    <g id="Google" transform="translate(17.000000, 8.000000)" fill="#FFFFFF">
                        <path d="M68.6682887,31.1022798 L66.4534796,31.1022798 L65.239351,27.2889063 L61.0266234,27.2889063 L59.8710209,31.1022798 L57.709,31.1022798 L61.8884481,18.1255639 L64.4693319,18.1255639 L68.6682887,31.1022798 Z M64.8744239,25.690342 L63.7807902,22.3004217 C63.6652682,21.9538557 63.4468475,21.1386989 63.125528,19.8549511 L63.0819204,19.8549511 C62.9541577,20.4065495 62.7487427,21.2217064 62.4656756,22.3004217 L61.3869602,25.690342 L64.8732764,25.690342 L64.8744239,25.690342 Z M79.4152771,26.3065868 C79.4909417,27.6843562 79.0284615,29.0376455 78.1254089,30.0809429 C77.3921032,30.8870025 76.3459532,31.3364286 75.2564852,31.3134326 C74.1923077,31.3995152 73.1683547,30.8875387 72.5987142,29.9845471 L72.5585493,29.9845471 L72.5585493,34.9190959 L70.4780058,34.9190959 L70.4780058,24.8273697 C70.4780058,23.8259241 70.4523768,22.7988494 70.4011187,21.7461456 L72.2303444,21.7461456 L72.3451014,23.2288054 L72.3875615,23.2288054 C73.0267447,22.2505432 74.0904059,21.6316275 75.2567346,21.5593111 C76.4230633,21.4869946 77.5550334,21.9697735 78.3101676,22.8615832 C79.0814944,23.8392465 79.4735558,25.0627062 79.4141295,26.3065868 L79.4152771,26.3065868 Z M77.2968638,26.383474 C77.3292729,25.58657 77.1139883,24.7991976 76.680619,24.1296475 C76.2725224,23.5347692 75.5909128,23.1870533 74.8697543,23.205854 C74.3590254,23.2055419 73.8646758,23.3860446 73.4743098,23.7153749 C73.0570874,24.0561196 72.7684779,24.528905 72.6560927,25.0557361 C72.5990448,25.2627293 72.5666879,25.4757452 72.5596969,25.690342 L72.5596969,27.249889 C72.5426391,27.8821756 72.7661621,28.4973765 73.1851223,28.9712432 C73.5950153,29.437323 74.1920423,29.6954172 74.8123758,29.6747033 C75.5364886,29.7039365 76.2257316,29.3627742 76.6416016,28.769271 C77.1060951,28.0647384 77.3351176,27.2310162 77.2957162,26.3880643 L77.2968638,26.383474 Z M90.1748887,26.3065868 C90.2502866,27.6847188 89.7869249,29.0381794 88.8827254,30.0809429 C88.1496887,30.88738 87.1033583,31.3368835 86.0138017,31.3134326 C84.950021,31.3990742 83.9266215,30.8871534 83.3571783,29.9845471 L83.3238988,29.9845471 L83.3238988,34.9190959 L81.2445028,34.9190959 L81.2445028,24.8273697 C81.2445028,23.8259241 81.2188738,22.7988494 81.1676157,21.7461456 L82.9968415,21.7461456 L83.1115984,23.2288054 L83.1506158,23.2288054 C83.7901075,22.250959 84.853687,21.6323867 86.0198367,21.5600813 C87.1859864,21.487776 88.317833,21.9702243 89.073222,22.8615832 C89.8431717,23.8398616 90.2343399,25.063077 90.1748887,26.3065868 Z M88.0564754,26.383474 C88.0887717,25.5864217 87.873065,24.7989718 87.439083,24.1296475 C87.031498,23.5347887 86.3502181,23.1870206 85.6293659,23.205854 C85.1182426,23.2052706 84.6234412,23.3857898 84.2327738,23.7153749 C83.8157615,24.0563027 83.5272008,24.5290081 83.4145568,25.0557361 C83.357728,25.2627759 83.3253751,25.4757658 83.3181609,25.690342 L83.3181609,27.249889 C83.3012473,27.8819472 83.5242942,28.496966 83.9424387,28.9712432 C84.3527854,29.4373703 84.9501717,29.6954378 85.5708399,29.6747033 C86.2949986,29.7041521 86.9843392,29.3629414 87.4000656,28.769271 C87.8673889,28.0656886 88.0992442,27.2318936 88.0622132,26.3880643 L88.0564754,26.383474 Z M102.211745,27.4621893 C102.247619,28.4864023 101.82729,29.4737568 101.064176,30.1578301 C100.069966,30.9668308 98.8078817,31.3723691 97.528514,31.2939239 C96.3534778,31.3505905 95.1865492,31.0719923 94.1638403,30.4906252 L94.6458195,28.7566477 C95.5513227,29.3074178 96.5926405,29.5943763 97.6524515,29.5851929 C98.3056151,29.6246686 98.9523198,29.4369418 99.4828249,29.0538682 C99.9136362,28.7121972 100.156438,28.1861263 100.13694,27.6366199 C100.14861,27.1374658 99.9534093,26.6556933 99.5975818,26.3054393 C99.0759106,25.8510449 98.4660717,25.5092069 97.8062259,25.301316 C95.5340382,24.4544097 94.3979444,23.2135045 94.3979444,21.5786005 C94.3725545,20.5675039 94.812979,19.6007702 95.5925643,18.9564042 C96.4913492,18.2388261 97.6215478,17.8747463 98.7701842,17.9327722 C99.7874467,17.8976485 100.798114,18.1090736 101.715995,18.549017 L101.196146,20.2439772 C100.431699,19.8383584 99.5769358,19.6330574 98.7116582,19.647241 C98.0935554,19.6093922 97.4832959,19.8015034 96.9983369,20.1865987 C96.6622391,20.4839404 96.4724288,20.9130038 96.4784879,21.3617099 C96.4688253,21.8549624 96.6894231,22.3245811 97.0752241,22.6320693 C97.6470998,23.0647088 98.2843671,23.4032934 98.9629759,23.635045 C99.895228,23.9640827 100.738834,24.5041005 101.427955,25.2129531 C101.961279,25.8386592 102.242713,26.6404194 102.217483,27.4621893 L102.211745,27.4621893 Z M109.086834,23.3022499 L106.791695,23.3022499 L106.791695,27.8477727 C106.791695,29.0022276 107.196022,29.5798376 108.004676,29.5806026 C108.315809,29.5873058 108.626552,29.5549206 108.929617,29.4842068 L108.985848,31.06441 C108.464453,31.234932 107.917175,31.3126152 107.368922,31.2939239 C106.648663,31.33434 105.946245,31.060573 105.443301,30.5434134 C104.910601,29.8152375 104.663566,28.916929 104.749021,28.0187605 L104.749021,23.2999547 L103.383414,23.2999547 L103.383414,21.7404078 L104.749021,21.7404078 L104.749021,20.025939 L106.791695,19.4096941 L106.791695,21.7404078 L109.086834,21.7404078 L109.086834,23.2999547 L109.086834,23.3022499 Z M119.429878,26.3456042 C119.480294,27.6395971 119.040088,28.9048828 118.197388,29.8881512 C117.32071,30.8459295 116.065745,31.3675714 114.768451,31.3134326 C113.525256,31.3687643 112.321946,30.8678405 111.485254,29.9466773 C110.65629,28.9953929 110.219103,27.7650348 110.261945,26.5039688 C110.209902,25.1982566 110.661856,23.9225147 111.524272,22.9407655 C112.398603,22.0017185 113.641696,21.4947446 114.923372,21.5545015 C116.174784,21.5030991 117.385783,22.0031028 118.236406,22.9224044 C119.057058,23.8695061 119.486619,25.0933666 119.437911,26.3456042 L119.429878,26.3456042 Z M117.2713,26.4121632 C117.293831,25.6347006 117.100803,24.8661642 116.713581,24.1916162 C116.356644,23.4917666 115.63198,23.056612 114.846485,23.0704408 C114.048532,23.0482729 113.307954,23.4836188 112.939225,24.1916162 C112.548409,24.8789673 112.355011,25.6608985 112.380358,26.4511806 C112.358203,27.2291127 112.551621,27.998018 112.939225,28.6728751 C113.311459,29.3657906 114.035958,29.7964589 114.822516,29.7923723 C115.609074,29.7882856 116.329058,29.3501124 116.694072,28.6533665 C117.093205,27.9751194 117.295102,27.1989288 117.277038,26.4121632 L117.2713,26.4121632 Z M126.189062,23.5707811 C125.972837,23.5317938 125.75351,23.5125882 125.5338,23.5134027 C124.864583,23.4829235 124.225866,23.7951467 123.83884,24.3419478 C123.475032,24.888048 123.292719,25.5349762 123.317843,26.1906823 L123.317843,31.1022798 L121.239595,31.1022798 L121.259104,24.6896614 C121.259104,23.610181 121.233092,22.6278615 121.181069,21.7427029 L122.995376,21.7427029 L123.071116,23.5329114 L123.128494,23.5329114 C123.325223,22.9489686 123.686219,22.4341696 124.168192,22.0502516 C124.602436,21.7261134 125.12963,21.5506502 125.671508,21.5499113 C125.84551,21.5490782 126.019314,21.5617394 126.191357,21.5877811 L126.191357,23.5707811 L126.189062,23.5707811 Z M135.484375,25.9806771 C135.489706,26.2964405 135.46434,26.6119748 135.408636,26.9228317 L129.180776,26.9228317 C129.152565,27.728569 129.483893,28.5051717 130.085061,29.0423925 C130.665021,29.4976388 131.388859,29.7300977 132.125439,29.6976547 C132.987245,29.7086729 133.843513,29.558437 134.650092,29.2546929 L134.976002,30.6983353 C133.980897,31.1037548 132.912731,31.2991034 131.838547,31.2721201 C130.569683,31.3422883 129.329428,30.8778172 128.41879,29.9914325 C127.559447,29.0570573 127.111624,27.8165517 127.175972,26.548724 C127.130082,25.2737985 127.540215,24.0242748 128.332722,23.0245381 C129.122253,22.0312425 130.33768,21.4733906 131.60559,21.5223696 C132.818883,21.4550921 133.979717,22.0242053 134.669601,23.0245381 C135.244107,23.9003294 135.532789,24.9327713 135.495851,25.9795295 L135.484375,25.9806771 Z M133.501375,25.4413194 C133.528874,24.8801328 133.38822,24.3235128 133.097431,23.8427551 C132.747714,23.2698153 132.110401,22.9365942 131.44034,22.9763401 C130.781609,22.9645837 130.160442,23.2822698 129.784397,23.8232464 C129.429804,24.2932136 129.216444,24.8544781 129.1693,25.4413194 L133.501375,25.4413194 Z" id="Shape"></path>
                        <path d="M19.4435298,15.7083231 C19.4711417,13.5399998 20.6079865,11.5370798 22.4555179,10.4017315 C21.2848625,8.73040331 19.3950521,7.70846006 17.3555432,7.64384383 C15.2098066,7.41926014 13.12952,8.92717917 12.0361183,8.92717917 C10.9208998,8.92717917 9.23716388,7.66566053 7.42509438,7.70287725 C5.03933864,7.77966496 2.8691223,9.10352617 1.70911878,11.1896994 C-0.762585087,15.4670561 1.0815678,21.7566826 3.44803816,25.2165546 C4.63255668,26.9092739 6.01470884,28.8009102 7.82806168,28.7341768 C9.60034778,28.6610267 10.2663988,27.6035584 12.4018688,27.6035584 C14.5219388,27.6035584 15.1430731,28.7341768 16.991076,28.6918267 C18.892979,28.6610267 20.0916142,26.9901241 21.235066,25.2794381 C22.0862686,24.0729198 22.7411698,22.739295 23.175469,21.3280486 C20.916156,20.3738193 19.446591,18.1608808 19.4435298,15.7083231 Z M15.1790065,5.39287364 C16.2163032,4.14797435 16.7273288,2.5476817 16.6035087,0.932 C15.0190304,1.09849044 13.5554723,1.85592988 12.5045357,3.05335332 C11.4664373,4.23432873 10.9405626,5.77963395 11.0428167,7.3486767 C12.6485084,7.36547626 14.1731207,6.64456121 15.1790065,5.39287364 Z" id="Shape"></path>
                        <rect id="Rectangle-path" fill-rule="nonzero" opacity="0.200000003" x="40" y="6" width="1" height="23"></rect>
                        <path d="M57.6004615,2.26048352 C57.9244632,1.97248208 58.3004594,1.75248428 58.7284615,1.60048352 C59.1564637,1.44848276 59.6424588,1.37248352 60.1864615,1.37248352 C60.6304638,1.37248352 61.0294598,1.42648298 61.3834615,1.53448352 C61.7374633,1.64248406 62.0384603,1.79448254 62.2864615,1.99048352 C62.5344628,2.1864845 62.7254609,2.41848218 62.8594615,2.68648352 C62.9934622,2.95448486 63.0604615,3.24848192 63.0604615,3.56848352 C63.0604615,4.00048568 62.9534626,4.38048188 62.7394615,4.70848352 C62.5254605,5.03648516 62.2244635,5.29048262 61.8364615,5.47048352 C62.0564626,5.56248398 62.2564606,5.67548285 62.4364615,5.80948352 C62.6164624,5.94348419 62.7714609,6.09448268 62.9014615,6.26248352 C63.0314622,6.43048436 63.1314612,6.61448252 63.2014615,6.81448352 C63.2714619,7.01448452 63.3064615,7.22448242 63.3064615,7.44448352 C63.3064615,7.8204854 63.2364622,8.17248188 63.0964615,8.50048352 C62.9564608,8.82848516 62.7534629,9.11348231 62.4874615,9.35548352 C62.2214602,9.59748473 61.8944635,9.78848282 61.5064615,9.92848352 C61.1184596,10.0684842 60.676464,10.1384835 60.1804615,10.1384835 C59.5644585,10.1384835 59.010464,10.0374845 58.5184615,9.83548352 C58.0264591,9.63348251 57.6044633,9.36048524 57.2524615,9.01648352 L57.5884615,8.46448352 C57.6204617,8.4204833 57.6604613,8.38348367 57.7084615,8.35348352 C57.7564618,8.32348337 57.8084613,8.30848352 57.8644615,8.30848352 C57.948462,8.30848352 58.048461,8.35348307 58.1644615,8.44348352 C58.2804621,8.53348397 58.4284606,8.63248298 58.6084615,8.74048352 C58.7884624,8.84848406 59.0074602,8.94748307 59.2654615,9.03748352 C59.5234628,9.12748397 59.8384597,9.17248352 60.2104615,9.17248352 C60.5264631,9.17248352 60.8094603,9.1344839 61.0594615,9.05848352 C61.3094628,8.98248314 61.5194607,8.87248424 61.6894615,8.72848352 C61.8594624,8.5844828 61.9894611,8.40848456 62.0794615,8.20048352 C62.169462,7.99248248 62.2144615,7.75848482 62.2144615,7.49848352 C62.2144615,7.2744824 62.171462,7.06848446 62.0854615,6.88048352 C61.9994611,6.69248258 61.8744624,6.53148419 61.7104615,6.39748352 C61.5464607,6.26348285 61.3464627,6.15948389 61.1104615,6.08548352 C60.8744604,6.01148315 60.608463,5.97448352 60.3124615,5.97448352 L59.1364615,5.97448352 L59.1364615,5.02048352 L60.2644615,5.02048352 C60.5084628,5.02048352 60.7354605,4.99048382 60.9454615,4.93048352 C61.1554626,4.87048322 61.3354608,4.7824841 61.4854615,4.66648352 C61.6354623,4.55048294 61.7534611,4.40848436 61.8394615,4.24048352 C61.925462,4.07248268 61.9684615,3.8804846 61.9684615,3.66448352 C61.9684615,3.46848254 61.9284619,3.28848434 61.8484615,3.12448352 C61.7684611,2.9604827 61.6524623,2.81948411 61.5004615,2.70148352 C61.3484608,2.58348293 61.1624626,2.49248384 60.9424615,2.42848352 C60.7224604,2.3644832 60.4724629,2.33248352 60.1924615,2.33248352 C59.8684599,2.33248352 59.5924627,2.36648318 59.3644615,2.43448352 C59.1364604,2.50248386 58.9444623,2.57748311 58.7884615,2.65948352 C58.6324608,2.74148393 58.505462,2.81648318 58.4074615,2.88448352 C58.309461,2.95248386 58.2244619,2.98648352 58.1524615,2.98648352 C58.0884612,2.98648352 58.0364617,2.97248366 57.9964615,2.94448352 C57.9564613,2.91648338 57.9184617,2.87048384 57.8824615,2.80648352 L57.6004615,2.26048352 Z M67.9504615,7.31848352 C67.4584591,7.3344836 67.0394633,7.37348321 66.6934615,7.43548352 C66.3474598,7.49748383 66.0654626,7.57848302 65.8474615,7.67848352 C65.6294604,7.77848402 65.471462,7.89648284 65.3734615,8.03248352 C65.275461,8.1684842 65.2264615,8.32048268 65.2264615,8.48848352 C65.2264615,8.64848432 65.2524613,8.78648294 65.3044615,8.90248352 C65.3564618,9.0184841 65.4274611,9.11348315 65.5174615,9.18748352 C65.607462,9.26148389 65.7134609,9.31548335 65.8354615,9.34948352 C65.9574621,9.38348369 66.0884608,9.40048352 66.2284615,9.40048352 C66.4164625,9.40048352 66.5884608,9.38148371 66.7444615,9.34348352 C66.9004623,9.30548333 67.0474608,9.25048388 67.1854615,9.17848352 C67.3234622,9.10648316 67.4554609,9.02048402 67.5814615,8.92048352 C67.7074622,8.82048302 67.8304609,8.70648416 67.9504615,8.57848352 L67.9504615,7.31848352 Z M64.5004615,4.83448352 C64.8364632,4.5104819 65.1984596,4.26848432 65.5864615,4.10848352 C65.9744635,3.94848272 66.4044592,3.86848352 66.8764615,3.86848352 C67.2164632,3.86848352 67.5184602,3.92448296 67.7824615,4.03648352 C68.0464629,4.14848408 68.2684606,4.30448252 68.4484615,4.50448352 C68.6284624,4.70448452 68.7644611,4.9464821 68.8564615,5.23048352 C68.948462,5.51448494 68.9944615,5.82648182 68.9944615,6.16648352 L68.9944615,10.0544835 L68.5204615,10.0544835 C68.416461,10.0544835 68.3364618,10.0374837 68.2804615,10.0034835 C68.2244613,9.96948335 68.1804617,9.90248402 68.1484615,9.80248352 L68.0284615,9.22648352 C67.8684607,9.37448426 67.7124623,9.50548295 67.5604615,9.61948352 C67.4084608,9.73348409 67.2484624,9.82948313 67.0804615,9.90748352 C66.9124607,9.98548391 66.7334625,10.0454833 66.5434615,10.0874835 C66.3534606,10.1294837 66.1424627,10.1504835 65.9104615,10.1504835 C65.6744604,10.1504835 65.4524626,10.1174838 65.2444615,10.0514835 C65.0364605,9.98548319 64.8554623,9.88648418 64.7014615,9.75448352 C64.5474608,9.62248286 64.425462,9.45548453 64.3354615,9.25348352 C64.2454611,9.05148251 64.2004615,8.8124849 64.2004615,8.53648352 C64.2004615,8.29648232 64.2664609,8.06548463 64.3984615,7.84348352 C64.5304622,7.62148241 64.7444601,7.42448438 65.0404615,7.25248352 C65.336463,7.08048266 65.7224592,6.93948407 66.1984615,6.82948352 C66.6744639,6.71948297 67.2584581,6.6564836 67.9504615,6.64048352 L67.9504615,6.16648352 C67.9504615,5.69448116 67.8484626,5.33748473 67.6444615,5.09548352 C67.4404605,4.85348231 67.1424635,4.73248352 66.7504615,4.73248352 C66.4864602,4.73248352 66.2654624,4.76548319 66.0874615,4.83148352 C65.9094606,4.89748385 65.7554622,4.97148311 65.6254615,5.05348352 C65.4954609,5.13548393 65.383462,5.20948319 65.2894615,5.27548352 C65.1954611,5.34148385 65.102462,5.37448352 65.0104615,5.37448352 C64.9384612,5.37448352 64.8764618,5.35548371 64.8244615,5.31748352 C64.7724613,5.27948333 64.7284617,5.2324838 64.6924615,5.17648352 L64.5004615,4.83448352 Z M74.5624615,4.79248352 L71.6944615,4.79248352 L71.6944615,10.0544835 L70.6204615,10.0544835 L70.6204615,3.97648352 L74.5624615,3.97648352 L74.5624615,4.79248352 Z M76.6504615,8.59048352 C76.8464625,8.85448484 77.0604604,9.04048298 77.2924615,9.14848352 C77.5244627,9.25648406 77.7844601,9.31048352 78.0724615,9.31048352 C78.6404644,9.31048352 79.07646,9.10848554 79.3804615,8.70448352 C79.6844631,8.3004815 79.8364615,7.72448726 79.8364615,6.97648352 C79.8364615,6.58048154 79.8014619,6.24048494 79.7314615,5.95648352 C79.6614612,5.6724821 79.5604622,5.43948443 79.4284615,5.25748352 C79.2964609,5.07548261 79.1344625,4.94248394 78.9424615,4.85848352 C78.7504606,4.7744831 78.5324628,4.73248352 78.2884615,4.73248352 C77.9404598,4.73248352 77.6354628,4.81248272 77.3734615,4.97248352 C77.1114602,5.13248432 76.8704626,5.35848206 76.6504615,5.65048352 L76.6504615,8.59048352 Z M76.5964615,4.91848352 C76.8524628,4.60248194 77.1484599,4.34848448 77.4844615,4.15648352 C77.8204632,3.96448256 78.2044594,3.86848352 78.6364615,3.86848352 C78.9884633,3.86848352 79.3064601,3.93548285 79.5904615,4.06948352 C79.874463,4.20348419 80.1164605,4.40148221 80.3164615,4.66348352 C80.5164625,4.92548483 80.670461,5.25048158 80.7784615,5.63848352 C80.8864621,6.02648546 80.9404615,6.472481 80.9404615,6.97648352 C80.9404615,7.42448576 80.8804621,7.84148159 80.7604615,8.22748352 C80.6404609,8.61348545 80.4674627,8.94748211 80.2414615,9.22948352 C80.0154604,9.51148493 79.7394632,9.73348271 79.4134615,9.89548352 C79.0874599,10.0574843 78.7204636,10.1384835 78.3124615,10.1384835 C77.9404597,10.1384835 77.6214629,10.0754841 77.3554615,9.94948352 C77.0894602,9.82348289 76.8544626,9.64848464 76.6504615,9.42448352 L76.6504615,12.1124835 L75.5764615,12.1124835 L75.5764615,3.97648352 L76.2184615,3.97648352 C76.3704623,3.97648352 76.4644614,4.05048278 76.5004615,4.19848352 L76.5964615,4.91848352 Z M87.3784615,3.97648352 L83.9884615,11.8484835 C83.9524614,11.9284839 83.9074618,11.9924833 83.8534615,12.0404835 C83.7994613,12.0884838 83.7164621,12.1124835 83.6044615,12.1124835 L82.8124615,12.1124835 L83.9224615,9.70048352 L81.4144615,3.97648352 L82.3384615,3.97648352 C82.430462,3.97648352 82.5034613,3.99948329 82.5574615,4.04548352 C82.6114618,4.09148375 82.6484614,4.14248324 82.6684615,4.19848352 L84.2944615,8.02648352 C84.3584619,8.19448436 84.4124613,8.3704826 84.4564615,8.55448352 C84.5124618,8.36648258 84.5724612,8.18848436 84.6364615,8.02048352 L86.2144615,4.19848352 C86.2384617,4.1344832 86.2794612,4.08148373 86.3374615,4.03948352 C86.3954618,3.99748331 86.4604612,3.97648352 86.5324615,3.97648352 L87.3784615,3.97648352 Z M87.8944615,4.60048352 C88.1224627,4.38448244 88.3994599,4.21048418 88.7254615,4.07848352 C89.0514632,3.94648286 89.4444592,3.88048352 89.9044615,3.88048352 C90.2724634,3.88048352 90.5964601,3.92548307 90.8764615,4.01548352 C91.1564629,4.10548397 91.3914606,4.22448278 91.5814615,4.37248352 C91.7714625,4.52048426 91.915461,4.68948257 92.0134615,4.87948352 C92.111462,5.06948447 92.1604615,5.2664825 92.1604615,5.47048352 C92.1604615,5.59048412 92.1414617,5.71648286 92.1034615,5.84848352 C92.0654613,5.98048418 92.002462,6.10648292 91.9144615,6.22648352 C91.8264611,6.34648412 91.7124622,6.458483 91.5724615,6.56248352 C91.4324608,6.66648404 91.2584626,6.7504832 91.0504615,6.81448352 C91.4384635,6.9304841 91.7434604,7.11648224 91.9654615,7.37248352 C92.1874626,7.6284848 92.2984615,7.94248166 92.2984615,8.31448352 C92.2984615,8.59448492 92.2344622,8.84748239 92.1064615,9.07348352 C91.9784609,9.29948465 91.8064626,9.49148273 91.5904615,9.64948352 C91.3744605,9.80748431 91.123463,9.9284831 90.8374615,10.0124835 C90.5514601,10.0964839 90.2524631,10.1384835 89.9404615,10.1384835 C89.7444606,10.1384835 89.5454625,10.1204837 89.3434615,10.0844835 C89.1414605,10.0484833 88.9444625,9.99148391 88.7524615,9.91348352 C88.5604606,9.83548313 88.3794624,9.7384841 88.2094615,9.62248352 C88.0394607,9.50648294 87.8884622,9.36648434 87.7564615,9.20248352 L88.0564615,8.81248352 C88.1044618,8.74448318 88.1724611,8.71048352 88.2604615,8.71048352 C88.3324619,8.71048352 88.4094611,8.74148321 88.4914615,8.80348352 C88.5734619,8.86548383 88.6744609,8.93448314 88.7944615,9.01048352 C88.9144621,9.0864839 89.0614607,9.15548321 89.2354615,9.21748352 C89.4094624,9.27948383 89.6224603,9.31048352 89.8744615,9.31048352 C90.0944626,9.31048352 90.2914607,9.28348379 90.4654615,9.22948352 C90.6394624,9.17548325 90.7864609,9.100484 90.9064615,9.00448352 C91.0264621,8.90848304 91.1184612,8.79448418 91.1824615,8.66248352 C91.2464619,8.53048286 91.2784615,8.3864843 91.2784615,8.23048352 C91.2784615,7.93048202 91.1534628,7.68848444 90.9034615,7.50448352 C90.6534603,7.3204826 90.2744641,7.22848352 89.7664615,7.22848352 L89.0764615,7.22848352 L89.0764615,6.52048352 L89.7664615,6.52048352 C89.9864626,6.52048352 90.1844607,6.49748375 90.3604615,6.45148352 C90.5364624,6.40548329 90.6864609,6.34248392 90.8104615,6.26248352 C90.9344622,6.18248312 91.0284612,6.08548409 91.0924615,5.97148352 C91.1564619,5.85748295 91.1884615,5.73448418 91.1884615,5.60248352 C91.1884615,5.48248292 91.1614618,5.36848406 91.1074615,5.26048352 C91.0534613,5.15248298 90.9714621,5.05848392 90.8614615,4.97848352 C90.751461,4.89848312 90.6144624,4.83448376 90.4504615,4.78648352 C90.2864607,4.73848328 90.0944626,4.71448352 89.8744615,4.71448352 C89.6344603,4.71448352 89.4314624,4.73848328 89.2654615,4.78648352 C89.0994607,4.83448376 88.9594621,4.88648324 88.8454615,4.94248352 C88.731461,4.9984838 88.6384619,5.05048328 88.5664615,5.09848352 C88.4944612,5.14648376 88.4324618,5.17048352 88.3804615,5.17048352 C88.3284613,5.17048352 88.2854617,5.16048362 88.2514615,5.14048352 C88.2174614,5.12048342 88.1804617,5.07848384 88.1404615,5.01448352 L87.8944615,4.60048352 Z M98.8804615,3.97648352 L98.8804615,10.0544835 L97.8124615,10.0544835 L97.8124615,5.92648352 C97.8124615,5.84648312 97.8164615,5.76048398 97.8244615,5.66848352 C97.8324616,5.57648306 97.8424615,5.48448398 97.8544615,5.39248352 C97.8184614,5.47248392 97.7824617,5.54648318 97.7464615,5.61448352 C97.7104614,5.68248386 97.6724617,5.74448324 97.6324615,5.80048352 L94.6984615,9.79048352 C94.6544613,9.85448384 94.5994619,9.91548323 94.5334615,9.97348352 C94.4674612,10.0314838 94.3944619,10.0604835 94.3144615,10.0604835 L93.6664615,10.0604835 L93.6664615,3.98248352 L94.7404615,3.98248352 L94.7404615,8.11048352 C94.7404615,8.1864839 94.7364616,8.26948307 94.7284615,8.35948352 C94.7204615,8.44948397 94.7104616,8.54048306 94.6984615,8.63248352 C94.7344617,8.55648314 94.7704614,8.48548385 94.8064615,8.41948352 C94.8424617,8.35348319 94.8784614,8.2924838 94.9144615,8.23648352 L97.8484615,4.24648352 C97.8924618,4.1824832 97.9484612,4.12148381 98.0164615,4.06348352 C98.0844619,4.00548323 98.1584611,3.97648352 98.2384615,3.97648352 L98.8804615,3.97648352 Z M105.624462,4.79248352 L103.290462,4.79248352 L103.290462,10.0544835 L102.222462,10.0544835 L102.222462,4.79248352 L99.8884615,4.79248352 L99.8884615,3.97648352 L105.624462,3.97648352 L105.624462,4.79248352 Z M110.460462,6.35248352 C110.460462,6.10448228 110.425462,5.87748455 110.355462,5.67148352 C110.285461,5.46548249 110.183462,5.28748427 110.049462,5.13748352 C109.915461,4.98748277 109.752462,4.87148393 109.560462,4.78948352 C109.368461,4.70748311 109.150463,4.66648352 108.906462,4.66648352 C108.394459,4.66648352 107.989463,4.81548203 107.691462,5.11348352 C107.39346,5.41148501 107.208462,5.82448088 107.136462,6.35248352 L110.460462,6.35248352 Z M111.324462,9.20248352 C111.192461,9.36248432 111.034462,9.50148293 110.850462,9.61948352 C110.666461,9.73748411 110.469463,9.83448314 110.259462,9.91048352 C110.04946,9.9864839 109.832463,10.0434833 109.608462,10.0814835 C109.38446,10.1194837 109.162463,10.1384835 108.942462,10.1384835 C108.522459,10.1384835 108.135463,10.0674842 107.781462,9.92548352 C107.42746,9.78348281 107.121463,9.57548489 106.863462,9.30148352 C106.60546,9.02748215 106.404462,8.68848554 106.260462,8.28448352 C106.116461,7.8804815 106.044462,7.41648614 106.044462,6.89248352 C106.044462,6.4684814 106.109461,6.07248536 106.239462,5.70448352 C106.369462,5.33648168 106.55646,5.01748487 106.800462,4.74748352 C107.044463,4.47748217 107.34246,4.26548429 107.694462,4.11148352 C108.046463,3.95748275 108.442459,3.88048352 108.882462,3.88048352 C109.246463,3.88048352 109.58346,3.94148291 109.893462,4.06348352 C110.203463,4.18548413 110.47146,4.36148237 110.697462,4.59148352 C110.923463,4.82148467 111.100461,5.10548183 111.228462,5.44348352 C111.356462,5.78148521 111.420462,6.16648136 111.420462,6.59848352 C111.420462,6.76648436 111.402462,6.87848324 111.366462,6.93448352 C111.330461,6.9904838 111.262462,7.01848352 111.162462,7.01848352 L107.100462,7.01848352 C107.112462,7.40248544 107.165461,7.7364821 107.259462,8.02048352 C107.353462,8.30448494 107.484461,8.54148257 107.652462,8.73148352 C107.820462,8.92148447 108.02046,9.06348305 108.252462,9.15748352 C108.484463,9.25148399 108.74446,9.29848352 109.032462,9.29848352 C109.300463,9.29848352 109.531461,9.26748383 109.725462,9.20548352 C109.919463,9.14348321 110.086461,9.07648388 110.226462,9.00448352 C110.366462,8.93248316 110.483461,8.86548383 110.577462,8.80348352 C110.671462,8.74148321 110.752461,8.71048352 110.820462,8.71048352 C110.908462,8.71048352 110.976461,8.74448318 111.024462,8.81248352 L111.324462,9.20248352 Z M118.134462,9.30448352 C118.534464,9.30448352 118.85046,9.21148445 119.082462,9.02548352 C119.314463,8.83948259 119.430462,8.58448514 119.430462,8.26048352 C119.430462,8.1164828 119.408462,7.98548411 119.364462,7.86748352 C119.320461,7.74948293 119.248462,7.64648396 119.148462,7.55848352 C119.048461,7.47048308 118.915462,7.40248376 118.749462,7.35448352 C118.583461,7.30648328 118.380463,7.28248352 118.140462,7.28248352 L116.826462,7.28248352 L116.826462,9.30448352 L118.134462,9.30448352 Z M116.826462,4.69648352 L116.826462,6.60448352 L117.996462,6.60448352 C118.172462,6.60448352 118.335461,6.57948377 118.485462,6.52948352 C118.635462,6.47948327 118.764461,6.40948397 118.872462,6.31948352 C118.980462,6.22948307 119.064461,6.12148415 119.124462,5.99548352 C119.184462,5.86948289 119.214462,5.73048428 119.214462,5.57848352 C119.214462,5.46648296 119.194462,5.35748405 119.154462,5.25148352 C119.114461,5.14548299 119.046462,5.05148393 118.950462,4.96948352 C118.854461,4.88748311 118.728462,4.82148377 118.572462,4.77148352 C118.416461,4.72148327 118.224463,4.69648352 117.996462,4.69648352 L116.826462,4.69648352 Z M118.026462,3.97648352 C118.402463,3.97648352 118.72446,4.01448314 118.992462,4.09048352 C119.260463,4.1664839 119.480461,4.26948287 119.652462,4.39948352 C119.824462,4.52948417 119.950461,4.68248264 120.030462,4.85848352 C120.110462,5.0344844 120.150462,5.22248252 120.150462,5.42248352 C120.150462,5.55448418 120.132462,5.6924828 120.096462,5.83648352 C120.060461,5.98048424 119.997462,6.11848286 119.907462,6.25048352 C119.817461,6.38248418 119.695462,6.50148299 119.541462,6.60748352 C119.387461,6.71348405 119.194463,6.79648322 118.962462,6.85648352 C119.426464,6.93648392 119.78446,7.09748231 120.036462,7.33948352 C120.288463,7.58148473 120.414462,7.90048154 120.414462,8.29648352 C120.414462,8.592485 120.355462,8.84948243 120.237462,9.06748352 C120.119461,9.28548461 119.957463,9.46848278 119.751462,9.61648352 C119.545461,9.76448426 119.304463,9.87448316 119.028462,9.94648352 C118.75246,10.0184839 118.456463,10.0544835 118.140462,10.0544835 L115.800462,10.0544835 L115.800462,3.97648352 L118.026462,3.97648352 Z" id="Загрузите-в"></path>
                    </g>
                </g>
            </g>
        </g>
    </g>
</svg>