<?xml version="1.0" encoding="UTF-8"?>
<svg width="136px" height="43px" viewBox="0 0 136 43" version="1.1" xmlns="http://www.w3.org/2000/svg" xmlns:xlink="http://www.w3.org/1999/xlink">
    <!-- Generator: sketchtool 51.2 (57519) - http://www.bohemiancoding.com/sketch -->
    <title>0044A630-8061-4AAA-A3CD-426F61FB541C</title>
    <desc>Created with sketchtool.</desc>
    <defs></defs>
    <g id="320" stroke="none" stroke-width="1" fill="none" fill-rule="evenodd">
        <g id="png_2.0/ostrog_2.0_ficher_320_02" transform="translate(-92.000000, -2867.000000)" fill="#FFFFFF">
            <g id="Футер" transform="translate(-2.000000, 2851.000000)">
                <g id="Ostrog_logo-Copy" transform="translate(94.000000, 16.000000)">
                    <path d="M43.1836618,19.1153438 C43.1836618,16.8545813 44.6375216,15.3887167 47.3744754,15.3887167 L53.5690462,15.3887167 C56.3052167,15.3887167 57.7598598,16.8545813 57.7598598,19.1153438 L57.7598598,26.2733729 C57.7598598,28.5341354 56.3052167,30 53.5690462,30 L47.3744754,30 C44.6375216,30 43.1836618,28.5341354 43.1836618,26.2733729 L43.1836618,19.1153438 Z M47.2667222,27.513128 C47.5922366,27.8411535 48.0367622,28.020683 48.4969868,28.0099922 L52.4418349,28.0099922 C52.9019938,28.0204558 53.3463872,27.8408532 53.6718516,27.5128781 C53.9973159,27.1849031 54.1755436,26.7370815 54.1651601,26.2733729 L54.1651601,19.1153438 C54.1755436,18.6516352 53.9973159,18.2038136 53.6718516,17.8758385 C53.3463872,17.5478635 52.9019938,17.3682609 52.4418349,17.3787245 L48.5024701,17.3787245 C48.0422455,17.3680337 47.5977199,17.5475632 47.2722055,17.8755887 C46.9466911,18.2036142 46.7685358,18.651569 46.7791449,19.1153438 L46.7791449,26.2733729 C46.7630525,26.7371477 46.9412078,27.1851025 47.2667222,27.513128 Z M104.505057,19.1153438 C104.505057,16.8545813 105.9597,15.3887167 108.696653,15.3887167 L114.891224,15.3887167 C117.627395,15.3887167 119.082038,16.8545813 119.082038,19.1153438 L119.082038,26.2733729 C119.082038,28.5341354 117.627395,30 114.891224,30 L108.696653,30 C105.9597,30 104.505057,28.5341354 104.505057,26.2733729 L104.505057,19.1153438 Z M108.5889,27.513128 C108.914415,27.8411535 109.35894,28.020683 109.819165,28.0099922 L113.76323,28.0099922 C114.223454,28.020683 114.66798,27.8411535 114.993494,27.513128 C115.319009,27.1851025 115.497164,26.7371477 115.486555,26.2733729 L115.486555,19.1153438 C115.497164,18.651569 115.319009,18.2036142 114.993494,17.8755887 C114.66798,17.5475632 114.223454,17.3680337 113.76323,17.3787245 L109.819165,17.3787245 C109.35894,17.3680337 108.914415,17.5475632 108.5889,17.8755887 C108.263386,18.2036142 108.085231,18.651569 108.09584,19.1153438 L108.09584,26.2733729 C108.085231,26.7371477 108.263386,27.1851025 108.5889,27.513128 Z M62.4089213,23.1995567 C60.4364973,22.7259332 59.2043197,21.4629374 59.2043197,19.3489981 C59.2043197,17.1032336 60.6589629,15.637369 63.3951333,15.637369 L71.4226956,15.637369 L71.4226956,16.7527522 L70.6832324,17.6210619 L64.5199947,17.6210619 C64.0597701,17.610371 63.6152445,17.7899006 63.2897301,18.117926 C62.9642157,18.4459515 62.7860605,18.8939063 62.7966695,19.3576812 C62.8140273,20.210877 63.4343359,20.9388846 64.2763792,21.0864067 L69.8380197,22.2041581 C71.8104437,22.6777815 73.0426213,23.9407774 73.0426213,26.0547167 C73.0426213,28.2839044 71.5879781,29.7497689 68.8518077,29.7497689 L60.0886989,29.7497689 L60.0886989,27.7644973 L67.7316463,27.7644973 C68.1918052,27.774961 68.6361986,27.5953583 68.961663,27.2673833 C69.2871273,26.9394083 69.465355,26.4915867 69.4549715,26.027878 C69.4376137,25.1983634 68.8173051,24.4703558 67.9752618,24.3228336 L62.4089213,23.1995567 Z M86.8488063,15.637369 L86.8488063,16.7527522 L86.1093431,17.6210619 L81.6717807,17.6210619 L81.6717807,29.7513477 L78.0809976,29.7513477 L78.0809976,17.6250087 L72.9039719,17.6250087 L72.9039719,15.637369 L86.8488063,15.637369 Z M88.5995481,15.637369 L98.4922182,15.637369 C101.228389,15.637369 102.683032,17.1032336 102.683032,19.3639961 L102.683032,21.0887749 C102.69219,22.2931647 102.024927,23.3992796 100.959707,23.9455136 C100.423535,24.247704 99.8411027,24.4576631 99.2363813,24.5667497 L102.677548,28.5136118 L102.677548,29.7560839 L99.8364119,29.7560839 L95.6455982,24.8193489 L92.1942478,24.8193489 L92.1942478,29.7560839 L88.604248,29.7560839 L88.5995481,15.637369 Z M97.3665735,22.8269729 C97.8267981,22.8376638 98.2713237,22.6581342 98.5968381,22.3301087 C98.9223525,22.0020832 99.1005077,21.5541285 99.0898987,21.0903536 L99.0898987,19.3639961 C99.1005077,18.9002213 98.9223525,18.4522665 98.5968381,18.124241 C98.2713237,17.7962155 97.8267981,17.616686 97.3665735,17.6273768 L92.1895478,17.6273768 L92.1895478,22.8309198 L97.3665735,22.8269729 Z M128.160829,21.8339424 L135.449711,21.8339424 L135.449711,29.7513477 L125.314209,29.7513477 C122.578038,29.7513477 121.123395,28.2854831 121.123395,26.0247205 L121.123395,19.3639961 C121.123395,17.1032336 122.578038,15.637369 125.314209,15.637369 L135.469294,15.637369 L135.469294,16.7527522 L134.729048,17.6210619 L126.43907,17.6210619 C125.978845,17.610371 125.53432,17.7899006 125.208805,18.117926 C124.883291,18.4459515 124.705136,18.8939063 124.715745,19.3576812 L124.715745,26.0191949 C124.705136,26.4829698 124.883291,26.9309246 125.208805,27.2589501 C125.53432,27.5869755 125.978845,27.7665051 126.43907,27.7558142 L131.862844,27.7558142 L131.862844,23.8089522 L128.164745,23.8089522 L128.160829,21.8339424 Z M0.233213498,10.1931659 L0.233213498,29.4538527 L4.76399218,28.3487314 L7.3246968,22.6920887 L10.0663506,22.4197552 L11.5390103,22.2745107 L13.5756674,22.071642 L14.3652637,21.9927047 L23.4135044,21.1038714 L23.4135044,20.4092237 L6.64085001,20.4092237 L6.64085001,17.9305943 L8.32265877,17.7821923 L8.9681224,17.7253575 L8.9681224,18.6860237 L10.8614302,18.6860237 L10.8614302,17.5572211 L13.446418,17.3298819 L13.8615827,17.2935708 L13.8615827,18.6860237 L15.7556738,18.6860237 L15.7556738,17.1246451 L19.2273908,16.8191579 L19.2273908,18.6844449 L21.1206985,18.6844449 L21.1206985,16.6510216 L21.8076786,16.5902399 L24.1177178,16.3873712 L24.1177178,18.6844449 L26.0110255,18.6844449 L26.0110255,15.7527158 L5.48778877,15.7527158 L5.48778877,14.5291886 L15.0365772,9.24828716 L17.5346154,7.86609607 L29.2649769,14.3547373 L29.2649769,15.7519264 L28.4228975,15.7519264 L28.4228975,20.4747416 L26.8632882,20.4747416 L27.7844839,22.7402404 L33.0938922,21.3698899 L33.0938922,10.2981525 L17.5299154,0 L0.233213498,10.1931659 Z M14.8062783,6.17052413 L17.5299154,4.915422 L17.5299154,7.15013529 L14.8062783,6.17052413 Z M33.0907589,23.7790545 L33.0907589,31.9648464 L30.9060525,33.2531022 L30.9060525,25.3964786 L28.6014967,28.0014075 L28.6014967,34.6068758 L25.8598429,36.2219318 L25.8598429,26.5181767 L23.5529371,29.1231057 L23.5529371,37.5859673 L20.8112833,39.1986551 L20.8112833,27.6438218 L18.5043775,30.2487508 L18.5043775,40.5595332 L15.7901403,42.1580123 L15.7635071,28.7663094 L13.4589513,31.3712383 L13.4589513,40.6147892 L10.7172975,38.7992327 L10.7172975,29.8911651 L8.41039169,32.496094 L8.41039169,37.2749546 L5.66873792,35.459398 L5.66873792,31.2544112 L3.36183211,33.8593402 L3.36183211,33.9382774 L0.22851352,31.8614386 L33.0907589,23.7790545 Z" id="svg/footer/Ostrog_logo"></path>
                </g>
            </g>
        </g>
    </g>
</svg>