<svg width="32" height="32" viewBox="0 0 32 32" fill="none" xmlns="http://www.w3.org/2000/svg">
<g id="coming_soon">
<g id="Group 9" opacity="0.400268">
<path id="Oval" fill-rule="evenodd" clip-rule="evenodd" d="M15.5 23C19.6421 23 23 19.6421 23 15.5C23 11.3579 19.6421 8 15.5 8C11.3579 8 8 11.3579 8 15.5C8 19.6421 11.3579 23 15.5 23Z" stroke="white" stroke-width="2"/>
<path id="Path 5" d="M16.5 12.123C16.5 11.5707 16.0523 11.123 15.5 11.123C14.9477 11.123 14.5 11.5707 14.5 12.123V15.9664C14.5 16.3679 14.7401 16.7305 15.1098 16.8872L17.4837 17.8932C17.9922 18.1086 18.5792 17.8711 18.7946 17.3626C19.0101 16.8541 18.7726 16.2672 18.2641 16.0517L16.5 15.3041V12.123Z" fill="white"/>
</g>
</g>
</svg>
