<svg width="27" height="17" viewBox="0 0 27 17" fill="none" xmlns="http://www.w3.org/2000/svg">
<path fill-rule="evenodd" clip-rule="evenodd" d="M3.47759 13.1629H11.5224L12.728 16.3929C12.7743 16.5224 12.8594 16.656 12.983 16.7936C13.1066 16.9312 13.323 17 13.6321 17H14.49C14.6291 17 14.7488 16.9474 14.8493 16.8421C14.9498 16.7369 15 16.6114 15 16.4657C15 16.3848 14.9691 16.2714 14.9073 16.1257L9.25039 0.801429C9.17311 0.623332 9.05719 0.445239 8.90263 0.267143C8.74807 0.0890467 8.51623 0 8.20711 0H6.81607C6.50695 0 6.27512 0.0890467 6.12056 0.267143C5.966 0.445239 5.85008 0.623332 5.7728 0.801429L0.0927357 16.1257C0.0309116 16.2714 0 16.3848 0 16.4657C0 16.6114 0.0502313 16.7369 0.150696 16.8421C0.25116 16.9474 0.370942 17 0.510046 17H1.36785C1.67697 17 1.89335 16.9312 2.017 16.7936C2.14065 16.656 2.22566 16.5224 2.27202 16.3929L3.47759 13.1629ZM10.711 10.9771H4.28903L7.51159 2.30714L10.711 10.9771Z" fill="white"/>
<g opacity="0.6">
<rect x="21" y="6" width="2" height="9" rx="1" fill="white"/>
<path fill-rule="evenodd" clip-rule="evenodd" d="M25.5 9.5C26.0523 9.5 26.5 9.94772 26.5 10.5C26.5 11.0523 26.0523 11.5 25.5 11.5L18.5 11.5C17.9477 11.5 17.5 11.0523 17.5 10.5C17.5 9.94772 17.9477 9.5 18.5 9.5H25.5Z" fill="white"/>
</g>
</svg>
