<svg width="32" height="32" viewBox="0 0 32 32" fill="none" xmlns="http://www.w3.org/2000/svg">
<g id="guides">
<g id="Group 13" opacity="0.400268">
<path id="Oval" fill-rule="evenodd" clip-rule="evenodd" d="M11 13C12.6569 13 14 11.6569 14 10C14 8.34315 12.6569 7 11 7C9.34315 7 8 8.34315 8 10C8 11.6569 9.34315 13 11 13Z" fill="white"/>
<path id="Oval Copy" fill-rule="evenodd" clip-rule="evenodd" d="M20 25C21.6569 25 23 23.6569 23 22C23 20.3431 21.6569 19 20 19C18.3431 19 17 20.3431 17 22C17 23.6569 18.3431 25 20 25Z" fill="white"/>
<path id="Combined Shape" fill-rule="evenodd" clip-rule="evenodd" d="M15.9 11C15.9656 10.6769 16 10.3425 16 10C16 9.65753 15.9656 9.32311 15.9 9H18.0923C20.2505 9 22 10.7495 22 12.9077C22 15.0659 20.2505 16.8154 18.0923 16.8154H13.0923C11.9368 16.8154 11 17.7521 11 18.9077C11 20.0632 11.9368 21 13.0923 21H15.1C15.0344 21.3231 15 21.6575 15 22C15 22.3425 15.0344 22.6769 15.1 23H13.0923C10.8322 23 9 21.1678 9 18.9077C9 16.6476 10.8322 14.8154 13.0923 14.8154H18.0923C19.1459 14.8154 20 13.9613 20 12.9077C20 11.8541 19.1459 11 18.0923 11H15.9Z" fill="white"/>
</g>
</g>
</svg>
