<svg width="17" height="15" viewBox="0 0 17 15" fill="none" xmlns="http://www.w3.org/2000/svg">
<path fill-rule="evenodd" clip-rule="evenodd" d="M12.9688 8.3125C13.6415 8.3125 14.1875 8.8585 14.1875 9.53125V11.9688C14.1875 12.6415 13.6415 13.1875 12.9688 13.1875H10.5312C9.8585 13.1875 9.3125 12.6415 9.3125 11.9688V9.53125C9.3125 8.8585 9.8585 8.3125 10.5312 8.3125H12.9688ZM6.46875 8.3125C7.1415 8.3125 7.6875 8.8585 7.6875 9.53125V11.9688C7.6875 12.6415 7.1415 13.1875 6.46875 13.1875H4.03125C3.3585 13.1875 2.8125 12.6415 2.8125 11.9688V9.53125C2.8125 8.8585 3.3585 8.3125 4.03125 8.3125H6.46875ZM6.46875 1.8125C7.1415 1.8125 7.6875 2.3585 7.6875 3.03125V5.46875C7.6875 6.1415 7.1415 6.6875 6.46875 6.6875H4.03125C3.3585 6.6875 2.8125 6.1415 2.8125 5.46875V3.03125C2.8125 2.3585 3.3585 1.8125 4.03125 1.8125H6.46875ZM12.9688 1.8125C13.6415 1.8125 14.1875 2.3585 14.1875 3.03125V5.46875C14.1875 6.1415 13.6415 6.6875 12.9688 6.6875H10.5312C9.8585 6.6875 9.3125 6.1415 9.3125 5.46875V3.03125C9.3125 2.3585 9.8585 1.8125 10.5312 1.8125H12.9688Z" fill="white"/>
</svg>
