<svg width="37" height="31" viewBox="0 0 37 31" fill="none" xmlns="http://www.w3.org/2000/svg">
<g filter="url(#filter0_d)">
<path fill-rule="evenodd" clip-rule="evenodd" d="M7.96308 19.0133H15.9744L17.1749 22.0839C17.2211 22.207 17.3057 22.334 17.4288 22.4648C17.552 22.5956 17.7675 22.6611 18.0753 22.6611H18.9295C19.068 22.6611 19.1873 22.611 19.2874 22.511C19.3874 22.4109 19.4374 22.2917 19.4374 22.1531C19.4374 22.0762 19.4067 21.9684 19.3451 21.8299L13.7118 7.26188C13.6348 7.09257 13.5194 6.92327 13.3655 6.75396C13.2116 6.58465 12.9807 6.5 12.6729 6.5H11.2876C10.9798 6.5 10.7489 6.58465 10.595 6.75396C10.4411 6.92327 10.3257 7.09257 10.2487 7.26188L4.59235 21.8299C4.53078 21.9684 4.5 22.0762 4.5 22.1531C4.5 22.2917 4.55002 22.4109 4.65007 22.511C4.75011 22.611 4.8694 22.6611 5.00792 22.6611H5.86215C6.16998 22.6611 6.38546 22.5956 6.50859 22.4648C6.63172 22.334 6.71637 22.207 6.76255 22.0839L7.96308 19.0133ZM15.1663 16.9354H8.77114L11.9803 8.69329L15.1663 16.9354Z" fill="white"/>
<path fill-rule="evenodd" clip-rule="evenodd" d="M24.3725 20.0772H30.0471L30.8975 22.2522C30.9302 22.3394 30.9901 22.4294 31.0774 22.5221C31.1646 22.6147 31.3172 22.6611 31.5353 22.6611H32.1403C32.2385 22.6611 32.323 22.6256 32.3938 22.5548C32.4647 22.4839 32.5001 22.3994 32.5001 22.3013C32.5001 22.2468 32.4783 22.1705 32.4347 22.0723L28.4445 11.7533C28.3899 11.6334 28.3082 11.5135 28.1992 11.3935C28.0901 11.2736 27.9266 11.2136 27.7086 11.2136H26.7273C26.5093 11.2136 26.3458 11.2736 26.2367 11.3935C26.1277 11.5135 26.046 11.6334 25.9914 11.7533L21.9848 22.0723C21.9412 22.1705 21.9194 22.2468 21.9194 22.3013C21.9194 22.3994 21.9549 22.4839 22.0257 22.5548C22.0966 22.6256 22.1811 22.6611 22.2792 22.6611H22.8843C23.1023 22.6611 23.255 22.6147 23.3422 22.5221C23.4294 22.4294 23.4894 22.3394 23.5221 22.2522L24.3725 20.0772ZM29.4747 18.6054H24.9448L27.218 12.7672L29.4747 18.6054Z" fill="white"/>
</g>
<defs>
<filter id="filter0_d" x="0.5" y="6.5" width="36.0001" height="24.1611" filterUnits="userSpaceOnUse" color-interpolation-filters="sRGB">
<feFlood flood-opacity="0" result="BackgroundImageFix"/>
<feColorMatrix in="SourceAlpha" type="matrix" values="0 0 0 0 0 0 0 0 0 0 0 0 0 0 0 0 0 0 127 0"/>
<feOffset dy="4"/>
<feGaussianBlur stdDeviation="2"/>
<feColorMatrix type="matrix" values="0 0 0 0 0 0 0 0 0 0 0 0 0 0 0 0 0 0 0.25 0"/>
<feBlend mode="normal" in2="BackgroundImageFix" result="effect1_dropShadow"/>
<feBlend mode="normal" in="SourceGraphic" in2="effect1_dropShadow" result="shape"/>
</filter>
</defs>
</svg>
