<svg width="17" height="15" viewBox="0 0 17 15" fill="none" xmlns="http://www.w3.org/2000/svg">
<mask id="mask0" mask-type="alpha" maskUnits="userSpaceOnUse" x="0" y="1" width="17" height="14">
<path fill-rule="evenodd" clip-rule="evenodd" d="M0.984619 1H16.9846V14.9819H0.984619V1Z" fill="white"/>
</mask>
<g mask="url(#mask0)">
<path fill-rule="evenodd" clip-rule="evenodd" d="M10.6475 7.3338C10.3061 7.3338 10.0293 7.04663 10.0293 6.69237C10.0293 6.33807 10.3061 6.05087 10.6475 6.05087C10.989 6.05087 11.2658 6.33807 11.2658 6.69237C11.2658 7.04663 10.989 7.3338 10.6475 7.3338ZM12.3829 6.59274C10.7857 3.27852 7.69112 4.00352 7.69112 4.00352L7.19201 1C7.19201 1 6.49322 2.24284 4.69639 5.24636C3.84293 6.09776 2.88924 6.646 2 6.99851V14.9819H6.99233L8.78919 11.2534C8.78919 11.2534 8.78919 11.3569 13.0816 11.2534C17.3741 10.632 16.9748 7.31774 16.9748 7.31774L12.3829 6.59274Z" fill="white"/>
</g>
</svg>
