<svg width="22" height="18" viewBox="0 0 22 18" fill="none" xmlns="http://www.w3.org/2000/svg">
<g opacity="0.400268">
<mask id="path-1-inside-1" fill="white">
<path fill-rule="evenodd" clip-rule="evenodd" d="M7 5.75583L2 7.38629L2 10.5146L7 12.21V5.75583ZM7.01312 14.3263L7 14.3218L1.35776 12.4087C0.546091 12.1335 0 11.3717 0 10.5146V7.38628C0 6.52061 0.556933 5.75321 1.37995 5.48483L7 3.65218L7.01535 3.64718C7.19397 1.60329 8.90975 0 11 0C13.2091 0 15 1.79086 15 4V14C15 16.2091 13.2091 18 11 18C8.90072 18 7.17914 16.3828 7.01312 14.3263ZM9 14C9 15.1046 9.89543 16 11 16C12.1046 16 13 15.1046 13 14V4C13 2.89543 12.1046 2 11 2C9.89543 2 9 2.89543 9 4V5.10365V12.8882V14Z"/>
</mask>
<path d="M7 5.75583H9V3L6.37995 3.85437L7 5.75583ZM2 7.38629L1.37995 5.48483L-8.84964e-07 5.93482L0 7.38629L2 7.38629ZM2 10.5146L1.90735e-06 10.5146L2.78147e-06 11.9483L1.35776 12.4087L2 10.5146ZM7 12.21L6.35776 14.1041L9 15V12.21H7ZM7 14.3218L7.64228 12.4278L7.64224 12.4278L7 14.3218ZM7.01312 14.3263L9.00663 14.1654L8.90081 12.8545L7.6554 12.4322L7.01312 14.3263ZM1.35776 12.4087L0.715523 14.3028H0.715523L1.35776 12.4087ZM1.37995 5.48483L0.759904 3.58337L0.759904 3.58337L1.37995 5.48483ZM7 3.65218L6.37996 1.75072L6.37995 1.75072L7 3.65218ZM7.01535 3.64718L7.63538 5.54864L8.89262 5.13867L9.00775 3.8213L7.01535 3.64718ZM6.37995 3.85437L1.37995 5.48483L2.62005 9.28774L7.62005 7.65729L6.37995 3.85437ZM0 7.38629L1.90735e-06 10.5146L4 10.5146L4 7.38628L0 7.38629ZM1.35776 12.4087L6.35776 14.1041L7.64224 10.3159L2.64224 8.62053L1.35776 12.4087ZM9 12.21V5.75583H5V12.21H9ZM6.35772 16.2159L6.37084 16.2204L7.6554 12.4322L7.64228 12.4278L6.35772 16.2159ZM0.715523 14.3028L6.35776 16.2159L7.64224 12.4278L2 10.5146L0.715523 14.3028ZM-2 10.5146C-2 12.2287 -0.907819 13.7523 0.715523 14.3028L2 10.5146L2 10.5146H-2ZM-2 7.38628V10.5146H2V7.38628H-2ZM0.759904 3.58337C-0.886133 4.12013 -2 5.65494 -2 7.38628H2L2 7.38629L0.759904 3.58337ZM6.37995 1.75072L0.759904 3.58337L2 7.38629L7.62005 5.55364L6.37995 1.75072ZM6.39531 1.74572L6.37996 1.75072L7.62004 5.55364L7.63538 5.54864L6.39531 1.74572ZM9.00775 3.8213C9.09688 2.80146 9.95594 2 11 2V-2C7.86357 -2 5.29106 0.405112 5.02294 3.47305L9.00775 3.8213ZM11 2C12.1046 2 13 2.89543 13 4H17C17 0.686292 14.3137 -2 11 -2V2ZM13 4V14H17V4H13ZM13 14C13 15.1046 12.1046 16 11 16V20C14.3137 20 17 17.3137 17 14H13ZM11 16C9.95133 16 9.08948 15.1915 9.00663 14.1654L5.0196 14.4872C5.26881 17.5741 7.8501 20 11 20V16ZM7 14C7 16.2091 8.79086 18 11 18V14H7ZM11 18C13.2091 18 15 16.2091 15 14H11V18ZM15 14V4H11V14H15ZM15 4C15 1.79086 13.2091 0 11 0V4H15ZM11 0C8.79086 0 7 1.79086 7 4H11V0ZM11 5.10365V4H7V5.10365H11ZM11 12.8882V5.10365H7V12.8882H11ZM11 14V12.8882H7V14H11Z" fill="white" mask="url(#path-1-inside-1)"/>
<rect x="18.3535" y="1.73224" width="2" height="3" rx="1" transform="rotate(45 18.3535 1.73224)" fill="white"/>
<rect width="2" height="3" rx="1" transform="matrix(0.707107 -0.707107 -0.707107 -0.707107 18.3535 16.2678)" fill="white"/>
<rect x="22" y="8" width="2" height="5" rx="1" transform="rotate(90 22 8)" fill="white"/>
</g>
</svg>
