<svg width="32" height="32" viewBox="0 0 32 32" fill="none" xmlns="http://www.w3.org/2000/svg">
<g id="popular">
<g id="P_Lightning_16x16" opacity="0.400268">
<path id="P_Lightning_16x16_2" fill-rule="evenodd" clip-rule="evenodd" d="M16.784 7.39316C17.0675 7.07472 17.5237 6.92281 17.9717 7.03871C18.5935 7.19962 18.9633 7.81738 18.7965 8.41713L17.3032 13.7496H21.8333C22.4773 13.7496 23 14.2537 23 14.8748C23 15.1494 22.8985 15.4003 22.7293 15.5961L15.2125 24.5676C14.9337 24.9119 14.4577 25.0818 13.991 24.9614C13.3692 24.8017 12.9993 24.1839 13.1662 23.5842L14.6595 18.2505H10.1667C9.52267 18.2505 9 17.7464 9 17.1253C9 16.8541 9.09917 16.6055 9.26483 16.4119L16.7327 7.45392C16.749 7.43255 16.7665 7.41229 16.784 7.39316Z" fill="white"/>
</g>
</g>
</svg>
