<svg width="33" height="30" viewBox="0 0 33 30" fill="none" xmlns="http://www.w3.org/2000/svg">
<g id="telegramm_hov">
<rect id="Rectangle Copy" opacity="0.9" width="33" height="30" rx="2" fill="url(#paint0_linear)"/>
<path id="path13" d="M6.28697 14.4425C8.23072 13.3538 10.4005 12.4452 12.4278 11.532C15.9156 10.0361 19.4172 8.56623 22.9541 7.19777C23.6423 6.96462 24.8788 6.73663 25 7.77353C24.9336 9.24132 24.6605 10.7005 24.4732 12.1597C23.9977 15.3686 23.4482 18.5665 22.9123 21.7649C22.7276 22.8302 21.4151 23.3817 20.5753 22.6999C18.557 21.3138 16.5231 19.941 14.5306 18.5227C13.8779 17.8483 14.4832 16.8799 15.0661 16.3984C16.7284 14.7326 18.4913 13.3174 20.0668 11.5656C20.4918 10.5221 19.2361 11.4015 18.8219 11.671C16.5462 13.2656 14.3261 14.9575 11.9268 16.3589C10.7012 17.0449 9.27274 16.4587 8.04771 16.0759C6.94934 15.6135 5.33978 15.1476 6.28686 14.4426L6.28697 14.4425Z" fill="white"/>
</g>
<defs>
<linearGradient id="paint0_linear" x1="10.8808" y1="-29.8359" x2="-39.921" y2="25.2861" gradientUnits="userSpaceOnUse">
<stop stop-color="#42C3FB"/>
<stop offset="1" stop-color="#1E96C8"/>
</linearGradient>
</defs>
</svg>
