<?xml version="1.0" encoding="UTF-8"?>
<svg width="131px" height="42px" viewBox="0 0 131 42" version="1.1" xmlns="http://www.w3.org/2000/svg" xmlns:xlink="http://www.w3.org/1999/xlink">
    <!-- Generator: Sketch 49 (51002) - http://www.bohemiancoding.com/sketch -->
    <title>svg/header/Ostrog_logo</title>
    <desc>Created with Sketch.</desc>
    <defs></defs>
    <g id="Symbols" stroke="none" stroke-width="1" fill="none" fill-rule="evenodd">
        <g id="Шапка" transform="translate(-170.000000, -7.000000)" fill="#FFFFFF">
            <g id="Ostrog_logo">
                <g transform="translate(170.000000, 7.000000)">
                    <path d="M39.0602631,17.9200105 C39.0602631,15.6677215 40.5086737,14.2073511 43.2353691,14.2073511 L49.4067221,14.2073511 C52.1326371,14.2073511 53.5818281,15.6677215 53.5818281,17.9200105 L53.5818281,25.0512105 C53.5818281,27.3034995 52.1326371,28.7638699 49.4067221,28.7638699 L43.2353691,28.7638699 C40.5086737,28.7638699 39.0602631,27.3034995 39.0602631,25.0512105 L39.0602631,17.9200105 Z M42.6368072,25.0512105 C42.6262379,25.5132471 42.8037254,25.9595229 43.1280197,26.2863189 C43.4523141,26.6131149 43.8951736,26.7919716 44.3536732,26.7813208 L48.2837356,26.7813208 C48.7421698,26.7917452 49.1848977,26.6128158 49.5091421,26.28607 C49.8333866,25.9593243 50.0109463,25.5131812 50.0006017,25.0512105 L50.0006017,17.9200105 C50.0109463,17.4580398 49.8333866,17.0118967 49.5091421,16.685151 C49.1848977,16.3584052 48.7421698,16.1794758 48.2837356,16.1899002 L44.359136,16.1899002 C43.9006363,16.1792494 43.4577768,16.3581061 43.1334825,16.6849021 C42.8091882,17.0116981 42.6317007,17.4579739 42.6422699,17.9200105 L42.6422699,25.0512105 L42.6368072,25.0512105 Z M100.151819,17.9200105 C100.151819,15.6677215 101.60101,14.2073511 104.327706,14.2073511 L110.499059,14.2073511 C113.224974,14.2073511 114.674165,15.6677215 114.674165,17.9200105 L114.674165,25.0512105 C114.674165,27.3034995 113.224974,28.7638699 110.499059,28.7638699 L104.327706,28.7638699 C101.60101,28.7638699 100.151819,27.3034995 100.151819,25.0512105 L100.151819,17.9200105 Z M103.729144,25.0512105 C103.718575,25.5132471 103.896062,25.9595229 104.220356,26.2863189 C104.544651,26.6131149 104.98751,26.7919716 105.44601,26.7813208 L109.375292,26.7813208 C109.833792,26.7919716 110.276651,26.6131149 110.600945,26.2863189 C110.92524,25.9595229 111.102727,25.5132471 111.092158,25.0512105 L111.092158,17.9200105 C111.102727,17.4579739 110.92524,17.0116981 110.600945,16.6849021 C110.276651,16.3581061 109.833792,16.1792494 109.375292,16.1899002 L105.44601,16.1899002 C104.98751,16.1792494 104.544651,16.3581061 104.220356,16.6849021 C103.896062,17.0116981 103.718575,17.4579739 103.729144,17.9200105 L103.729144,25.0512105 Z M58.2134645,21.9889153 C56.2484333,21.5170671 55.020874,20.258805 55.020874,18.152789 L55.020874,18.1677308 C55.020874,15.9154418 56.4700651,14.4550714 59.1959801,14.4550714 L67.1934542,14.4550714 L67.1934542,15.5662741 L66.4567626,16.4313292 L60.3166254,16.4313292 C59.8581257,16.4206784 59.4152662,16.5995351 59.0909719,16.9263311 C58.7666776,17.2531271 58.5891901,17.6994029 58.5997593,18.1614395 L58.5997593,18.1535754 C58.6170521,19.0114375 59.2350357,19.7367165 60.0739229,19.8836857 L65.6147179,20.9972476 C67.5797491,21.4690958 68.8073083,22.7273578 68.8073083,24.8333739 L68.8073083,24.8019174 C68.8073083,27.0542064 67.3581173,28.5145767 64.6322023,28.5145767 L55.9019385,28.5145767 L55.9019385,26.5367461 L63.5162393,26.5367461 C63.9746735,26.5471705 64.4174014,26.3682411 64.7416458,26.0414953 C65.0658903,25.7147496 65.24345,25.2686065 65.2331054,24.8066358 L65.2331054,24.8380924 C65.2158126,23.9802303 64.597829,23.2549513 63.7589418,23.1079821 L58.2134645,21.9889153 Z M68.6707394,14.4550714 L82.5617464,14.4550714 L82.5617464,15.5662741 L81.8250548,16.4313292 L77.4041248,16.4313292 L77.4041248,28.5161496 L73.8268003,28.5161496 L73.8268003,16.4352613 L68.6691786,16.4352613 L68.6691786,14.4550714 L68.6707394,14.4550714 Z M84.3059262,28.5161496 L84.3059262,14.4550714 L94.1615177,14.4550714 C96.8874327,14.4550714 98.3366237,15.9154418 98.3366237,18.1677308 L98.3366237,19.8860449 C98.3457474,21.0859206 97.6809855,22.1878896 96.6197577,22.7320763 C96.0855956,23.033134 95.5053464,23.2423062 94.9028916,23.350984 L98.3311609,27.2830528 L98.3311609,28.5208681 L95.5006732,28.5208681 L91.3255671,23.6026364 L87.8871527,23.6026364 L87.8871527,28.5208681 L84.3106086,28.5208681 L84.3059262,28.5161496 Z M87.8824703,21.617728 L93.040092,21.617728 C93.4985916,21.6283788 93.9414511,21.4495221 94.2657454,21.1227261 C94.5900398,20.7959301 94.7675273,20.3496543 94.756958,19.8876177 L94.756958,18.1677308 C94.7675273,17.7056942 94.5900398,17.2594184 94.2657454,16.9326224 C93.9414511,16.6058264 93.4985916,16.4269698 93.040092,16.4376205 L87.8824703,16.4376205 L87.8824703,21.6216601 L87.8824703,21.617728 Z M123.718927,22.6078229 L123.718927,20.6284195 L130.98049,20.6284195 L130.98049,28.5161496 L120.882977,28.5161496 C118.157062,28.5161496 116.707871,27.0557792 116.707871,24.8034902 L116.707871,18.1677308 C116.707871,15.9154418 118.157062,14.4550714 120.882977,14.4550714 L131,14.4550714 L131,15.5662741 L130.262528,16.4313292 L122.003622,16.4313292 C121.545122,16.4206784 121.102263,16.5995351 120.777969,16.9263311 C120.453674,17.2531271 120.276187,17.6994029 120.286756,18.1614395 L120.286756,24.7979853 C120.276187,25.2600219 120.453674,25.7062977 120.777969,26.0330937 C121.102263,26.3598897 121.545122,26.5387463 122.003622,26.5280956 L127.407068,26.5280956 L127.407068,22.5960267 L123.722829,22.5960267 L123.718927,22.6078229 Z M0.00468236191,10.154961 L0.00468236191,29.3434569 L4.51847925,28.2424776 L7.06958609,22.6070365 L9.80096388,22.3357238 L11.2681039,22.1910236 L13.2971274,21.9889153 L14.0837642,21.9102739 L23.0980913,21.024772 L23.0980913,20.3327279 L6.38830244,20.3327279 L6.38830244,17.8633887 L8.06380761,17.7155429 L8.70685198,17.6589211 L8.70685198,18.6159867 L10.5930634,18.6159867 L10.5930634,17.491415 L13.1683625,17.2649278 L13.5819711,17.2287528 L13.5819711,18.6159867 L15.468963,18.6159867 L15.468963,17.0604602 L18.9276676,16.7561181 L18.9276676,18.6144138 L20.8138791,18.6144138 L20.8138791,16.588612 L21.4982843,16.5280581 L23.7996652,16.3259498 L23.7996652,18.6144138 L25.6858767,18.6144138 L25.6858767,15.6936731 L5.23956298,15.6936731 L5.23956298,14.4747318 L14.7525616,9.21362368 L17.241237,7.83661318 L28.9276319,14.3009343 L28.9276319,15.6928867 L28.0887087,15.6928867 L28.0887087,20.3980003 L26.534945,20.3980003 L27.4526879,22.6550078 L32.7421961,21.2897935 L32.7421961,10.259554 L17.2365546,0 L0.00468236191,10.154961 Z M17.2365546,7.12254948 L14.5231259,6.14739641 L17.2365546,4.89699852 L17.2365546,7.12333589 L17.2365546,7.12254948 Z M32.7390745,23.6899283 L32.7390745,31.845039 L30.5625566,33.1284663 L30.5625566,25.3012901 L28.2666385,27.8964555 L28.2666385,34.4771659 L25.5352607,36.0861685 L25.5352607,26.4187841 L23.2370014,29.0139495 L23.2370014,37.4450915 L20.5056236,39.0517348 L20.5056236,27.5402101 L18.2073643,30.1353755 L18.2073643,40.4075121 L15.5033003,42 L15.4767669,41.9834853 L15.4767669,28.6584905 L13.1808488,31.2536559 L13.1808488,40.4625611 L10.449471,38.6538094 L10.449471,29.7791301 L8.1512117,32.3742955 L8.1512117,37.1352444 L5.41983391,35.3264928 L5.41983391,31.1372667 L3.12157461,33.7324321 L3.12157461,33.8110735 L0,31.7420188 L32.7390745,23.6899283 Z" id="svg/header/Ostrog_logo"></path>
                </g>
            </g>
        </g>
    </g>
</svg>