<?xml version="1.0" encoding="UTF-8"?>
<svg width="92px" height="15px" viewBox="0 0 92 15" version="1.1" xmlns="http://www.w3.org/2000/svg" xmlns:xlink="http://www.w3.org/1999/xlink">
    <!-- Generator: sketchtool 51.2 (57519) - http://www.bohemiancoding.com/sketch -->
    <title>83EC1AB6-3662-4128-B941-EFA0D30D2866</title>
    <desc>Created with sketchtool.</desc>
    <defs></defs>
    <g id="320" stroke="none" stroke-width="1" fill="none" fill-rule="evenodd">
        <g id="png_2.0/ostrog_2.0_text_page_320_01" transform="translate(-114.000000, -18.000000)" fill="#FFFFFF">
            <g id="Шапка">
                <g id="Ostrog_logo" transform="translate(114.000000, 18.000000)">
                    <path d="M0,3.71265939 C0,1.46037036 1.44841062,0 4.17510604,0 L10.346459,0 C13.0723741,0 14.5215651,1.46037036 14.5215651,3.71265939 L14.5215651,10.8438594 C14.5215651,13.0961484 13.0723741,14.5565188 10.346459,14.5565188 L4.17510604,14.5565188 C1.44841062,14.5565188 0,13.0961484 0,10.8438594 L0,3.71265939 Z M4.06775668,12.0789678 C4.39205102,12.4057638 4.83491049,12.5846205 5.29341014,12.5739697 L9.22347257,12.5739697 C9.68190678,12.5843941 10.1246346,12.4054647 10.448879,12.0787189 C10.7731235,11.7519732 10.9506832,11.3058301 10.9403386,10.8438594 L10.9403386,3.71265939 C10.9506832,3.25068873 10.7731235,2.80454563 10.448879,2.47779989 C10.1246346,2.15105415 9.68190678,1.9721247 9.22347257,1.9825491 L5.2988729,1.9825491 C4.84037325,1.97189832 4.39751377,2.15075497 4.07321943,2.47755099 C3.74892509,2.804347 3.57143762,3.25062278 3.58200686,3.71265939 L3.58200686,10.8438594 C3.56597486,11.305896 3.74346233,11.7521718 4.06775668,12.0789678 Z M61.0915563,3.71265939 C61.0915563,1.46037036 62.5407473,0 65.2674427,0 L71.4387957,0 C74.1647107,0 75.6139017,1.46037036 75.6139017,3.71265939 L75.6139017,10.8438594 C75.6139017,13.0961484 74.1647107,14.5565188 71.4387957,14.5565188 L65.2674427,14.5565188 C62.5407473,14.5565188 61.0915563,13.0961484 61.0915563,10.8438594 L61.0915563,3.71265939 Z M65.1600933,12.0789678 C65.4843877,12.4057638 65.9272471,12.5846205 66.3857468,12.5739697 L70.3150288,12.5739697 C70.7735285,12.5846205 71.216388,12.4057638 71.5406823,12.0789678 C71.8649766,11.7521718 72.0424641,11.305896 72.0318949,10.8438594 L72.0318949,3.71265939 C72.0424641,3.25062278 71.8649766,2.804347 71.5406823,2.47755099 C71.216388,2.15075497 70.7735285,1.97189832 70.3150288,1.9825491 L66.3857468,1.9825491 C65.9272471,1.97189832 65.4843877,2.15075497 65.1600933,2.47755099 C64.835799,2.804347 64.6583115,3.25062278 64.6688808,3.71265939 L64.6688808,10.8438594 C64.6583115,11.305896 64.835799,11.7521718 65.1600933,12.0789678 Z M19.1532014,7.78156421 C17.1881702,7.30971595 15.960611,6.05145393 15.960611,3.94543786 C15.960611,1.7080907 17.409802,0.247720336 20.135717,0.247720336 L28.1331912,0.247720336 L28.1331912,1.35892299 L27.3964995,2.22397813 L21.2563623,2.22397813 C20.7978626,2.21332735 20.3550032,2.392184 20.0307088,2.71898001 C19.7064145,3.04577602 19.528927,3.49205181 19.5394963,3.95408842 C19.556789,4.8040864 20.1747726,5.52936536 21.0136599,5.67633456 L26.5544548,6.78989646 C28.519486,7.26174472 29.7470452,8.52000674 29.7470452,10.6260228 C29.7470452,12.8468553 28.2978542,14.3072256 25.5719392,14.3072256 L16.8416754,14.3072256 L16.8416754,12.329395 L24.4559763,12.329395 C24.9144105,12.3398194 25.3571383,12.16089 25.6813827,11.8341442 C26.0056272,11.5073985 26.1831869,11.0612554 26.1728423,10.5992847 C26.1555496,9.77287917 25.5375659,9.04760021 24.6986787,8.900631 L19.1532014,7.78156421 Z M43.5014833,0.247720336 L43.5014833,1.35892299 L42.7647917,2.22397813 L38.3438617,2.22397813 L38.3438617,14.3087985 L34.7665372,14.3087985 L34.7665372,2.2279102 L29.6089156,2.2279102 L29.6089156,0.247720336 L43.5014833,0.247720336 Z M45.2456632,0.247720336 L55.1012546,0.247720336 C57.8271696,0.247720336 59.2763606,1.7080907 59.2763606,3.96037973 L59.2763606,5.6786938 C59.2854843,6.87856951 58.6207224,7.98053855 57.5594946,8.52472522 C57.0253325,8.82578294 56.4450834,9.03495514 55.8426286,9.14363286 L59.2708979,13.0757017 L59.2708979,14.313517 L56.4404101,14.313517 L52.2653041,9.39528526 L48.8268896,9.39528526 L48.8268896,14.313517 L45.2503455,14.313517 L45.2456632,0.247720336 Z M53.9798289,7.41037692 C54.4383286,7.4210277 54.881188,7.24217105 55.2054824,6.91537504 C55.5297767,6.58857902 55.7072642,6.14230324 55.6966949,5.68026663 L55.6966949,3.96037973 C55.7072642,3.49834312 55.5297767,3.05206734 55.2054824,2.72527132 C54.881188,2.39847531 54.4383286,2.21961866 53.9798289,2.23026944 L48.8222073,2.23026944 L48.8222073,7.41430899 L53.9798289,7.41037692 Z M84.6586642,6.4210684 L91.9202271,6.4210684 L91.9202271,14.3087985 L81.8227136,14.3087985 C79.0967986,14.3087985 77.6476076,12.8484281 77.6476076,10.5961391 L77.6476076,3.96037973 C77.6476076,1.7080907 79.0967986,0.247720336 81.8227136,0.247720336 L91.9397369,0.247720336 L91.9397369,1.35892299 L91.2022649,2.22397813 L82.9433589,2.22397813 C82.4848593,2.21332735 82.0419998,2.392184 81.7177054,2.71898001 C81.3934111,3.04577602 81.2159236,3.49205181 81.2264929,3.95408842 L81.2264929,10.5906342 C81.2159236,11.0526708 81.3934111,11.4989466 81.7177054,11.8257426 C82.0419998,12.1525386 82.4848593,12.3313953 82.9433589,12.3207445 L88.3468046,12.3207445 L88.3468046,8.38867564 L84.6625661,8.38867564 L84.6586642,6.4210684 Z" id="svg_2.0/text_page_320/Ostrog_logo"></path>
                </g>
            </g>
        </g>
    </g>
</svg>