<?xml version="1.0" encoding="utf-8"?>
<!-- Generator: Adobe Illustrator 22.0.0, SVG Export Plug-In . SVG Version: 6.00 Build 0)  -->
<svg version="1.1" xmlns="http://www.w3.org/2000/svg" xmlns:xlink="http://www.w3.org/1999/xlink" x="0px" y="0px"
	 viewBox="0 0 167.1 33.8" style="enable-background:new 0 0 167.1 33.8;" xml:space="preserve">
<style type="text/css">
	.st0{fill:#FFFFFF;}
</style>
<g id="Logo_CBR">
	<path id="C-c-combo" class="st0" d="M48.3,8c-0.2,0.1-0.5,0.2-0.8,0.3c-0.3,0.1-0.7,0.1-1.1,0.1c-0.4,0-0.8-0.1-1.2-0.2
		C45,8,44.7,7.8,44.5,7.5c-0.2-0.3-0.4-0.7-0.5-1.1c-0.1-0.4-0.2-0.9-0.2-1.4c-0.1-0.9,0.2-1.8,0.7-2.6C45,2,45.7,1.7,46.4,1.7
		c0.4,0,0.7,0,1.1,0.1c0.3,0,0.5,0.1,0.8,0.2l0.4-1.6c-0.3-0.1-0.6-0.2-1-0.3C47.2,0,46.7,0,46.2,0c-0.5,0-1.1,0.1-1.6,0.3
		c-0.5,0.2-1,0.5-1.4,0.8c-0.5,0.4-0.8,1-1,1.6c-0.3,0.8-0.4,1.6-0.4,2.4c0,0.8,0.1,1.6,0.4,2.3c0.2,0.6,0.5,1.1,1,1.6
		c0.4,0.4,0.9,0.7,1.4,0.9c0.5,0.2,1.1,0.3,1.7,0.3c0.5,0,0.9,0,1.4-0.1c0.4-0.1,0.8-0.2,1.1-0.5L48.3,8z M49.2,6.8h3.5V5.2h-3.5
		V6.8z M60.9,8c-0.2,0.1-0.5,0.2-0.8,0.3c-0.3,0.1-0.7,0.1-1.1,0.1c-0.4,0-0.8-0.1-1.2-0.2C57.5,8,57.2,7.8,57,7.5
		c-0.2-0.3-0.4-0.7-0.5-1.1c-0.1-0.4-0.2-0.9-0.2-1.4c-0.1-0.9,0.2-1.8,0.7-2.6c0.5-0.5,1.1-0.8,1.9-0.8c0.4,0,0.7,0,1.1,0.1
		c0.3,0,0.5,0.1,0.8,0.2l0.4-1.6c-0.3-0.1-0.6-0.2-1-0.3C59.7,0,59.2,0,58.7,0c-0.5,0-1.1,0.1-1.6,0.3c-0.5,0.2-1,0.5-1.4,0.8
		c-0.5,0.4-0.8,1-1,1.6c-0.3,0.8-0.4,1.6-0.4,2.4c0,0.8,0.1,1.6,0.4,2.3c0.2,0.6,0.5,1.1,1,1.6C56,9.4,56.5,9.7,57,9.9
		c0.5,0.2,1.1,0.3,1.7,0.3c0.5,0,0.9,0,1.4-0.1c0.4-0.1,0.8-0.2,1.1-0.5L60.9,8z M61.7,6.8h3.5V5.2h-3.5V6.8z M73.4,8
		c-0.2,0.1-0.5,0.2-0.8,0.3c-0.3,0.1-0.7,0.1-1.1,0.1c-0.4,0-0.8-0.1-1.2-0.2c-0.3-0.2-0.6-0.4-0.8-0.7c-0.2-0.3-0.4-0.7-0.5-1.1
		c-0.1-0.4-0.2-0.9-0.2-1.4c-0.1-0.9,0.2-1.8,0.7-2.6C70,2,70.7,1.7,71.4,1.7c0.4,0,0.7,0,1.1,0.1c0.3,0,0.5,0.1,0.8,0.2l0.4-1.6
		c-0.3-0.1-0.6-0.2-1-0.3C72.2,0,71.7,0,71.3,0c-0.5,0-1.1,0.1-1.6,0.3c-0.5,0.2-1,0.5-1.4,0.8c-0.5,0.4-0.8,1-1,1.6
		c-0.3,0.8-0.4,1.6-0.4,2.4c0,0.8,0.1,1.6,0.4,2.3c0.2,0.6,0.5,1.1,1,1.6c0.4,0.4,0.9,0.7,1.4,0.9c0.5,0.2,1.1,0.3,1.7,0.3
		c0.5,0,0.9,0,1.4-0.1c0.4-0.1,0.8-0.2,1.1-0.5L73.4,8z M74.8,7.2c0.1,0.6,0.4,1.1,0.8,1.6c0.3,0.4,0.8,0.8,1.3,1
		c0.6,0.3,1.2,0.4,1.8,0.4c1.2,0.1,2.3-0.4,3.1-1.3c0.8-1.1,1.2-2.4,1.1-3.7c0-0.7-0.1-1.4-0.3-2.1c-0.1-0.6-0.4-1.1-0.8-1.6
		c-0.3-0.4-0.8-0.8-1.3-1C79.9,0.1,79.3,0,78.7,0c-1.2-0.1-2.3,0.4-3.1,1.3c-0.8,1.1-1.2,2.4-1.1,3.7C74.5,5.8,74.6,6.5,74.8,7.2
		L74.8,7.2z M77.1,2.5c0.6-0.8,1.7-1.1,2.6-0.6c0.3,0.2,0.5,0.4,0.7,0.7c0.2,0.3,0.3,0.7,0.4,1.1c0.1,0.4,0.1,0.9,0.1,1.3
		c0.1,0.9-0.1,1.8-0.6,2.6c-0.4,0.5-0.9,0.8-1.6,0.8c-0.3,0-0.7-0.1-1-0.2C77.4,8,77.2,7.8,77,7.5c-0.2-0.3-0.3-0.7-0.4-1.1
		c-0.1-0.4-0.1-0.9-0.1-1.4C76.5,4.2,76.7,3.3,77.1,2.5z M92.1,10H94V0.2h-1.7l-2.5,4.4l-0.4,1.1h-0.1l-0.5-1.1l-2.6-4.5h-1.7V10
		h1.8V4.9L86,3h0.1l0.6,1.5l2.2,3.6h0.6l2.1-3.6L92.2,3h0.1l-0.2,1.9L92.1,10L92.1,10z M102.2,1.3c-0.2-0.3-0.5-0.6-0.8-0.7
		c-0.4-0.2-0.8-0.3-1.2-0.4c-0.4-0.1-0.9-0.1-1.3-0.1c-0.3,0-0.5,0-0.8,0s-0.5,0-0.8,0c-0.3,0-0.5,0-0.7,0.1S96.1,0.3,96,0.3v9.6
		c0.3,0.1,0.5,0.1,0.8,0.1c0.3,0,0.6,0,0.9,0.1c0.3,0,0.5,0,0.8,0H99c0.5,0,0.9-0.1,1.4-0.2c0.4-0.1,0.8-0.3,1.2-0.5
		c0.4-0.2,0.6-0.5,0.9-0.9c0.2-0.4,0.3-0.8,0.3-1.3c0-0.3,0-0.7-0.2-1c-0.1-0.3-0.2-0.5-0.4-0.7c-0.2-0.2-0.4-0.4-0.6-0.5
		c-0.3-0.1-0.5-0.2-0.8-0.2V4.7c0.3-0.1,0.6-0.2,0.8-0.3c0.2-0.1,0.4-0.3,0.5-0.5c0.1-0.2,0.2-0.4,0.3-0.7c0.1-0.2,0.1-0.5,0.1-0.7
		C102.5,2.1,102.4,1.6,102.2,1.3L102.2,1.3z M98.7,8.5l-0.4,0c-0.1,0-0.2,0-0.3,0c-0.1,0-0.2,0-0.2,0V5.8h1c0.2,0,0.5,0,0.7,0
		c0.2,0,0.4,0.1,0.7,0.2c0.2,0.1,0.4,0.2,0.5,0.4c0.1,0.2,0.2,0.5,0.2,0.7c0,0.2,0,0.4-0.2,0.6c-0.1,0.2-0.2,0.3-0.4,0.4
		c-0.2,0.1-0.4,0.2-0.6,0.3c-0.2,0.1-0.4,0.1-0.7,0.1C99,8.5,98.8,8.5,98.7,8.5L98.7,8.5z M97.8,4.3V1.7c0.2,0,0.3,0,0.5,0
		c0.2,0,0.4,0,0.7,0c0.2,0,0.4,0,0.6,0.1c0.2,0,0.4,0.1,0.5,0.2c0.2,0.1,0.3,0.2,0.4,0.4c0.1,0.2,0.1,0.4,0.1,0.6
		c0,0.3-0.1,0.7-0.4,0.9c-0.3,0.2-0.6,0.4-0.9,0.5c-0.1,0-0.3,0-0.4,0c-0.2,0-0.3,0-0.5,0L97.8,4.3L97.8,4.3z M104.5,7.2
		c0.1,0.6,0.4,1.1,0.8,1.6c0.3,0.4,0.8,0.8,1.3,1c0.6,0.3,1.2,0.4,1.8,0.4c1.2,0.1,2.3-0.4,3.1-1.3c0.8-1.1,1.2-2.4,1.1-3.7
		c0-0.7-0.1-1.4-0.2-2.1c-0.1-0.6-0.4-1.1-0.8-1.6c-0.3-0.4-0.8-0.8-1.3-1C109.6,0.1,109,0,108.4,0c-1.2-0.1-2.3,0.4-3.1,1.3
		c-0.8,1.1-1.2,2.4-1.1,3.7C104.2,5.8,104.3,6.5,104.5,7.2z M106.8,2.5c0.6-0.8,1.7-1.1,2.6-0.6c0.3,0.2,0.5,0.4,0.7,0.7
		c0.2,0.3,0.3,0.7,0.4,1.1c0.1,0.4,0.1,0.9,0.1,1.3c0.1,0.9-0.1,1.8-0.6,2.6c-0.4,0.5-0.9,0.8-1.6,0.8c-0.3,0-0.7-0.1-1-0.2
		c-0.3-0.2-0.5-0.4-0.7-0.7c-0.2-0.3-0.3-0.7-0.4-1.1c-0.1-0.4-0.1-0.9-0.1-1.4C106.2,4.2,106.4,3.3,106.8,2.5L106.8,2.5z"/>
	<path id="Breaker_" class="st0" d="M54.9,15.9c-0.4-0.6-1-1.1-1.6-1.5c-0.7-0.4-1.5-0.6-2.3-0.7c-0.9-0.1-1.8-0.2-2.7-0.2
		c-0.5,0-1.1,0-1.6,0c-0.6,0-1.1,0-1.6,0.1c-0.5,0-1,0.1-1.5,0.1c-0.5,0.1-0.9,0.1-1.2,0.2v19.5c0.5,0.1,1.1,0.2,1.6,0.3
		c0.6,0.1,1.2,0.1,1.7,0.1s1.1,0,1.6,0h1.2c1,0,1.9-0.1,2.8-0.3c0.9-0.2,1.7-0.6,2.5-1c0.7-0.5,1.3-1.1,1.7-1.8
		c0.4-0.8,0.7-1.7,0.6-2.6c0-0.7-0.1-1.4-0.3-2c-0.2-0.5-0.5-1-0.9-1.4c-0.4-0.4-0.8-0.7-1.3-0.9c-0.5-0.2-1.1-0.4-1.6-0.5v-0.2
		c0.6-0.1,1.1-0.4,1.6-0.7c0.4-0.3,0.8-0.7,1.1-1.1c0.3-0.4,0.5-0.9,0.6-1.3c0.1-0.5,0.2-1,0.2-1.5C55.6,17.5,55.4,16.6,54.9,15.9z
		 M47.8,30.5l-0.7,0c-0.2,0-0.5,0-0.7,0c-0.2,0-0.3,0-0.4-0.1V25H48c0.5,0,1,0,1.5,0.1c0.5,0,0.9,0.2,1.3,0.4c0.4,0.2,0.7,0.5,1,0.8
		c0.3,0.4,0.4,0.9,0.4,1.5c0,0.4-0.1,0.9-0.3,1.3c-0.2,0.4-0.5,0.7-0.8,0.9c-0.4,0.2-0.8,0.4-1.2,0.5c-0.4,0.1-0.9,0.2-1.4,0.2
		C48.3,30.5,48.1,30.5,47.8,30.5z M46,22v-5.2c0.3,0,0.6-0.1,1-0.1c0.4,0,0.9,0,1.4,0c0.4,0,0.8,0,1.2,0.1c0.4,0.1,0.7,0.2,1.1,0.4
		c0.3,0.2,0.6,0.4,0.7,0.8c0.2,0.4,0.3,0.8,0.3,1.2c0,0.7-0.3,1.3-0.8,1.8c-0.5,0.5-1.2,0.8-1.8,1c-0.3,0-0.6,0.1-0.9,0.1
		c-0.3,0-0.7,0-0.9,0L46,22L46,22z M59.6,33.5h3.9v-8.1l2,0.4l4.5,7.7h4.5l-4.5-7.5l-1.4-0.9c1.2-0.4,2.3-1.1,3-2.1
		c0.8-1.2,1.2-2.5,1.1-3.9c0-0.9-0.2-1.9-0.6-2.7c-0.4-0.7-1-1.3-1.7-1.7c-0.7-0.4-1.6-0.7-2.4-0.9c-0.9-0.2-1.8-0.3-2.7-0.3
		c-0.4,0-0.8,0-1.3,0c-0.5,0-1,0-1.5,0.1c-0.5,0-1,0.1-1.5,0.2s-1,0.1-1.4,0.2L59.6,33.5L59.6,33.5z M67.9,17.6
		c0.5,0.5,0.8,1.2,0.8,2c0.1,0.9-0.3,1.8-1,2.4c-0.7,0.5-1.7,0.8-2.6,0.7h-1.6V17c0.3-0.1,0.6-0.1,0.9-0.1c0.4,0,0.8,0,1.2,0
		C66.4,16.8,67.2,17.1,67.9,17.6z M77.3,33.5h11.8V30h-8v-4.8h7.1v-3.4h-7.1v-4.6H89v-3.4H77.3V33.5z M104,33.5h4.1L101,13.6h-2.9
		L91,33.5h3.9l1.5-4.4h6.1L104,33.5z M98.8,21.6l0.6-3.1h0.1l0.6,3.1l1.5,4.4h-4.2L98.8,21.6z M121.2,33.5h4.8l-6.6-9.3l-1.6-1.1
		l1.5-1.1l5.7-8.3h-4.4l-5.4,8.3l-0.9,0.4v-8.7h-3.9v19.7h3.9v-8.4h1L121.2,33.5z M128.7,33.5h11.8V30h-8v-4.8h7.1v-3.4h-7.1v-4.6
		h7.8v-3.4h-11.7C128.7,13.7,128.7,33.5,128.7,33.5z M144.1,33.5h3.9v-8.1l2,0.4l4.5,7.7h4.5l-4.5-7.5l-1.4-0.9
		c1.2-0.4,2.3-1.1,3-2.1c0.8-1.2,1.2-2.5,1.1-3.9c0-0.9-0.2-1.9-0.6-2.7c-0.4-0.7-1-1.3-1.7-1.7c-0.7-0.4-1.6-0.7-2.4-0.9
		c-0.9-0.2-1.8-0.3-2.7-0.3c-0.4,0-0.8,0-1.3,0s-1,0-1.5,0.1s-1,0.1-1.5,0.2s-1,0.1-1.4,0.2L144.1,33.5L144.1,33.5z M152.3,17.6
		c0.5,0.5,0.8,1.2,0.8,2c0.1,0.9-0.3,1.8-1,2.4c-0.8,0.5-1.7,0.8-2.6,0.7h-1.6V17c0.3-0.1,0.6-0.1,0.9-0.1c0.4,0,0.8,0,1.2,0
		C150.8,16.8,151.7,17.1,152.3,17.6z M162.9,23l0.7,4.6h2.3l0.7-4.6v-9.3h-3.8V23L162.9,23z M163.1,33.2c0.4,0.4,1,0.6,1.6,0.6
		c0.6,0,1.2-0.2,1.7-0.6c0.4-0.4,0.6-1,0.6-1.6c0-0.6-0.2-1.2-0.6-1.6c-0.5-0.4-1.1-0.6-1.7-0.6c-0.6,0-1.2,0.2-1.6,0.6
		c-0.4,0.4-0.6,1-0.6,1.6C162.5,32.2,162.7,32.8,163.1,33.2L163.1,33.2z"/>
</g>
<g id="Layer_2">
	<path class="st0" d="M33.3,7.7c-0.7-1.9-1.8-3.6-3.2-5.1c-1.5-1.4-3.2-2.1-5.1-2.1c-1.4,0-2.7,0.4-4.1,1.1
		c-1.3,0.8-2.5,1.1-3.5,1.1c-1,0-2.1-0.4-3.5-1.1c-1.3-0.7-2.7-1.1-4.1-1.1c-1.9,0-3.6,0.7-5.1,2.1C3.3,4.1,2.2,5.7,1.5,7.7
		c-0.7,1.9-1,3.9-1,5.8c0,5.8,0.8,8.9,2.4,9.4C3.1,22.9,3.3,23,3.5,23c0.7,0,1.5-0.3,2.3-0.8c1.1-0.7,2.4-1.7,3.9-3.1
		c0.7-0.7,3.9-4.5,7.7-4.5c3.8,0,6.7,3.5,7.7,4.5c1.5,1.4,2.8,2.5,3.9,3.1c0.8,0.5,1.6,0.8,2.3,0.8c0.2,0,0.4,0,0.7-0.1
		c1.6-0.4,2.4-3.6,2.4-9.4C34.3,11.6,34,9.6,33.3,7.7z M13,10.6h-2.4V13H7.9v-2.4H5.5V7.9h2.4V5.5h2.7v2.4H13V10.6z M23.9,5.2
		c0.3-0.3,0.6-0.4,1-0.4c0.4,0,0.7,0.1,1,0.4c0.3,0.3,0.4,0.6,0.4,1c0,0.4-0.1,0.7-0.4,1c-0.3,0.3-0.6,0.4-1,0.4
		c-0.4,0-0.7-0.1-1-0.4c-0.3-0.3-0.4-0.6-0.4-1C23.5,5.8,23.6,5.5,23.9,5.2z M22.1,10.4c-0.4,0-0.7-0.1-1-0.4
		c-0.3-0.3-0.4-0.6-0.4-1c0-0.4,0.1-0.7,0.4-1c0.3-0.3,0.6-0.4,1-0.4c0.4,0,0.7,0.1,1,0.4c0.3,0.3,0.4,0.6,0.4,1
		c0,0.4-0.1,0.7-0.4,1C22.8,10.3,22.5,10.4,22.1,10.4z M25.9,12.8c-0.3,0.3-0.6,0.4-1,0.4c-0.4,0-0.7-0.1-1-0.4
		c-0.3-0.3-0.4-0.6-0.4-1c0-0.4,0.1-0.7,0.4-1c0.3-0.3,0.6-0.4,1-0.4c0.4,0,0.7,0.1,1,0.4c0.3,0.3,0.4,0.6,0.4,1
		C26.3,12.2,26.2,12.5,25.9,12.8z M28.7,10c-0.3,0.3-0.6,0.4-1,0.4c-0.4,0-0.7-0.1-1-0.4c-0.3-0.3-0.4-0.6-0.4-1
		c0-0.4,0.1-0.7,0.4-1c0.3-0.3,0.6-0.4,1-0.4c0.4,0,0.7,0.1,1,0.4c0.3,0.3,0.4,0.6,0.4,1C29.1,9.4,29,9.7,28.7,10z M14,17.1
		c0.9-0.5,1.8-1,2.9-1.1v17.6c-1-0.1-2-0.6-2.9-1.1V17.1z M24.2,20c0.2,0.2,0.4,0.4,0.6,0.6v8.3c-0.2,0.2-0.4,0.4-0.6,0.6l0,0l0,0
		c-0.1,0.1-0.3,0.3-0.5,0.5c-0.4,0.4-1,1-1.7,1.6V17.9c0.7,0.6,1.3,1.2,1.7,1.6C23.9,19.7,24.1,19.9,24.2,20L24.2,20L24.2,20z
		 M12.8,18v13.7C12,31,11.4,30.3,11,29.9c-0.2-0.2-0.3-0.3-0.4-0.4c-0.2-0.2-0.4-0.4-0.6-0.6v-8.3c0.2-0.2,0.4-0.4,0.6-0.6
		c0.1-0.1,0.2-0.2,0.4-0.4C11.4,19.3,12,18.6,12.8,18z M17.9,16c1,0.1,2,0.5,2.9,1.1v15.4c-0.9,0.5-1.8,1-2.9,1.1V16z"/>
</g>
</svg>
