<svg width="22" height="12" viewBox="0 0 22 12" fill="none" xmlns="http://www.w3.org/2000/svg">
<g opacity="0.6">
<path fill-rule="evenodd" clip-rule="evenodd" d="M20.5 4.5C21.0523 4.5 21.5 4.94772 21.5 5.5C21.5 6.05228 21.0523 6.5 20.5 6.5L13.5 6.5C12.9477 6.5 12.5 6.05228 12.5 5.5C12.5 4.94772 12.9477 4.5 13.5 4.5L20.5 4.5Z" fill="white"/>
</g>
<path fill-rule="evenodd" clip-rule="evenodd" d="M2.45302 8.86357H8.12767L8.97805 11.0386C9.01075 11.1258 9.07071 11.2157 9.15793 11.3084C9.24515 11.4011 9.39778 11.4474 9.61583 11.4474H10.2209C10.319 11.4474 10.4035 11.412 10.4744 11.3411C10.5453 11.2703 10.5807 11.1858 10.5807 11.0876C10.5807 11.0331 10.5589 10.9568 10.5153 10.8587L6.52503 0.539664C6.47052 0.419738 6.38875 0.299814 6.27973 0.179888C6.1707 0.0599621 6.00717 0 5.78912 0H4.80792C4.58987 0 4.42634 0.0599621 4.31731 0.179888C4.20829 0.299814 4.12652 0.419738 4.07201 0.539664L0.0654138 10.8587C0.0218044 10.9568 0 11.0331 0 11.0876C0 11.1858 0.0354321 11.2703 0.106297 11.3411C0.177163 11.412 0.261655 11.4474 0.359776 11.4474H0.964854C1.1829 11.4474 1.33553 11.4011 1.42275 11.3084C1.50997 11.2157 1.56993 11.1258 1.60264 11.0386L2.45302 8.86357ZM7.5553 7.39176H3.02539L5.29852 1.55358L7.5553 7.39176Z" fill="white"/>
</svg>
