<svg id="A_big" xmlns="http://www.w3.org/2000/svg" width="28" height="28" viewBox="0 0 28 28">
  <metadata><?xpacket begin="﻿" id="W5M0MpCehiHzreSzNTczkc9d"?>
<x:xmpmeta xmlns:x="adobe:ns:meta/" x:xmptk="Adobe XMP Core 5.6-c140 79.160451, 2017/05/06-01:08:21        ">
   <rdf:RDF xmlns:rdf="http://www.w3.org/1999/02/22-rdf-syntax-ns#">
      <rdf:Description rdf:about=""/>
   </rdf:RDF>
</x:xmpmeta>
                                                                                                    
                                                                                                    
                                                                                                    
                                                                                                    
                                                                                                    
                                                                                                    
                                                                                                    
                                                                                                    
                                                                                                    
                                                                                                    
                                                                                                    
                                                                                                    
                                                                                                    
                                                                                                    
                                                                                                    
                                                                                                    
                                                                                                    
                                                                                                    
                                                                                                    
                                                                                                    
                           
<?xpacket end="w"?></metadata>
<defs>
    <style>
      .cls-1 {
        fill: #fff;
        stroke: #e0e0e0;
        stroke-linejoin: round;
        stroke-width: 2px;
      }

      .cls-2 {
        fill: #0d3d8a;
      }

      .cls-2, .cls-3 {
        fill-rule: evenodd;
      }

      .cls-3 {
        fill: #303435;
      }
    </style>
  </defs>
  <circle class="cls-1" cx="14" cy="14" r="11"/>
  <path class="cls-2" d="M298.036,63.5l-0.708.707L296,62.879V72h-1V62.879l-1.328,1.328-0.708-.707,1.829-1.828h0l0.707-.707,0.707,0.707h0Z" transform="translate(-278 -53)"/>
  <path id="А" class="cls-3" d="M286.42,72.195h1.068a0.348,0.348,0,0,0,.348-0.228l0.552-1.452h3.552l0.552,1.452a0.348,0.348,0,0,0,.348.228h1.068a0.251,0.251,0,0,0,.174-0.072,0.235,0.235,0,0,0,.078-0.18l-0.024-.108-2.88-7.74a0.433,0.433,0,0,0-.432-0.3H289.5a0.433,0.433,0,0,0-.432.3l-2.88,7.74-0.024.108a0.246,0.246,0,0,0,.252.252h0Zm3.744-6.768,1.356,3.7h-2.712Z" transform="translate(-278 -53)"/>
</svg>
