<svg xmlns="http://www.w3.org/2000/svg" width="22.531" height="12.75" viewBox="0 0 22.531 12.75">
  <metadata><?xpacket begin="﻿" id="W5M0MpCehiHzreSzNTczkc9d"?>
<x:xmpmeta xmlns:x="adobe:ns:meta/" x:xmptk="Adobe XMP Core 5.6-c138 79.159824, 2016/09/14-01:09:01        ">
   <rdf:RDF xmlns:rdf="http://www.w3.org/1999/02/22-rdf-syntax-ns#">
      <rdf:Description rdf:about=""/>
   </rdf:RDF>
</x:xmpmeta>
                                                                                                    
                                                                                                    
                                                                                                    
                                                                                                    
                                                                                                    
                                                                                                    
                                                                                                    
                                                                                                    
                                                                                                    
                                                                                                    
                                                                                                    
                                                                                                    
                                                                                                    
                                                                                                    
                                                                                                    
                                                                                                    
                                                                                                    
                                                                                                    
                                                                                                    
                                                                                                    
                           
<?xpacket end="w"?></metadata>
<defs>
    <style>
      .cls-1 {
        fill: #fff;
        fill-rule: evenodd;
      }
    </style>
  </defs>
  <path class="cls-1" d="M44.392,3907.08a27.668,27.668,0,0,1,2.207,2.22,6.277,6.277,0,0,1,.791,1.13,0.824,0.824,0,0,1-.5,1.28H43.608a2.562,2.562,0,0,1-2.09-.85c-0.454-.47-0.875-0.96-1.312-1.44a3.088,3.088,0,0,0-.591-0.52,0.684,0.684,0,0,0-1.093.26,3.456,3.456,0,0,0-.346,1.53,0.875,0.875,0,0,1-1.045,1.02,8.525,8.525,0,0,1-4.7-1.01,10.4,10.4,0,0,1-3.16-2.96,39.815,39.815,0,0,1-4.159-7.42c-0.263-.58-0.071-0.9.574-0.91q1.606-.03,3.214,0a0.953,0.953,0,0,1,.892.67,19.822,19.822,0,0,0,2.178,4.03,3.451,3.451,0,0,0,.823.91,0.5,0.5,0,0,0,.85-0.25,2.818,2.818,0,0,0,.189-0.85,12.543,12.543,0,0,0-.053-2.96,1.245,1.245,0,0,0-1.053-1.14c-0.314-.06-0.267-0.17-0.115-0.35a1.177,1.177,0,0,1,1.007-.5h3.71a0.88,0.88,0,0,1,.794.96l0,4.12a1.212,1.212,0,0,0,.523,1.06,0.743,0.743,0,0,0,.741-0.37,12.617,12.617,0,0,0,2.088-3.21c0.251-.5.467-1.03,0.677-1.56a0.79,0.79,0,0,1,.839-0.57h3.57a1.655,1.655,0,0,1,.316.02,0.619,0.619,0,0,1,.581.95,8.907,8.907,0,0,1-1.419,2.46c-0.6.83-1.232,1.62-1.823,2.45a1.122,1.122,0,0,0,.175,1.8h0Z" transform="translate(-25 -3898.97)"/>
</svg>
