<svg width="33" height="30" viewBox="0 0 33 30" fill="none" xmlns="http://www.w3.org/2000/svg">
<g id="vk_hov">
<rect id="Rectangle" opacity="0.9" width="33" height="30" rx="2" fill="#4680C2"/>
<path id="Shape" fill-rule="evenodd" clip-rule="evenodd" d="M25.8163 9.0232H23.526C22.9472 9.0232 22.6807 9.34807 22.5246 9.69477C22.5246 9.69477 21.3459 12.6554 19.7 14.5745C19.1671 15.1301 18.9217 15.3144 18.6329 15.3144C18.4768 15.3144 18.2773 15.1301 18.2773 14.621V9.87904C18.2773 9.27845 18.0988 9 17.6092 9H14.0063C13.6506 9 13.4288 9.27845 13.4288 9.55554C13.4288 10.1343 14.2518 10.2722 14.3397 11.8924V15.4072C14.3397 16.1702 14.2072 16.3094 13.9171 16.3094C13.1388 16.3094 11.2487 13.3256 10.1147 9.92545C9.8916 9.25525 9.66979 9 9.09097 9H6.77832C6.11156 9 6 9.32486 6 9.67157C6 10.2954 6.77832 13.4416 9.62516 17.6048C11.5152 20.4494 14.2072 21.9768 16.6314 21.9768C18.0988 21.9768 18.2773 21.6287 18.2773 21.0513V18.9001C18.2773 18.2067 18.4098 18.0907 18.8771 18.0907C19.2105 18.0907 19.8116 18.275 21.1687 19.64C22.7254 21.2588 22.9918 22 23.8594 22H26.1497C26.8178 22 27.1289 21.6519 26.9504 20.9817C26.7508 20.3115 25.9948 19.3397 25.0157 18.1835C24.4815 17.5352 23.6809 16.8186 23.4368 16.4719C23.1034 16.0091 23.1926 15.8235 23.4368 15.4072C23.4144 15.4072 26.2167 11.2904 26.5054 9.90225C26.6616 9.39311 26.5054 9.0232 25.8163 9.0232Z" fill="white"/>
</g>
</svg>
