<svg xmlns="http://www.w3.org/2000/svg" width="8.5" height="16.82" viewBox="0 0 8.5 16.82">
  <metadata><?xpacket begin="﻿" id="W5M0MpCehiHzreSzNTczkc9d"?>
<x:xmpmeta xmlns:x="adobe:ns:meta/" x:xmptk="Adobe XMP Core 5.6-c138 79.159824, 2016/09/14-01:09:01        ">
   <rdf:RDF xmlns:rdf="http://www.w3.org/1999/02/22-rdf-syntax-ns#">
      <rdf:Description rdf:about=""/>
   </rdf:RDF>
</x:xmpmeta>
                                                                                                    
                                                                                                    
                                                                                                    
                                                                                                    
                                                                                                    
                                                                                                    
                                                                                                    
                                                                                                    
                                                                                                    
                                                                                                    
                                                                                                    
                                                                                                    
                                                                                                    
                                                                                                    
                                                                                                    
                                                                                                    
                                                                                                    
                                                                                                    
                                                                                                    
                                                                                                    
                           
<?xpacket end="w"?></metadata>
<defs>
    <style>
      .cls-1 {
        fill: #fff;
        fill-rule: evenodd;
      }
    </style>
  </defs>
  <path class="cls-1" d="M162.873,3905.55h1.841v7.58a0.27,0.27,0,0,0,.271.27h3.121a0.27,0.27,0,0,0,.27-0.27v-7.55h2.116a0.267,0.267,0,0,0,.269-0.24l0.322-2.79a0.268,0.268,0,0,0-.067-0.21,0.262,0.262,0,0,0-.2-0.09h-2.437v-1.75a0.729,0.729,0,0,1,.843-0.8h1.594a0.27,0.27,0,0,0,.271-0.27v-2.56a0.27,0.27,0,0,0-.271-0.27h-2.2a0.93,0.93,0,0,0-.1-0.01,4.23,4.23,0,0,0-2.752,1.04,2.9,2.9,0,0,0-.959,2.57v2.05h-1.933a0.27,0.27,0,0,0-.271.27v2.76A0.27,0.27,0,0,0,162.873,3905.55Z" transform="translate(-162.594 -3896.59)"/>
</svg>
