<svg xmlns="http://www.w3.org/2000/svg" width="16.469" height="16.5" viewBox="0 0 16.469 16.5">
  <metadata><?xpacket begin="﻿" id="W5M0MpCehiHzreSzNTczkc9d"?>
<x:xmpmeta xmlns:x="adobe:ns:meta/" x:xmptk="Adobe XMP Core 5.6-c138 79.159824, 2016/09/14-01:09:01        ">
   <rdf:RDF xmlns:rdf="http://www.w3.org/1999/02/22-rdf-syntax-ns#">
      <rdf:Description rdf:about=""/>
   </rdf:RDF>
</x:xmpmeta>
                                                                                                    
                                                                                                    
                                                                                                    
                                                                                                    
                                                                                                    
                                                                                                    
                                                                                                    
                                                                                                    
                                                                                                    
                                                                                                    
                                                                                                    
                                                                                                    
                                                                                                    
                                                                                                    
                                                                                                    
                                                                                                    
                                                                                                    
                                                                                                    
                                                                                                    
                                                                                                    
                           
<?xpacket end="w"?></metadata>
<defs>
    <style>
      .cls-1 {
        fill: #fff;
        fill-rule: evenodd;
      }
    </style>
  </defs>
  <path class="cls-1" d="M296.17,3897.31l-15.046,6.98a0.7,0.7,0,0,0,.043,1.24l3.824,1.34,1.427,5.39a0.619,0.619,0,0,0,1.095.32l1.977-2.41,3.879,3.39a0.778,0.778,0,0,0,1.271-.58l2.569-14.62A0.835,0.835,0,0,0,296.17,3897.31Zm-1.886,3.25-6.989,7.36a0.459,0.459,0,0,0-.125.28l-0.269,2.85a0.072,0.072,0,0,1-.141.02l-1.107-4.25a0.477,0.477,0,0,1,.161-0.51l8.253-6.1C294.257,3900.07,294.451,3900.38,294.284,3900.56Z" transform="translate(-280.75 -3897.25)"/>
</svg>
