<svg width="16" height="16" viewBox="0 0 16 16" xmlns="http://www.w3.org/2000/svg"><title>earth-globe</title><g fill="none"><path d="M15.99 7.979a7.979 7.979 0 1 1-15.958 0 7.979 7.979 0 1 1 15.958 0z" fill="#F0F0F0"/><path d="M15.99 7.979a7.979 7.979 0 1 1-15.958 0 7.979 7.979 0 1 1 15.958 0z" fill="#4087E2"/><path d="M14.455 7.132c-1.571.12-2.075-.801-1.868-1.083.358-.487 2.062.697 2.175-.18.02-.154.405-.556.745-.63A8.005 8.005 0 0 0 11.013.584c-.07.239-.133.436-.168.453-1.198.583-2.613.853-3.463 1.973-.119.157-.276.454-.106.641.211.233.775-.006 1.052.014.77.055 2.94.56 3.01.912.07.351-.824 1.016-1.698.534-.257-.142-1.284-.318-1.633-.381-.244-.044-2.35.22-2.257 2.724.038 1.016.673 1.67 1.698 1.68.85.01 1.71-.089 1.987.917.236.852.146 1.734.356 2.583.085.34.265.82.698.857.655.057 1.096-.384 1.49-.841.314-.365.71-.682.944-1.11.371-.678.27-1.485.662-2.164.316-.548 1.366-2.283.87-2.245zM2.592 9.533c-.25-.363-.536-.714-.793-1.072C1.56 8.127.625 6.61.193 6.377A8.015 8.015 0 0 0 .032 7.98c0 1.942.694 3.722 1.847 5.105.029.036.722-.479.784-.53.255-.218.47-.484.566-.81.223-.76-.216-1.599-.637-2.21z" fill="#A0D468"/></g></svg>