<svg width="16" height="16" viewBox="0 0 16 16" xmlns="http://www.w3.org/2000/svg"><title>european-union</title><g fill="none"><circle fill="#F0F0F0" cx="8" cy="8" r="8"/><circle fill="#0052B4" cx="8" cy="8" r="8"/><path d="M8 3.13l.26.798h.837l-.678.492.26.797L8 4.725l-.678.492.259-.797-.678-.492h.838zM4.557 4.557l.747.38.592-.592-.13.827.746.38-.828.132-.131.828-.38-.747-.828.131.592-.592zM3.13 8l.798-.259v-.838l.492.678.797-.26L4.725 8l.492.678-.797-.259-.492.678V8.26zm1.427 3.443l.38-.747-.592-.592.827.131.38-.747.132.828.828.131-.747.38.131.828-.592-.592zM8 12.87l-.259-.798h-.838l.678-.492-.26-.797.679.492.678-.492-.259.797.678.492H8.26zm3.443-1.427l-.746-.38-.593.592.131-.827-.747-.38.828-.132.131-.828.38.747.828-.131-.592.593zM12.87 8l-.798.259v.838l-.492-.678-.797.26.492-.679-.492-.678.797.259.492-.678v.838zm-1.427-3.443l-.38.747.592.592-.827-.131-.38.747-.132-.828-.828-.131.747-.38-.131-.828.593.592z" fill="#FFDA44"/></g></svg>