<svg width="18" height="18" viewBox="0 0 18 18" xmlns="http://www.w3.org/2000/svg" xmlns:xlink="http://www.w3.org/1999/xlink"><title>united-states-of-america</title><defs><circle id="a" cx="8" cy="8" r="8"/></defs><g fill="none"><g transform="translate(1 1)"><use fill="#F0F0F0" fill-rule="evenodd" xlink:href="#a"/><circle stroke="#AFBCC5" cx="8" cy="8" r="8.5"/></g><path d="M8.285 8.877H16.5c0-.733-.095-1.443-.271-2.118H8.285v2.118zm0-4.237h7.06a8.09 8.09 0 0 0-1.817-2.12H8.285v2.12zM8.627 17a7.69 7.69 0 0 0 4.9-1.766h-9.8A7.69 7.69 0 0 0 8.626 17zM1.91 13.115h13.434a8.21 8.21 0 0 0 .885-2.119H1.025a8.21 8.21 0 0 0 .885 2.12z" fill="#D80027"/><path d="M4.706 2.25h.729l-.678.492.259.797-.678-.493-.679.493.224-.689a8.044 8.044 0 0 0-1.551 1.73h.233l-.431.313a7.987 7.987 0 0 0-.194.342l.206.635-.384-.28a8.07 8.07 0 0 0-.262.621l.227.7h.838l-.678.492.26.797-.679-.493-.406.295C1.022 8.33 1 8.662 1 9h8V1c-1.58 0-3.054.458-4.294 1.25zm.31 5.95l-.678-.493-.679.493.26-.797-.679-.493h.839l.259-.797.259.797h.838l-.678.493.259.797zm-.26-3.128l.26.798-.678-.493-.679.493.26-.798-.679-.492h.839l.259-.797.259.797h.838l-.678.492zM7.887 8.2l-.679-.493-.678.493.26-.797-.679-.493h.838l.26-.797.258.797h.838l-.678.493.26.797zm-.26-3.128l.26.798-.679-.493-.678.493.26-.798-.679-.492h.838l.26-.797.258.797h.838l-.678.492zm0-2.33l.26.797-.679-.493-.678.493.26-.797-.679-.493h.838l.26-.797.258.797h.838l-.678.493z" fill="#0052B4"/></g></svg>