<?xml version="1.0" encoding="UTF-8"?>
<svg width="16px" height="16px" viewBox="0 0 16 16" version="1.1" xmlns="http://www.w3.org/2000/svg" xmlns:xlink="http://www.w3.org/1999/xlink">
    <!-- Generator: Sketch 49.1 (51147) - http://www.bohemiancoding.com/sketch -->
    <title>earth-globe</title>
    <desc>Created with Sketch.</desc>
    <defs></defs>
    <g id="Final" stroke="none" stroke-width="1" fill="none" fill-rule="evenodd">
        <g id="png/ostrog_game_page_05" transform="translate(-465.000000, -5451.000000)" fill-rule="nonzero">
            <g id="Об-игре-" transform="translate(441.000000, 5035.000000)">
                <g id="Дата-выхода" transform="translate(0.000000, 332.000000)">
                    <g id="earth-globe" transform="translate(24.000000, 84.000000)">
                        <path d="M15.98975,7.97904167 C15.98975,12.385875 12.4175833,15.9580833 8.01070833,15.9580833 C3.603875,15.9580833 0.0316666667,12.3859167 0.0316666667,7.97904167 C0.0316666667,3.57220833 3.603875,0 8.01070833,0 C12.4175417,0 15.98975,3.57225 15.98975,7.97904167 Z" id="Shape" fill="#F0F0F0"></path>
                        <path d="M15.98975,7.97904167 C15.98975,12.385875 12.4175833,15.9580833 8.01070833,15.9580833 C3.603875,15.9580833 0.0316666667,12.3859167 0.0316666667,7.97904167 C0.0316666667,3.57220833 3.603875,0 8.01070833,0 C12.4175417,0 15.98975,3.57225 15.98975,7.97904167 Z" id="Shape-Copy" fill="#4087E2"></path>
                        <g id="Group" transform="translate(0.000000, 0.583333)" fill="#A0D468">
                            <path d="M14.4545833,6.54875 C12.8837083,6.66820833 12.3797917,5.74733333 12.5868333,5.46608333 C12.9449167,4.97879167 14.64925,6.16270833 14.761875,5.28541667 C14.7820417,5.13145833 15.1674583,4.72979167 15.5066667,4.65491667 C14.73325,2.54104167 13.091375,0.846083333 11.0132917,0.00133333333 C10.9423333,0.240583333 10.8798333,0.438166667 10.8453333,0.455125 C9.64741667,1.0375 8.23208333,1.30795833 7.38245833,2.42741667 C7.26333333,2.584625 7.10575,2.8815 7.27633333,3.069 C7.48725,3.30141667 8.05108333,3.0625 8.32775,3.08266667 C9.09725,3.138 11.2671667,3.64320833 11.3375,3.99475 C11.4078333,4.34595833 10.5139167,5.011 9.64025,4.52891667 C9.38308333,4.387 8.35575,4.21025 8.00679167,4.14741667 C7.76266667,4.10379167 5.65658333,4.36808333 5.75033333,6.872 C5.78808333,7.88758333 6.4235,8.540875 7.44754167,8.55258333 C8.29716667,8.56233333 9.15716667,8.46308333 9.43516667,9.46858333 C9.67083333,10.3207917 9.581,11.2029583 9.79129167,12.05125 C9.87591667,12.3924167 10.05625,12.8715833 10.4885417,12.9086667 C11.144125,12.9652917 11.584875,12.5245417 11.97875,12.0675 C12.2925417,11.70225 12.6890417,11.3852083 12.9234167,10.958125 C13.2944583,10.2800833 13.1922917,9.47279167 13.5848333,8.79375 C13.9012083,8.24595833 14.9513333,6.51066667 14.4545833,6.54875 Z" id="Shape"></path>
                            <path d="M2.59216667,8.95004167 C2.34216667,8.58708333 2.05570833,8.23554167 1.79925,7.87745833 C1.55966667,7.54383333 0.625416667,6.02691667 0.1925,5.79383333 C0.0870416667,6.31141667 0.0317083333,6.846875 0.0317083333,7.39570833 C0.0317083333,9.33770833 0.725708333,11.1176667 1.87870833,12.501125 C1.908,12.5369167 2.60133333,12.0219583 2.66254167,11.969875 C2.91841667,11.7524167 3.13258333,11.4867917 3.22895833,11.160625 C3.45220833,10.3999167 3.01275,9.56170833 2.59216667,8.95004167 Z" id="Shape"></path>
                        </g>
                    </g>
                </g>
            </g>
        </g>
    </g>
</svg>