<?xml version="1.0" encoding="UTF-8"?>
<svg width="16px" height="16px" viewBox="0 0 16 16" version="1.1" xmlns="http://www.w3.org/2000/svg" xmlns:xlink="http://www.w3.org/1999/xlink">
    <!-- Generator: Sketch 49.1 (51147) - http://www.bohemiancoding.com/sketch -->
    <title>european-union</title>
    <desc>Created with Sketch.</desc>
    <defs></defs>
    <g id="Final" stroke="none" stroke-width="1" fill="none" fill-rule="evenodd">
        <g id="png/ostrog_game_page_05" transform="translate(-465.000000, -5485.000000)" fill-rule="nonzero">
            <g id="Об-игре-" transform="translate(441.000000, 5035.000000)">
                <g id="Дата-выхода" transform="translate(0.000000, 332.000000)">
                    <g id="european-union" transform="translate(24.000000, 118.000000)">
                        <circle id="Oval" fill="#F0F0F0" cx="8" cy="8" r="8"></circle>
                        <circle id="Oval-Copy" fill="#0052B4" cx="8" cy="8" r="8"></circle>
                        <g id="Group" transform="translate(3.125000, 3.125000)" fill="#FFDA44">
                            <polygon id="Shape" points="4.87503125 0.0054375 5.1340625 0.80259375 5.9721875 0.80259375 5.29409375 1.29525 5.553125 2.09240625 4.87503125 1.59971875 4.19690625 2.09240625 4.4559375 1.29525 3.77784375 0.80259375 4.616 0.80259375"></polygon>
                            <polygon id="Shape" points="1.4316875 1.4316875 2.1785625 1.8121875 2.77121875 1.2195625 2.6400625 2.047375 3.38690625 2.42790625 2.5590625 2.55903125 2.4279375 3.38690625 2.04740625 2.6400625 1.21959375 2.77121875 1.81225 2.1785625"></polygon>
                            <polygon id="Shape" points="0.00546875 4.875 0.802625 4.61596875 0.802625 3.7778125 1.29525 4.4559375 2.0924375 4.19690625 1.59971875 4.875 2.0924375 5.55309375 1.29525 5.29409375 0.802625 5.9721875 0.802625 5.13403125"></polygon>
                            <polygon id="Shape" points="1.4316875 8.3183125 1.81221875 7.5714375 1.21959375 6.97878125 2.0474375 7.10996875 2.42790625 6.363125 2.5590625 7.19096875 3.386875 7.32209375 2.640125 7.702625 2.77121875 8.5304375 2.1785625 7.93778125"></polygon>
                            <polygon id="Shape" points="4.87503125 9.7445625 4.61596875 8.94740625 3.77784375 8.94740625 4.45596875 8.45475 4.19690625 7.65765625 4.87503125 8.15028125 5.553125 7.65765625 5.29409375 8.45475 5.9721875 8.94740625 5.13403125 8.94740625"></polygon>
                            <polygon id="Shape" points="8.31834375 8.3183125 7.5715 7.9378125 6.9788125 8.53046875 7.10996875 7.70259375 6.3631875 7.32209375 7.191 7.19096875 7.322125 6.363125 7.702625 7.10996875 8.5304375 6.97878125 7.93778125 7.5715"></polygon>
                            <polygon id="Shape" points="9.7445625 4.875 8.94740625 5.13403125 8.94740625 5.9721875 8.45475 5.2940625 7.65765625 5.55309375 8.1503125 4.875 7.65765625 4.19690625 8.45478125 4.4559375 8.94740625 3.7778125 8.94740625 4.616"></polygon>
                            <polygon id="Shape" points="8.31834375 1.4316875 7.9378125 2.1785625 8.53046875 2.77121875 7.70259375 2.64003125 7.322125 3.386875 7.191 2.55903125 6.3631875 2.427875 7.10996875 2.047375 6.9788125 1.21959375 7.57153125 1.81221875"></polygon>
                        </g>
                    </g>
                </g>
            </g>
        </g>
    </g>
</svg>