<?xml version="1.0" encoding="UTF-8"?>
<svg width="18px" height="18px" viewBox="0 0 18 18" version="1.1" xmlns="http://www.w3.org/2000/svg" xmlns:xlink="http://www.w3.org/1999/xlink">
    <!-- Generator: Sketch 49.1 (51147) - http://www.bohemiancoding.com/sketch -->
    <title>south-korea</title>
    <desc>Created with Sketch.</desc>
    <defs>
        <circle id="path-1" cx="8" cy="8" r="8"></circle>
    </defs>
    <g id="Final" stroke="none" stroke-width="1" fill="none" fill-rule="evenodd">
        <g id="png/ostrog_game_page_05" transform="translate(-440.000000, -5484.000000)" fill-rule="nonzero">
            <g id="Об-игре-" transform="translate(441.000000, 5035.000000)">
                <g id="Дата-выхода" transform="translate(0.000000, 332.000000)">
                    <g id="south-korea" transform="translate(0.000000, 118.000000)">
                        <g id="Oval">
                            <use fill="#F0F0F0" fill-rule="evenodd" xlink:href="#path-1"></use>
                            <circle stroke="#AFBCC5" stroke-width="1" cx="8" cy="8" r="8.5"></circle>
                        </g>
                        <path d="M10.7825938,8 C10.7825938,8.69565625 9.53678125,10.4347813 8,10.4347813 C6.46321875,10.4347813 5.21740625,8.69565625 5.21740625,8 C5.21740625,6.4631875 6.46321875,5.21740625 8,5.21740625 C9.53678125,5.21740625 10.7825938,6.4631875 10.7825938,8 Z" id="Shape" fill="#D80027"></path>
                        <path d="M10.7825938,8 C10.7825938,9.5368125 9.53678125,10.7825938 8,10.7825938 C6.46321875,10.7825938 5.21740625,9.5368125 5.21740625,8" id="Shape" fill="#0052B4"></path>
                        <rect id="Rectangle-path" fill="#000000" transform="translate(11.566176, 10.336559) rotate(-45.000000) translate(-11.566176, -10.336559) " x="11.0444467" y="9.98873439" width="1.04345874" height="1"></rect>
                        <rect id="Rectangle-path" fill="#000000" transform="translate(10.336266, 11.566383) rotate(-45.000000) translate(-10.336266, -11.566383) " x="9.81453685" y="11.218558" width="1.04345874" height="1"></rect>
                        <rect id="Rectangle-path" fill="#000000" transform="translate(13.042061, 11.811943) rotate(-45.000000) translate(-13.042061, -11.811943) " x="12.520332" y="11.4641181" width="1.04345874" height="1"></rect>
                        <rect id="Rectangle-path" fill="#000000" transform="translate(11.812166, 13.041981) rotate(-45.000000) translate(-11.812166, -13.041981) " x="11.2904362" y="12.6941558" width="1.04345874" height="1"></rect>
                        <rect id="Rectangle-path" fill="#000000" transform="translate(12.304078, 11.074308) rotate(-45.000000) translate(-12.304078, -11.074308) " x="11.7823488" y="10.7264833" width="1.04345874" height="1"></rect>
                        <rect id="Rectangle-path" fill="#000000" transform="translate(11.074515, 12.304132) rotate(-45.000000) translate(-11.074515, -12.304132) " x="10.5527852" y="11.9563076" width="1.04345874" height="1"></rect>
                        <rect id="Rectangle-path" fill="#000000" transform="translate(11.689590, 4.310559) rotate(-135.000000) translate(-11.689590, -4.310559) " x="10.2983064" y="3.96273436" width="2.78256706" height="1"></rect>
                        <rect id="Rectangle-path" fill="#000000" transform="translate(10.336815, 4.433837) rotate(-135.000000) translate(-10.336815, -4.433837) " x="9.81508556" y="4.08602821" width="1.04345874" height="1"></rect>
                        <rect id="Rectangle-path" fill="#000000" transform="translate(11.566397, 5.663474) rotate(-135.000000) translate(-11.566397, -5.663474) " x="11.0446675" y="5.31566463" width="1.04345874" height="1"></rect>
                        <rect id="Rectangle-path" fill="#000000" transform="translate(11.811869, 2.958119) rotate(-135.000000) translate(-11.811869, -2.958119) " x="11.29014" y="2.61029392" width="1.04345874" height="1"></rect>
                        <rect id="Rectangle-path" fill="#000000" transform="translate(13.042119, 4.187896) rotate(-135.000000) translate(-13.042119, -4.187896) " x="12.5203896" y="3.84007122" width="1.04345874" height="1"></rect>
                        <rect id="Rectangle-path" fill="#000000" transform="translate(3.572918, 12.427167) rotate(45.000000) translate(-3.572918, -12.427167) " x="2.18163456" y="12.0793417" width="2.78256706" height="1"></rect>
                        <rect id="Rectangle-path" fill="#000000" transform="translate(4.925492, 12.303940) rotate(45.000000) translate(-4.925492, -12.303940) " x="4.40376219" y="11.9561313" width="1.04345874" height="1"></rect>
                        <rect id="Rectangle-path" fill="#000000" transform="translate(3.695799, 11.074350) rotate(45.000000) translate(-3.695799, -11.074350) " x="3.17406945" y="10.726525" width="1.04345874" height="1"></rect>
                        <rect id="Rectangle-path" fill="#000000" transform="translate(5.048549, 10.951340) rotate(45.000000) translate(-5.048549, -10.951340) " x="3.65726499" y="10.6035156" width="2.78256706" height="1"></rect>
                        <rect id="Rectangle-path" fill="#000000" transform="translate(3.572875, 3.572844) rotate(135.000000) translate(-3.572875, -3.572844) " x="2.18159124" y="3.22501896" width="2.78256706" height="1"></rect>
                        <rect id="Rectangle-path" fill="#000000" transform="translate(4.310476, 4.310506) rotate(135.000000) translate(-4.310476, -4.310506) " x="2.91919219" y="3.9626808" width="2.78256706" height="1"></rect>
                        <rect id="Rectangle-path" fill="#000000" transform="translate(5.048779, 5.048689) rotate(135.000000) translate(-5.048779, -5.048689) " x="3.65749508" y="4.70088023" width="2.78256706" height="1"></rect>
                    </g>
                </g>
            </g>
        </g>
    </g>
</svg>