<svg width="18" height="18" viewBox="0 0 18 18" xmlns="http://www.w3.org/2000/svg" xmlns:xlink="http://www.w3.org/1999/xlink"><title>south-korea</title><defs><circle id="a" cx="8" cy="8" r="8"/></defs><g fill="none"><g transform="translate(1 1)"><use fill="#F0F0F0" fill-rule="evenodd" xlink:href="#a"/><circle stroke="#AFBCC5" cx="8" cy="8" r="8.5"/></g><path d="M11.783 9c0 .696-1.246 2.435-2.783 2.435S6.217 9.695 6.217 9a2.783 2.783 0 1 1 5.566 0z" fill="#D80027"/><path d="M11.783 9a2.783 2.783 0 1 1-5.566 0" fill="#0052B4"/><path fill="#000" d="M11.951 11.46l.738-.737.707.707-.738.737zm-1.229 1.23l.738-.738.707.707-.738.737zm2.705.245l.737-.737.707.707-.737.737zm-1.23 1.23l.737-.737.707.707-.737.737zm.492-1.968l.737-.737.707.707-.737.737zm-1.229 1.23l.737-.738.707.707-.737.738zm1.968-6.887L11.46 4.572l.707-.707 1.968 1.968zm-1.968-.491l-.738-.738.707-.707.738.738zm1.23 1.229l-.738-.738.707-.707.737.738zm.245-2.705l-.738-.737.707-.707.738.737zm1.23 1.23l-.737-.737.707-.708.737.738zM3.836 12.197l1.967 1.968-.707.707-1.968-1.967zm1.967.493l.737.737-.707.707-.737-.738zm-1.231-1.23l.738.737-.707.707-.738-.737zm.738-.738l1.968 1.968-.707.707-1.968-1.968zm.492-6.887L3.834 5.803l-.707-.707 1.968-1.968zm.738.737L4.572 6.54l-.707-.707 1.968-1.968zm.739.738L5.31 7.278l-.707-.707 1.968-1.968z"/></g></svg>