<svg width="93" height="63" viewBox="0 0 93 63" xmlns="http://www.w3.org/2000/svg"><title>svg/footer/Ostrog_logo</title><path d="M.184 52.115c0-2.26 1.454-3.726 4.19-3.726h6.195c2.736 0 4.19 1.466 4.19 3.726v7.158c0 2.261-1.454 3.727-4.19 3.727H4.374c-2.736 0-4.19-1.466-4.19-3.727v-7.158zm4.083 8.398c.325.328.77.508 1.23.497h3.945c.46.01.904-.17 1.23-.497.325-.328.504-.776.493-1.24v-7.158a1.706 1.706 0 0 0-.493-1.24 1.679 1.679 0 0 0-1.23-.496h-3.94a1.678 1.678 0 0 0-1.23.497 1.705 1.705 0 0 0-.493 1.24v7.157c-.016.464.162.912.488 1.24zm57.238-8.398c0-2.26 1.455-3.726 4.192-3.726h6.194c2.736 0 4.191 1.466 4.191 3.726v7.158c0 2.261-1.455 3.727-4.19 3.727h-6.195c-2.737 0-4.192-1.466-4.192-3.727v-7.158zm4.084 8.398c.325.328.77.508 1.23.497h3.944c.46.01.905-.169 1.23-.497.326-.328.504-.776.494-1.24v-7.158a1.705 1.705 0 0 0-.494-1.24 1.678 1.678 0 0 0-1.23-.496H66.82a1.676 1.676 0 0 0-1.23.497 1.705 1.705 0 0 0-.493 1.24v7.157c-.01.464.167.912.493 1.24zM19.409 56.2c-1.973-.474-3.205-1.737-3.205-3.851 0-2.246 1.455-3.712 4.191-3.712h8.028v1.116l-.74.868H21.52a1.68 1.68 0 0 0-1.23.497 1.705 1.705 0 0 0-.493 1.24 1.794 1.794 0 0 0 1.48 1.728l5.561 1.118c1.972.474 3.205 1.737 3.205 3.85 0 2.23-1.455 3.696-4.191 3.696h-8.763v-1.986h7.643c.46.011.904-.169 1.23-.497.325-.328.503-.775.493-1.24a1.788 1.788 0 0 0-1.48-1.704L19.41 56.2zm24.44-7.563v1.116l-.74.868h-4.437v12.13H35.08V50.625h-5.177v-1.988h13.945zm1.75 0h9.893c2.736 0 4.191 1.466 4.191 3.727v1.725a3.181 3.181 0 0 1-1.723 2.857 5.497 5.497 0 0 1-1.724.62l3.442 3.948v1.242h-2.842l-4.19-4.937h-3.452v4.937h-3.59L45.6 48.637zm8.768 7.19c.46.01.904-.169 1.23-.497.325-.328.504-.776.493-1.24v-1.726a1.705 1.705 0 0 0-.493-1.24 1.678 1.678 0 0 0-1.23-.497H49.19v5.204l5.177-.004zm30.794-.993h7.289v7.917H82.314c-2.736 0-4.19-1.466-4.19-3.726v-6.661c0-2.26 1.454-3.727 4.19-3.727H92.47v1.116l-.74.868h-8.29a1.68 1.68 0 0 0-1.23.497 1.705 1.705 0 0 0-.493 1.24v6.661c-.01.464.167.912.493 1.24.325.328.77.508 1.23.497h5.424v-3.947h-3.698l-.004-1.975zm-56.928-44.64v19.26l4.531-1.105 2.56-5.657 2.742-.272 1.473-.145 2.037-.203.79-.08 9.048-.888v-.695H34.64v-2.478l1.682-.149.645-.057v.961h1.893v-1.129l2.585-.227.416-.036v1.392h1.894v-1.561l3.471-.306v1.865h1.894v-2.033l.687-.06 2.31-.204v2.297h1.893v-2.931H33.488v-1.224l9.549-5.28 2.498-1.383 11.73 6.489v1.397h-.842v4.723h-1.56l.921 2.265 5.31-1.37V10.298L45.53 0 28.233 10.193zM42.806 6.17l2.724-1.256V7.15l-2.724-.98zm18.285 17.608v8.186l-2.185 1.288v-7.857L56.601 28v6.606l-2.741 1.615v-9.704l-2.307 2.605v8.463l-2.742 1.613V27.644l-2.307 2.605v10.31l-2.714 1.599-.026-13.392-2.305 2.605v9.244l-2.742-1.816v-8.908l-2.307 2.605v4.779l-2.741-1.816v-4.205l-2.307 2.605v.08l-3.133-2.078L61.09 23.78z" fill="#FFF" fill-rule="evenodd"/></svg>