<svg width="135" height="42" viewBox="0 0 135 42" xmlns="http://www.w3.org/2000/svg"><title>135_42</title><path d="M11.502 11.999a3.1 3.1 0 0 1-.751.32c-.345.09-.7.133-1.057.125a2.683 2.683 0 0 1-1.175-.244 2.339 2.339 0 0 1-.849-.683 2.955 2.955 0 0 1-.507-1.059 5.245 5.245 0 0 1-.167-1.373 3.869 3.869 0 0 1 .7-2.551 2.321 2.321 0 0 1 1.857-.822 7.01 7.01 0 0 1 1.064.07c.262.037.517.112.758.222l.375-1.613a5.171 5.171 0 0 0-.952-.264 7.618 7.618 0 0 0-1.412-.111 4.946 4.946 0 0 0-1.558.257 3.805 3.805 0 0 0-1.412.849c-.452.439-.803.97-1.029 1.558a6.355 6.355 0 0 0-.4 2.4c-.02.796.1 1.59.354 2.344.2.586.526 1.123.953 1.572.387.396.86.696 1.384.876a5.06 5.06 0 0 0 1.662.271c.474 0 .947-.045 1.412-.138a2.92 2.92 0 0 0 1.134-.455l-.384-1.551zm.876-1.249h3.492v-1.6h-3.492v1.6zm11.642 1.252a3.1 3.1 0 0 1-.751.32c-.345.09-.7.133-1.057.125a2.683 2.683 0 0 1-1.175-.244 2.339 2.339 0 0 1-.849-.683 2.955 2.955 0 0 1-.507-1.059 5.245 5.245 0 0 1-.167-1.373 3.869 3.869 0 0 1 .7-2.551 2.321 2.321 0 0 1 1.857-.822 7.01 7.01 0 0 1 1.064.07c.262.037.517.112.758.222l.376-1.613a5.206 5.206 0 0 0-.953-.264 7.618 7.618 0 0 0-1.412-.111 4.946 4.946 0 0 0-1.558.257 3.805 3.805 0 0 0-1.412.849c-.452.439-.803.97-1.029 1.558a6.355 6.355 0 0 0-.4 2.4c-.02.796.1 1.59.354 2.344.2.586.526 1.123.953 1.572.387.396.86.696 1.384.876a5.06 5.06 0 0 0 1.662.271c.474 0 .947-.045 1.412-.138a2.92 2.92 0 0 0 1.134-.455l-.384-1.551zm.876-1.252h3.492v-1.6h-3.492v1.6zm11.642 1.252a3.1 3.1 0 0 1-.751.32c-.345.09-.7.133-1.057.125a2.683 2.683 0 0 1-1.175-.244 2.339 2.339 0 0 1-.849-.683 2.955 2.955 0 0 1-.507-1.059 5.245 5.245 0 0 1-.167-1.373 3.869 3.869 0 0 1 .7-2.551 2.321 2.321 0 0 1 1.857-.822 7.01 7.01 0 0 1 1.064.07c.262.037.517.112.758.222l.376-1.613a5.206 5.206 0 0 0-.953-.264 7.618 7.618 0 0 0-1.412-.111 4.946 4.946 0 0 0-1.558.257 3.805 3.805 0 0 0-1.412.849c-.452.439-.803.97-1.029 1.558a6.355 6.355 0 0 0-.4 2.4c-.02.796.1 1.59.354 2.344.2.586.526 1.123.953 1.572.387.396.86.696 1.384.876a5.06 5.06 0 0 0 1.662.271c.474 0 .947-.045 1.412-.138a2.92 2.92 0 0 0 1.134-.455l-.384-1.551zm1.4-.848c.146.578.403 1.121.758 1.6.337.444.78.798 1.287 1.029a4.324 4.324 0 0 0 1.836.362 3.727 3.727 0 0 0 3.053-1.314 5.773 5.773 0 0 0 1.078-3.748 7.98 7.98 0 0 0-.251-2.072 4.5 4.5 0 0 0-.765-1.6 3.433 3.433 0 0 0-1.293-1.029 4.291 4.291 0 0 0-1.822-.362 3.72 3.72 0 0 0-3.06 1.314 5.79 5.79 0 0 0-1.071 3.749 7.98 7.98 0 0 0 .255 2.067l-.005.004zm2.312-4.628a1.958 1.958 0 0 1 2.559-.556c.276.179.5.425.654.716.178.336.302.697.368 1.071.082.436.122.878.119 1.321a4.583 4.583 0 0 1-.557 2.573 1.808 1.808 0 0 1-1.571.793 1.78 1.78 0 0 1-.96-.25 1.948 1.948 0 0 1-.661-.7 3.5 3.5 0 0 1-.382-1.064 6.808 6.808 0 0 1-.125-1.356 4.6 4.6 0 0 1 .556-2.548zm14.968 7.424h1.906V4.21h-1.725l-2.462 4.423-.417 1.141h-.056l-.459-1.113-2.6-4.451h-1.739v9.74h1.809V8.883l-.279-1.919h.07l.612 1.544 2.184 3.644h.612l2.072-3.63.6-1.558h.084l-.209 1.933v5.053h-.003zm10.167-8.665a2.117 2.117 0 0 0-.813-.737 3.8 3.8 0 0 0-1.155-.369 8.321 8.321 0 0 0-1.328-.1 24.089 24.089 0 0 0-1.614.056 16.748 16.748 0 0 0-1.335.153v9.6c.264.06.53.1.8.125a18.748 18.748 0 0 0 1.655.084h.6c.473.001.945-.055 1.405-.167a3.935 3.935 0 0 0 1.217-.515 2.63 2.63 0 0 0 .855-.9c.221-.397.332-.846.32-1.3a2.748 2.748 0 0 0-.16-.988 2.089 2.089 0 0 0-.438-.709 2.024 2.024 0 0 0-.644-.468 3.266 3.266 0 0 0-.792-.236V8.73a2.36 2.36 0 0 0 .806-.341 2 2 0 0 0 .843-1.19c.06-.236.09-.48.09-.723a2.162 2.162 0 0 0-.312-1.195v.004zm-3.5 7.2l-.361-.014c-.117 0-.225-.012-.327-.021a.858.858 0 0 1-.223-.041V9.75h1.016c.242 0 .483.014.723.041.227.024.448.087.654.186.19.092.352.232.472.406.132.215.195.464.181.716.006.217-.047.43-.153.62-.1.173-.236.32-.4.434a1.781 1.781 0 0 1-.577.255 2.69 2.69 0 0 1-.675.083l-.328-.012-.002.006zm-.911-4.18v-2.58c.157-.022.315-.036.473-.041.2-.009.426-.014.668-.014.205 0 .41.018.612.055.184.033.36.098.521.193.152.091.28.219.369.372.099.181.147.386.139.592a1.09 1.09 0 0 1-.383.867 2.517 2.517 0 0 1-.911.5c-.14.021-.282.035-.424.041a8.816 8.816 0 0 1-.452.014h-.612v.001zm6.676 2.845c.146.578.404 1.121.758 1.6.338.444.78.797 1.287 1.029a4.324 4.324 0 0 0 1.836.362 3.725 3.725 0 0 0 3.053-1.314 5.773 5.773 0 0 0 1.078-3.748 8.025 8.025 0 0 0-.25-2.072 4.5 4.5 0 0 0-.765-1.6 3.444 3.444 0 0 0-1.294-1.029 4.288 4.288 0 0 0-1.822-.362 3.721 3.721 0 0 0-3.06 1.314A5.8 5.8 0 0 0 67.4 9.079a7.98 7.98 0 0 0 .25 2.071zm2.309-4.625a1.958 1.958 0 0 1 2.559-.556c.276.179.5.425.654.716.177.336.302.697.369 1.071.08.436.12.878.118 1.321a4.593 4.593 0 0 1-.556 2.573 1.809 1.809 0 0 1-1.572.793 1.78 1.78 0 0 1-.96-.25 1.937 1.937 0 0 1-.66-.7 3.478 3.478 0 0 1-.383-1.064 6.883 6.883 0 0 1-.125-1.356 4.6 4.6 0 0 1 .558-2.547l-.002-.001zm-51.876 13.39a4.3 4.3 0 0 0-1.65-1.494 7.7 7.7 0 0 0-2.34-.747c-.89-.142-1.79-.213-2.692-.211-.545 0-1.095.01-1.649.028a42.35 42.35 0 0 0-1.621.085c-.527.038-1.02.085-1.48.141-.46.056-.869.112-1.227.169v19.452c.534.12 1.076.205 1.621.254a37.17 37.17 0 0 0 3.355.169h1.227a11.92 11.92 0 0 0 2.847-.338 7.975 7.975 0 0 0 2.467-1.043 5.358 5.358 0 0 0 1.734-1.818 5.149 5.149 0 0 0 .648-2.636 5.591 5.591 0 0 0-.324-2 4.3 4.3 0 0 0-.888-1.438 4.127 4.127 0 0 0-1.325-.93 6.64 6.64 0 0 0-1.607-.479v-.172a4.8 4.8 0 0 0 1.635-.691c.428-.288.801-.65 1.1-1.071.283-.405.488-.86.606-1.339.122-.48.183-.972.184-1.466a4.386 4.386 0 0 0-.621-2.425zm-7.091 14.59l-.733-.028c-.235-.01-.456-.023-.662-.042a1.728 1.728 0 0 1-.447-.085v-5.385h2.058a13 13 0 0 1 1.466.084c.46.048.909.175 1.325.377.385.187.715.47.958.823.267.435.394.941.367 1.451a2.45 2.45 0 0 1-.31 1.256c-.204.35-.483.65-.818.879a3.6 3.6 0 0 1-1.17.516 5.55 5.55 0 0 1-1.367.167c-.19 0-.413-.004-.667-.013zM9.15 26.033v-5.217a8.7 8.7 0 0 1 .958-.083 30.14 30.14 0 0 1 1.353-.028c.416-.001.832.036 1.241.112.373.066.73.198 1.057.39.308.184.565.443.747.753.2.367.298.782.282 1.2a2.212 2.212 0 0 1-.775 1.757 5.12 5.12 0 0 1-1.847 1 8.122 8.122 0 0 1-.86.084c-.348.019-.653.028-.916.028H9.15v.004zm13.64 11.446h3.86v-8.091l2.032.362 4.483 7.725h4.454l-4.511-7.525-1.381-.874a5.812 5.812 0 0 0 3.017-2.114 6.468 6.468 0 0 0 1.127-3.947 5.322 5.322 0 0 0-.634-2.72 4.678 4.678 0 0 0-1.687-1.705 7.425 7.425 0 0 0-2.4-.874 14.59 14.59 0 0 0-2.72-.254c-.395 0-.828.01-1.3.028-.472.019-.956.047-1.452.085-.498.038-.996.09-1.494.155s-.965.136-1.4.211v19.538h.006zm8.232-15.858c.541.515.83 1.241.79 1.987a2.862 2.862 0 0 1-.959 2.425c-.75.522-1.652.78-2.565.733H26.65v-5.723c.291-.068.589-.106.888-.113a23.74 23.74 0 0 1 1.17-.028c.834-.06 1.66.197 2.314.719zm9.444 15.858h11.841v-3.44h-7.978v-4.821h7.132v-3.439h-7.132v-4.6h7.837v-3.435h-11.7v19.735zm26.726 0h4.058l-7.1-19.876H61.3l-7.105 19.875h3.863l1.494-4.37h6.061l1.579 4.371zm-5.216-11.841l.592-3.129h.141l.592 3.1 1.466 4.4h-4.228l1.437-4.371zm22.385 11.841h4.764l-6.569-9.275-1.578-1.1 1.522-1.071 5.75-8.289h-4.4l-5.441 8.345-.9.395v-8.74H73.65v19.735h3.862V29.05h1.015l5.834 8.429zm7.47 0h11.841v-3.44h-7.978v-4.821h7.132v-3.439h-7.132v-4.6h7.837v-3.435h-11.7v19.735zm15.421 0h3.862v-8.091l2.03.362 4.483 7.725h4.454l-4.511-7.525-1.381-.874a5.81 5.81 0 0 0 3.016-2.114 6.461 6.461 0 0 0 1.128-3.947 5.322 5.322 0 0 0-.634-2.72 4.678 4.678 0 0 0-1.692-1.706 7.442 7.442 0 0 0-2.4-.874 14.592 14.592 0 0 0-2.721-.254 37.985 37.985 0 0 0-2.752.113c-.497.038-1 .089-1.494.155a40.33 40.33 0 0 0-1.4.211v19.539h.012zm8.232-15.858c.54.515.83 1.241.789 1.987a2.861 2.861 0 0 1-.958 2.425c-.75.523-1.653.78-2.566.733h-1.635v-5.723a4.4 4.4 0 0 1 .888-.113 23.77 23.77 0 0 1 1.17-.028c.834-.06 1.66.197 2.312.719zm10.572 5.4l.733 4.6h2.312l.732-4.6v-9.277h-3.777v9.277zm.225 10.177a2.27 2.27 0 0 0 1.635.592 2.351 2.351 0 0 0 1.692-.592c.421-.414.647-.989.62-1.579a2.037 2.037 0 0 0-.62-1.565 2.387 2.387 0 0 0-1.692-.578 2.3 2.3 0 0 0-1.635.578 2.037 2.037 0 0 0-.62 1.565 2.08 2.08 0 0 0 .62 1.578v.001z" fill="#FFF" fill-rule="evenodd"/></svg>