<?xml version="1.0" encoding="UTF-8"?>
<svg width="135px" height="42px" viewBox="0 0 135 42" version="1.1" xmlns="http://www.w3.org/2000/svg" xmlns:xlink="http://www.w3.org/1999/xlink">
    <!-- Generator: Sketch 53.1 (72631) - https://sketchapp.com -->
    <title>135_42</title>
    <desc>Created with Sketch.</desc>
    <g id="135_42" stroke="none" stroke-width="1" fill="none" fill-rule="evenodd">
        <g id="Logo_CBR" transform="translate(4.000000, 4.000000)" fill="#FFFFFF">
            <path d="M7.502,7.999 C7.26686698,8.138305 7.01434473,8.24590436 6.751,8.319 C6.40618476,8.40956943 6.05042951,8.45164077 5.694,8.444 C5.28893426,8.45242688 4.88721989,8.36900705 4.519,8.2 C4.18617732,8.04234533 3.8952847,7.80832925 3.67,7.517 C3.43186667,7.2014658 3.25946417,6.84135881 3.163,6.458 C3.04696893,6.00971181 2.99081414,5.54803198 2.996,5.085 C2.92236381,4.17883346 3.17019174,3.27567766 3.696,2.534 C4.15592505,1.9893677 4.84061357,1.68629072 5.553,1.712 C5.90893798,1.70797638 6.26465706,1.73137895 6.617,1.782 C6.87899144,1.81933126 7.13426383,1.89409442 7.375,2.004 L7.75,0.391 C7.44181945,0.272818705 7.12303161,0.184415355 6.798,0.127 C6.33180163,0.0462316261 5.85909243,0.00907105863 5.386,0.016 C4.85625469,0.0176780307 4.33021898,0.104450289 3.828,0.273 C3.3009763,0.449479941 2.81901237,0.739272702 2.416,1.122 C1.96422411,1.56069049 1.61313005,2.09227897 1.387,2.68 C1.10033588,3.44677074 0.964513638,4.26170418 0.987,5.08 C0.967754899,5.87597665 1.08755157,6.66920659 1.341,7.424 C1.54194955,8.01042355 1.8670056,8.54661255 2.294,8.996 C2.68088263,9.39171709 3.15478634,9.69167349 3.678,9.872 C4.21297432,10.0545309 4.77475205,10.1461324 5.34,10.143 C5.81406926,10.143747 6.2870462,10.0975213 6.752,10.005 C7.1578412,9.93494432 7.54428908,9.77988807 7.886,9.55 L7.502,7.999 Z M8.378,6.75 L11.87,6.75 L11.87,5.15 L8.378,5.15 L8.378,6.75 Z M20.02,8.002 C19.784867,8.141305 19.5323447,8.24890436 19.269,8.322 C18.9241848,8.41256943 18.5684295,8.45464077 18.212,8.447 C17.8069343,8.45542688 17.4052199,8.37200705 17.037,8.203 C16.7041773,8.04534533 16.4132847,7.81132925 16.188,7.52 C15.9498667,7.2044658 15.7774642,6.84435881 15.681,6.461 C15.5649689,6.01271181 15.5088141,5.55103198 15.514,5.088 C15.4403638,4.18183346 15.6881917,3.27867766 16.214,2.537 C16.6739251,1.9923677 17.3586136,1.68929072 18.071,1.715 C18.426938,1.71097638 18.7826571,1.73437895 19.135,1.785 C19.3969914,1.82233126 19.6522638,1.89709442 19.893,2.007 L20.269,0.394 C19.9604298,0.275960273 19.6413239,0.187561573 19.316,0.13 C18.8498016,0.0492316261 18.3770924,0.0120710586 17.904,0.019 C17.3742547,0.0206780307 16.848219,0.107450289 16.346,0.276 C15.8189763,0.452479941 15.3370124,0.742272702 14.934,1.125 C14.4822241,1.56369049 14.13113,2.09527897 13.905,2.683 C13.6183359,3.44977074 13.4825136,4.26470418 13.505,5.083 C13.4857549,5.87897665 13.6055516,6.67220659 13.859,7.427 C14.0599495,8.01342355 14.3850056,8.54961255 14.812,8.999 C15.1988826,9.39471709 15.6727863,9.69467349 16.196,9.875 C16.7309743,10.0575309 17.292752,10.1491324 17.858,10.146 C18.3320693,10.146747 18.8050462,10.1005213 19.27,10.008 C19.6758412,9.93794432 20.0622891,9.78288807 20.404,9.553 L20.02,8.002 Z M20.896,6.75 L24.388,6.75 L24.388,5.15 L20.896,5.15 L20.896,6.75 Z M32.538,8.002 C32.302867,8.141305 32.0503447,8.24890436 31.787,8.322 C31.4421848,8.41256943 31.0864295,8.45464077 30.73,8.447 C30.3249343,8.45542688 29.9232199,8.37200705 29.555,8.203 C29.2221773,8.04534533 28.9312847,7.81132925 28.706,7.52 C28.4678667,7.2044658 28.2954642,6.84435881 28.199,6.461 C28.0829689,6.01271181 28.0268141,5.55103198 28.032,5.088 C27.9583638,4.18183346 28.2061917,3.27867766 28.732,2.537 C29.1919251,1.9923677 29.8766136,1.68929072 30.589,1.715 C30.944938,1.71097638 31.3006571,1.73437895 31.653,1.785 C31.9149914,1.82233126 32.1702638,1.89709442 32.411,2.007 L32.787,0.394 C32.4784298,0.275960273 32.1593239,0.187561573 31.834,0.13 C31.3678016,0.0492316261 30.8950924,0.0120710586 30.422,0.019 C29.8922547,0.0206780307 29.366219,0.107450289 28.864,0.276 C28.3369763,0.452479941 27.8550124,0.742272702 27.452,1.125 C27.0002241,1.56369049 26.64913,2.09527897 26.423,2.683 C26.1363359,3.44977074 26.0005136,4.26470418 26.023,5.083 C26.0037549,5.87897665 26.1235516,6.67220659 26.377,7.427 C26.5779495,8.01342355 26.9030056,8.54961255 27.33,8.999 C27.7168826,9.39471709 28.1907863,9.69467349 28.714,9.875 C29.2489743,10.0575309 29.810752,10.1491324 30.376,10.146 C30.8500693,10.146747 31.3230462,10.1005213 31.788,10.008 C32.1938412,9.93794432 32.5802891,9.78288807 32.922,9.553 L32.538,8.002 Z M33.938,7.154 C34.0837341,7.73172405 34.3412515,8.27529653 34.696,8.754 C35.0331218,9.19833055 35.475373,9.55192532 35.983,9.783 C36.5612388,10.0362388 37.1879128,10.1597988 37.819,10.145 C38.9864433,10.2101534 40.1167938,9.72365469 40.872,8.831 C41.6552237,7.74454022 42.0363155,6.4195567 41.95,5.083 C41.9574046,4.38432318 41.8730164,3.68769966 41.699,3.011 C41.5526602,2.43220097 41.2926108,1.88830694 40.934,1.411 C40.5932122,0.967837775 40.1493542,0.614605092 39.641,0.382 C39.0673843,0.129743753 38.44548,0.00618208662 37.819,0.02 C36.6489556,-0.0485090707 35.5150467,0.438404776 34.759,1.334 C33.9793205,2.42227052 33.6008492,3.74709671 33.688,5.083 C33.6823392,5.78018115 33.7680692,6.47509793 33.943,7.15 L33.938,7.154 Z M36.25,2.526 C36.8353488,1.71359999 37.9393152,1.47373859 38.809,1.97 C39.0846439,2.14881036 39.3098184,2.39533161 39.463,2.686 C39.6405038,3.02173902 39.7646571,3.38306562 39.831,3.757 C39.9126769,4.19253442 39.9525249,4.63488041 39.95,5.078 C40.0199635,5.97168318 39.8263057,6.86626393 39.393,7.651 C39.0419889,8.16954646 38.4476568,8.46954983 37.822,8.444 C37.4847938,8.45315698 37.151908,8.36646797 36.862,8.194 C36.5865684,8.01964772 36.3592939,7.77896372 36.201,7.494 C36.0168511,7.16237672 35.8878352,6.80302352 35.819,6.43 C35.7321195,5.98331353 35.6902434,5.52904166 35.694,5.074 C35.6296475,4.18881403 35.8227424,3.30391156 36.25,2.526 Z M51.218,9.95 L53.124,9.95 L53.124,0.21 L51.399,0.21 L48.937,4.633 L48.52,5.774 L48.464,5.774 L48.005,4.661 L45.405,0.21 L43.666,0.21 L43.666,9.95 L45.475,9.95 L45.475,4.883 L45.196,2.964 L45.266,2.964 L45.878,4.508 L48.062,8.152 L48.674,8.152 L50.746,4.522 L51.346,2.964 L51.43,2.964 L51.221,4.897 L51.221,9.95 L51.218,9.95 Z M61.385,1.285 C61.1834868,0.972147072 60.9030661,0.717940397 60.572,0.548 C60.2092316,0.363973582 59.8192685,0.239387956 59.417,0.179 C58.9777161,0.110239343 58.5336274,0.0767989356 58.089,0.079 C57.8223333,0.079 57.551,0.0836666667 57.275,0.093 C56.999,0.102333333 56.7323333,0.116333333 56.475,0.135 C56.216,0.154 55.975,0.177 55.745,0.204 C55.515,0.231 55.316,0.26 55.14,0.288 L55.14,9.888 C55.4036372,9.94716382 55.6708809,9.98892064 55.94,10.013 C56.232,10.041 56.5193333,10.062 56.802,10.076 C57.0846667,10.09 57.349,10.097 57.595,10.097 L58.195,10.097 C58.6683435,10.0980107 59.1400819,10.0419393 59.6,9.93 C60.0317975,9.82816481 60.4432651,9.65404333 60.817,9.415 C61.1696827,9.18746252 61.4628359,8.87888019 61.672,8.515 C61.8933731,8.11822643 62.0039038,7.66919557 61.992,7.215 C61.9995966,6.87864901 61.9453639,6.54376224 61.832,6.227 C61.7351016,5.96364736 61.5861378,5.7225165 61.394,5.518 C61.212432,5.32090506 60.9935318,5.16182853 60.75,5.05 C60.4970579,4.93811525 60.2309279,4.8588139 59.958,4.814 L59.958,4.73 C60.245577,4.66757841 60.5189431,4.55192352 60.764,4.389 C60.9755923,4.24706701 61.1595897,4.06781355 61.307,3.86 C61.4464822,3.65981045 61.5481565,3.43578805 61.607,3.199 C61.6664293,2.96258274 61.6966547,2.7197721 61.697,2.476 C61.7114081,2.05580308 61.6029834,1.64052232 61.385,1.281 L61.385,1.285 Z M57.885,8.485 L57.524,8.471 C57.407,8.471 57.299,8.459 57.197,8.45 C57.1211802,8.44625854 57.0461923,8.43247152 56.974,8.409 L56.974,5.75 L57.99,5.75 C58.2315795,5.7500507 58.4729635,5.76373914 58.713,5.791 C58.9401404,5.81458618 59.1614426,5.87752534 59.367,5.977 C59.5566725,6.06942641 59.7192568,6.20927647 59.839,6.383 C59.9707739,6.59769327 60.0339175,6.84747691 60.02,7.099 C60.0256375,7.3156602 59.9727844,7.52983584 59.867,7.719 C59.767607,7.89161765 59.6309543,8.03988583 59.467,8.153 C59.2913725,8.27165674 59.0959746,8.35801108 58.89,8.408 C58.6693314,8.46365233 58.4425775,8.49153466 58.215,8.491 C58.121,8.48766667 58.0116667,8.48366667 57.887,8.479 L57.885,8.485 Z M56.974,4.305 L56.974,1.725 C57.1307857,1.70258409 57.2886957,1.68889633 57.447,1.684 C57.647,1.675 57.873,1.67 58.115,1.67 C58.3202666,1.6692595 58.5251545,1.68767263 58.727,1.725 C58.9107482,1.75788977 59.0871698,1.82324363 59.248,1.918 C59.400272,2.00906509 59.5271708,2.13699564 59.617,2.29 C59.7156123,2.47128671 59.7636242,2.67576924 59.756,2.882 C59.7672433,3.21428746 59.6262137,3.53353724 59.373,3.749 C59.1074197,3.97722199 58.797141,4.14751767 58.462,4.249 C58.3215018,4.27024094 58.179965,4.28392728 58.038,4.29 C57.866,4.299 57.716,4.304 57.586,4.304 L56.974,4.304 L56.974,4.305 Z M63.65,7.15 C63.7961479,7.72757533 64.0536288,8.27107045 64.408,8.75 C64.7455723,9.19389111 65.1877025,9.54738916 65.695,9.779 C66.2732388,10.0322388 66.8999128,10.1557988 67.531,10.141 C68.6984993,10.2064698 69.828985,9.71991288 70.584,8.827 C71.3672237,7.74054022 71.7483155,6.4155567 71.662,5.079 C71.6692142,4.38039555 71.5851703,3.68383991 71.412,3.007 C71.2656602,2.42820097 71.0056108,1.88430694 70.647,1.407 C70.3056128,0.964023128 69.8614837,0.61084775 69.353,0.378 C68.7794137,0.125650489 68.1574885,0.00208467228 67.531,0.016 C66.3609836,-0.0523495085 65.2271431,0.434534943 64.471,1.33 C63.6920747,2.41863467 63.3136819,3.74318591 63.4,5.079 C63.3923564,5.77729846 63.4764077,6.47357937 63.65,7.15 L63.65,7.15 Z M65.959,2.525 C66.5443488,1.71259999 67.6483152,1.47273859 68.518,1.969 C68.7936439,2.14781036 69.0188184,2.39433161 69.172,2.685 C69.3494203,3.02086705 69.4738881,3.38212753 69.541,3.756 C69.6218329,4.19163658 69.6613416,4.63393376 69.659,5.077 C69.7286779,5.97054413 69.5354054,6.86495113 69.103,7.65 C68.7516671,8.16870724 68.1569642,8.46870688 67.531,8.443 C67.1937938,8.45215698 66.860908,8.36546797 66.571,8.193 C66.2956321,8.01888465 66.0686303,7.77812516 65.911,7.493 C65.7261441,7.16160186 65.5967677,6.80218551 65.528,6.429 C65.4416135,5.98224304 65.3997419,5.52802066 65.403,5.073 C65.3394524,4.18795146 65.5332385,3.30341191 65.961,2.526 L65.959,2.525 Z" id="C-c-combo"></path>
            <path d="M14.083,15.915 C13.6736611,15.2808117 13.1045949,14.7655481 12.433,14.421 C11.6979972,14.0483906 10.9079469,13.7961822 10.093,13.674 C9.20273745,13.5319219 8.30252698,13.4613631 7.401,13.463 C6.85566667,13.463 6.306,13.4723333 5.752,13.491 C5.198,13.5096667 4.65766667,13.538 4.131,13.576 C3.60433333,13.614 3.111,13.661 2.651,13.717 C2.191,13.773 1.782,13.8293333 1.424,13.886 L1.424,33.338 C1.95819552,33.4580339 2.4996923,33.5428828 3.045,33.592 C3.637,33.6486667 4.21966667,33.691 4.793,33.719 C5.36633333,33.747 5.902,33.761 6.4,33.761 L7.627,33.761 C8.58613785,33.7632079 9.54204101,33.6497217 10.474,33.423 C11.3492526,33.2168982 12.1833469,32.8642592 12.941,32.38 C13.6549148,31.9199905 14.2492521,31.2968617 14.675,30.562 C15.1228913,29.7571115 15.3466679,28.8468105 15.323,27.926 C15.3377031,27.2451648 15.2279005,26.5673714 14.999,25.926 C14.8010413,25.3926432 14.4992123,24.9038706 14.111,24.488 C13.7350586,24.0935691 13.2847303,23.7774897 12.786,23.558 C12.2727279,23.3310643 11.7327564,23.1701145 11.179,23.079 L11.179,22.907 C11.7622192,22.7803155 12.316698,22.5459762 12.814,22.216 C13.2424314,21.9284765 13.6151353,21.5655985 13.914,21.145 C14.1966285,20.7397334 14.4020665,20.2858036 14.52,19.806 C14.6416676,19.3268125 14.7034721,18.834392 14.704,18.34 C14.7369656,17.4885041 14.5211754,16.6458449 14.083,15.915 Z M6.992,30.505 L6.259,30.477 C6.02366667,30.4676667 5.803,30.4536667 5.597,30.435 C5.44490473,30.4264933 5.29460204,30.3979123 5.15,30.35 L5.15,24.965 L7.208,24.965 C7.697859,24.9653571 8.18730625,24.9934018 8.674,25.049 C9.13420344,25.0967942 9.58256817,25.2243666 9.999,25.426 C10.383831,25.6133289 10.7138043,25.8968028 10.957,26.249 C11.2235146,26.6843141 11.3514986,27.1903215 11.324,27.7 C11.3350161,28.1388742 11.2279532,28.5726517 11.014,28.956 C10.8099999,29.3061158 10.5305652,29.6063885 10.196,29.835 C9.83991711,30.0754415 9.44366739,30.2501978 9.026,30.351 C8.57903376,30.463204 8.11983279,30.5193025 7.659,30.518 C7.46833333,30.518 7.246,30.5136667 6.992,30.505 Z M5.15,22.033 L5.15,16.816 C5.46755901,16.7706934 5.78738072,16.7429845 6.108,16.733 C6.52133333,16.7143333 6.97233333,16.705 7.461,16.705 C7.87725043,16.7036386 8.29271926,16.7411346 8.702,16.817 C9.07472636,16.8830931 9.43266929,17.0151628 9.759,17.207 C10.06735,17.3912018 10.3242709,17.6501863 10.506,17.96 C10.7066315,18.3271982 10.8040804,18.7418745 10.788,19.16 C10.810615,19.8331094 10.52534,20.4798554 10.013,20.917 C9.4730535,21.3743885 8.84415634,21.7148851 8.166,21.917 C7.88102692,21.9602401 7.59395409,21.9882797 7.306,22.001 C6.958,22.0196667 6.65266667,22.029 6.39,22.029 L5.15,22.029 L5.15,22.033 Z M18.79,33.479 L22.65,33.479 L22.65,25.388 L24.682,25.75 L29.165,33.475 L33.619,33.475 L29.108,25.95 L27.727,25.076 C28.9352944,24.7171282 29.9941737,23.9751756 30.744,22.962 C31.5382523,21.8035964 31.9338479,20.4181342 31.871,19.015 C31.9055804,18.0680597 31.6867102,17.1290579 31.237,16.295 C30.8323989,15.589713 30.2509533,15.0020634 29.55,14.59 C28.8064912,14.1622215 27.9944794,13.8665138 27.15,13.716 C26.2532727,13.5464507 25.3426152,13.4614113 24.43,13.462 C24.0353333,13.462 23.602,13.4713333 23.13,13.49 C22.658,13.5086667 22.174,13.537 21.678,13.575 C21.18,13.613 20.682,13.6646667 20.184,13.73 C19.686,13.7953333 19.2193333,13.8656667 18.784,13.941 L18.784,33.479 L18.79,33.479 Z M27.022,17.621 C27.5632665,18.1359157 27.8519473,18.8620028 27.812,19.608 C27.9005568,20.5234695 27.54375,21.4257182 26.853,22.033 C26.1031174,22.555384 25.2006741,22.8132752 24.288,22.766 L22.65,22.766 L22.65,17.043 C22.9413603,16.9750846 23.238916,16.93722 23.538,16.93 C23.9226667,16.9113333 24.3126667,16.902 24.708,16.902 C25.5423365,16.8418717 26.3686577,17.098624 27.022,17.621 L27.022,17.621 Z M36.466,33.479 L48.307,33.479 L48.307,30.039 L40.329,30.039 L40.329,25.218 L47.461,25.218 L47.461,21.779 L40.329,21.779 L40.329,17.179 L48.166,17.179 L48.166,13.744 L36.466,13.744 L36.466,33.479 Z M63.192,33.479 L67.25,33.479 L60.15,13.603 L57.3,13.603 L50.195,33.478 L54.058,33.478 L55.552,29.108 L61.613,29.108 L63.192,33.479 Z M57.976,21.638 L58.568,18.509 L58.709,18.509 L59.301,21.609 L60.767,26.009 L56.539,26.009 L57.976,21.638 Z M80.361,33.479 L85.125,33.479 L78.556,24.204 L76.978,23.104 L78.5,22.033 L84.25,13.744 L79.85,13.744 L74.409,22.089 L73.509,22.484 L73.509,13.744 L69.65,13.744 L69.65,33.479 L73.512,33.479 L73.512,25.05 L74.527,25.05 L80.361,33.479 Z M87.831,33.479 L99.672,33.479 L99.672,30.039 L91.694,30.039 L91.694,25.218 L98.826,25.218 L98.826,21.779 L91.694,21.779 L91.694,17.179 L99.531,17.179 L99.531,13.744 L87.831,13.744 L87.831,33.479 Z M103.252,33.479 L107.114,33.479 L107.114,25.388 L109.144,25.75 L113.627,33.475 L118.081,33.475 L113.57,25.95 L112.189,25.076 C113.396992,24.7170666 114.455535,23.9751044 115.205,22.962 C116.000072,21.8039383 116.396068,20.4183067 116.333,19.015 C116.36758,18.0680597 116.14871,17.1290579 115.699,16.295 C115.293153,15.5887178 114.709914,15.000653 114.007,14.589 C113.263346,14.1615328 112.45139,13.8658454 111.607,13.715 C110.709943,13.5454 109.798949,13.4603605 108.886,13.461 C108.492,13.461 108.059,13.471 107.586,13.489 C107.113,13.507 106.631,13.536 106.134,13.574 C105.637,13.612 105.134,13.663 104.64,13.729 C104.146,13.795 103.676,13.866 103.24,13.94 L103.24,33.479 L103.252,33.479 Z M111.484,17.621 C112.024899,18.136096 112.313205,18.8621588 112.273,19.608 C112.361971,20.5233229 112.005519,21.4256156 111.315,22.033 C110.564809,22.5555287 109.662002,22.8134233 108.749,22.766 L107.114,22.766 L107.114,17.043 C107.405389,16.975243 107.702928,16.9373805 108.002,16.93 C108.387,16.911 108.778,16.902 109.172,16.902 C110.005652,16.8424836 110.831131,17.099196 111.484,17.621 L111.484,17.621 Z M122.056,23.021 L122.789,27.621 L125.101,27.621 L125.833,23.021 L125.833,13.744 L122.056,13.744 L122.056,23.019 L122.056,23.021 Z M122.281,33.198 C122.725819,33.6045273 123.314027,33.8175051 123.916,33.79 C124.53605,33.8238662 125.144316,33.6110449 125.608,33.198 C126.02944,32.7835406 126.254846,32.2094807 126.228,31.619 C126.256627,31.0323439 126.03063,30.4618836 125.608,30.054 C125.140185,29.6493978 124.533584,29.4421783 123.916,29.476 C123.31646,29.4479563 122.729708,29.6553831 122.281,30.054 C121.85837,30.4618836 121.632373,31.0323439 121.661,31.619 C121.634441,32.2091382 121.859825,32.7827773 122.281,33.197 L122.281,33.198 Z" id="Breaker_"></path>
        </g>
    </g>
</svg>