<svg width="17" height="15" viewBox="0 0 17 15" fill="none" xmlns="http://www.w3.org/2000/svg"><path fill-rule="evenodd" clip-rule="evenodd" d="M12.969 8.313a1.22 1.22 0 0 1 1.219 1.218v2.438a1.22 1.22 0 0 1-1.22 1.219h-2.437a1.22 1.22 0 0 1-1.219-1.22V9.532a1.22 1.22 0 0 1 1.22-1.219h2.437zm-6.5 0A1.22 1.22 0 0 1 7.687 9.53v2.438a1.22 1.22 0 0 1-1.218 1.219H4.03a1.22 1.22 0 0 1-1.218-1.22V9.532a1.22 1.22 0 0 1 1.218-1.22h2.44zm0-6.5A1.22 1.22 0 0 1 7.687 3.03v2.44A1.22 1.22 0 0 1 6.47 6.687H4.03A1.22 1.22 0 0 1 2.813 5.47V3.03A1.22 1.22 0 0 1 4.03 1.812h2.44zm6.5 0a1.22 1.22 0 0 1 1.219 1.218V5.47a1.22 1.22 0 0 1-1.22 1.218h-2.437A1.22 1.22 0 0 1 9.312 5.47V3.03a1.22 1.22 0 0 1 1.22-1.219h2.437z" fill="#fff"/></svg>