<svg width="37" height="31" viewBox="0 0 37 31" fill="none" xmlns="http://www.w3.org/2000/svg"><path d="M7.963 19.013h8.011l1.2 3.07c.047.124.132.251.255.382.123.13.338.196.646.196h.855c.138 0 .257-.05.357-.15.1-.1.15-.22.15-.358a.873.873 0 0 0-.092-.323L13.712 7.262a1.989 1.989 0 0 0-.346-.508c-.154-.17-.385-.254-.693-.254h-1.385c-.308 0-.54.085-.693.254-.154.17-.27.339-.346.508L4.592 21.83a.874.874 0 0 0-.092.323c0 .139.05.258.15.358.1.1.22.15.358.15h.854c.308 0 .523-.065.647-.196.123-.131.207-.258.254-.381l1.2-3.07zm7.203-2.078H8.771l3.21-8.242 3.185 8.242zm9.206 3.142h5.675l.85 2.175a.83.83 0 0 0 .18.27c.088.093.24.14.458.14h.605a.346.346 0 0 0 .254-.107.346.346 0 0 0 .106-.254.62.62 0 0 0-.065-.229l-3.99-10.319a1.413 1.413 0 0 0-.246-.36c-.109-.12-.272-.18-.49-.18h-.982c-.218 0-.381.06-.49.18a1.4 1.4 0 0 0-.246.36l-4.006 10.32a.62.62 0 0 0-.066.228c0 .098.036.183.107.254.07.07.155.106.253.106h.605c.218 0 .371-.046.458-.139a.832.832 0 0 0 .18-.27l.85-2.175zm5.103-1.472h-4.53l2.273-5.838 2.257 5.838z" filter="url(#a)" fill-rule="evenodd" clip-rule="evenodd" fill="#fff"/><defs><filter id="a" x=".5" y="6.5" width="36" height="24.161" filterUnits="userSpaceOnUse" color-interpolation-filters="sRGB"><feFlood flood-opacity="0" result="BackgroundImageFix"/><feColorMatrix in="SourceAlpha" values="0 0 0 0 0 0 0 0 0 0 0 0 0 0 0 0 0 0 127 0"/><feOffset dy="4"/><feGaussianBlur stdDeviation="2"/><feColorMatrix values="0 0 0 0 0 0 0 0 0 0 0 0 0 0 0 0 0 0 0.25 0"/><feBlend in2="BackgroundImageFix" result="effect1_dropShadow"/><feBlend in="SourceGraphic" in2="effect1_dropShadow" result="shape"/></filter></defs></svg>