<svg width="17" height="15" viewBox="0 0 17 15" fill="none" xmlns="http://www.w3.org/2000/svg"><mask id="a" maskUnits="userSpaceOnUse" x="0" y="1" width="17" height="14"><path fill-rule="evenodd" clip-rule="evenodd" d="M.985 1h16v13.982h-16V1z" fill="#fff"/></mask><g mask="url(#a)"><path fill-rule="evenodd" clip-rule="evenodd" d="M10.648 7.334a.63.63 0 0 1-.619-.642.63.63 0 0 1 .619-.641.63.63 0 0 1 .618.641.63.63 0 0 1-.618.642zm1.735-.741c-1.597-3.314-4.692-2.59-4.692-2.59L7.192 1s-.699 1.243-2.496 4.246A7.93 7.93 0 0 1 2 7v7.983h4.992l1.797-3.729s0 .104 4.293 0c4.292-.621 3.893-3.935 3.893-3.935l-4.592-.725z" fill="#fff"/></g></svg>