<svg width="33" height="30" viewBox="0 0 33 30" fill="none" xmlns="http://www.w3.org/2000/svg"><rect opacity=".9" width="33" height="30" rx="2" fill="url(#a)"/><path d="M6.287 14.443c1.944-1.09 4.113-1.998 6.14-2.911 3.489-1.496 6.99-2.966 10.527-4.334.688-.233 1.925-.461 2.046.576-.066 1.467-.34 2.926-.527 4.386-.475 3.209-1.025 6.407-1.56 9.605-.185 1.065-1.498 1.617-2.338.935-2.018-1.386-4.052-2.759-6.044-4.177-.653-.675-.048-1.643.535-2.125 1.662-1.665 3.425-3.08 5-4.832.426-1.044-.83-.165-1.244.105-2.276 1.595-4.496 3.287-6.895 4.688-1.226.686-2.654.1-3.88-.283-1.098-.463-2.707-.928-1.76-1.633z" fill="#fff"/><defs><linearGradient id="a" x1="10.881" y1="-29.836" x2="-39.921" y2="25.286" gradientUnits="userSpaceOnUse"><stop stop-color="#42C3FB"/><stop offset="1" stop-color="#1E96C8"/></linearGradient></defs></svg>