<svg width="131" height="42" viewBox="0 0 131 42" xmlns="http://www.w3.org/2000/svg"><title>svg/header/Ostrog_logo</title><path d="M39.06 17.92c0-2.252 1.449-3.713 4.175-3.713h6.172c2.726 0 4.175 1.46 4.175 3.713v7.131c0 2.252-1.45 3.713-4.175 3.713h-6.172c-2.726 0-4.175-1.46-4.175-3.713V17.92zm3.577 7.131a1.7 1.7 0 0 0 .491 1.235 1.67 1.67 0 0 0 1.226.495h3.93c.458.01.9-.168 1.225-.495a1.7 1.7 0 0 0 .492-1.235V17.92a1.7 1.7 0 0 0-.492-1.235 1.673 1.673 0 0 0-1.225-.495h-3.925a1.672 1.672 0 0 0-1.226.495 1.698 1.698 0 0 0-.49 1.235v7.131h-.006zm57.515-7.131c0-2.252 1.449-3.713 4.176-3.713h6.171c2.726 0 4.175 1.46 4.175 3.713v7.131c0 2.252-1.449 3.713-4.175 3.713h-6.171c-2.727 0-4.176-1.46-4.176-3.713V17.92zm3.577 7.131a1.7 1.7 0 0 0 .491 1.235c.325.327.768.506 1.226.495h3.93c.458.011.9-.168 1.225-.495.324-.326.502-.773.491-1.235V17.92a1.698 1.698 0 0 0-.491-1.235 1.672 1.672 0 0 0-1.226-.495h-3.929a1.672 1.672 0 0 0-1.226.495 1.698 1.698 0 0 0-.49 1.235v7.131zM58.213 21.99c-1.965-.472-3.192-1.73-3.192-3.836v.015c0-2.253 1.45-3.713 4.175-3.713h7.997v1.111l-.736.865h-6.14a1.672 1.672 0 0 0-1.226.495 1.698 1.698 0 0 0-.491 1.235v-.007a1.789 1.789 0 0 0 1.474 1.73l5.54 1.113c1.966.472 3.193 1.73 3.193 3.836v-.031c0 2.252-1.449 3.713-4.175 3.713h-8.73v-1.978h7.614c.459.01.901-.169 1.226-.496a1.7 1.7 0 0 0 .491-1.234v.031a1.789 1.789 0 0 0-1.474-1.73l-5.546-1.12zm10.458-7.534h13.89v1.111l-.736.865h-4.42v12.085h-3.578v-12.08h-5.158v-1.98h.002zm15.635 14.061v-14.06h9.856c2.725 0 4.175 1.46 4.175 3.712v1.718a3.17 3.17 0 0 1-1.717 2.846 5.477 5.477 0 0 1-1.717.619l3.428 3.932v1.238h-2.83l-4.175-4.918h-3.439v4.918h-3.576l-.005-.005zm3.576-6.898h5.158c.459.01.901-.168 1.226-.495.324-.327.502-.773.491-1.235v-1.72a1.698 1.698 0 0 0-.491-1.235 1.672 1.672 0 0 0-1.226-.495h-5.158v5.184-.004zm35.837.99v-1.98h7.261v7.888h-10.097c-2.726 0-4.175-1.46-4.175-3.713v-6.635c0-2.253 1.45-3.713 4.175-3.713H131v1.111l-.737.865h-8.26a1.672 1.672 0 0 0-1.225.495 1.698 1.698 0 0 0-.491 1.235v6.637c-.01.462.167.908.491 1.235a1.67 1.67 0 0 0 1.226.495h5.403v-3.932h-3.684l-.004.012zM.005 10.155v19.188l4.513-1.1 2.552-5.636 2.731-.271 1.467-.145 2.03-.202.786-.079 9.014-.885v-.692H6.388v-2.47l1.676-.147.643-.057v.957h1.886v-1.125l2.575-.226.414-.036v1.387h1.887V17.06l3.459-.304v1.858h1.886V16.59l.684-.06 2.302-.203v2.288h1.886v-2.92H5.24v-1.22l9.513-5.26 2.488-1.377L28.928 14.3v1.392h-.84v4.705h-1.553l.918 2.257 5.29-1.365V10.26L17.236 0 .005 10.155zm17.232-3.032l-2.714-.976 2.714-1.25v2.226zM32.739 23.69v8.155l-2.176 1.283v-7.827l-2.296 2.595v6.581l-2.732 1.61v-9.668l-2.298 2.595v8.431l-2.731 1.607V27.54l-2.299 2.595v10.273L15.503 42l-.026-.017V28.658l-2.296 2.596v9.209l-2.732-1.81V29.78l-2.298 2.595v4.761l-2.731-1.81v-4.189l-2.298 2.595v.08L0 31.741l32.74-8.052z" fill="#FFF" fill-rule="evenodd"/></svg>