<?xml version="1.0" encoding="UTF-8"?>
<svg width="95px" height="15px" viewBox="0 0 95 15" version="1.1" xmlns="http://www.w3.org/2000/svg" xmlns:xlink="http://www.w3.org/1999/xlink">
    <!-- Generator: Sketch 53.1 (72631) - https://sketchapp.com -->
    <title>92_15</title>
    <desc>Created with Sketch.</desc>
    <g id="92_15" stroke="none" stroke-width="1" fill="none" fill-rule="evenodd">
        <g id="Logo_CBR" transform="translate(24.000000, 2.000000)" fill="#FFFFFF">
            <path d="M2.39713933,3.15125906 C2.31065595,3.20620551 2.21777671,3.24864622 2.12091689,3.27747753 C1.99409171,3.31320108 1.86324273,3.32979539 1.73214575,3.32678162 C1.58316007,3.33010546 1.43540704,3.29720195 1.29997349,3.23054004 C1.17755926,3.16835588 1.07056715,3.07605228 0.987706045,2.96114249 C0.900119134,2.83668548 0.83670843,2.6946475 0.801228312,2.54343824 C0.758551369,2.36661872 0.737897289,2.18451708 0.73980468,2.00188212 C0.712720834,1.64446039 0.80387348,1.2882262 0.997269006,0.995684261 C1.16643228,0.780863463 1.41826495,0.661319985 1.68028508,0.671460567 C1.81120127,0.66987352 1.94203695,0.679104259 2.07163086,0.699070857 C2.16799293,0.713795529 2.26188369,0.743284563 2.35042794,0.786634921 L2.48835526,0.150414948 C2.37500455,0.103800378 2.25775241,0.0689312047 2.13820378,0.0462847103 C1.96673313,0.0144270211 1.79286777,-0.000230322499 1.61886145,0.00250267867 C1.42401785,0.00316454889 1.23053867,0.0373903665 1.04581942,0.103871887 C0.851976847,0.173481349 0.674707534,0.287785096 0.526477095,0.438745264 C0.360311131,0.611779147 0.231176566,0.821455036 0.148004536,1.05327144 C0.0425677003,1.3557109 -0.00738855902,1.67714732 0.000882063885,1.99990996 C-0.00619640332,2.31386919 0.0378655533,2.62674503 0.131085452,2.92446025 C0.204995937,3.15576488 0.324553562,3.36725537 0.481604741,3.54450848 C0.623902563,3.70059225 0.798207279,3.81890486 0.990648495,3.89003154 C1.18741536,3.9620277 1.39404068,3.99815834 1.60194237,3.99692281 C1.77630797,3.99721747 1.95027181,3.9789845 2.12128469,3.94249109 C2.27055559,3.91485884 2.41269351,3.85369958 2.5383769,3.76302421 L2.39713933,3.15125906 Z M2.71933754,2.6586126 L4.00371672,2.6586126 L4.00371672,2.02752025 L2.71933754,2.02752025 L2.71933754,2.6586126 Z M7.00133709,3.15244236 C6.91485372,3.20738881 6.82197447,3.24982952 6.72511465,3.27866083 C6.59828947,3.31438438 6.46744049,3.33097869 6.33634352,3.32796492 C6.18735783,3.33128876 6.03960481,3.29838524 5.90417126,3.23172334 C5.78175702,3.16953918 5.67476492,3.07723557 5.59190381,2.96232579 C5.5043169,2.83786878 5.44090619,2.6958308 5.40542608,2.54462154 C5.36274913,2.36780201 5.34209505,2.18570038 5.34400244,2.00306542 C5.3169186,1.64564369 5.40807124,1.28940949 5.60146677,0.996867559 C5.77063005,0.782046762 6.02246271,0.662503284 6.28448285,0.672643865 C6.41539904,0.671056818 6.54623471,0.680287557 6.67582862,0.700254156 C6.7721907,0.714978828 6.86608146,0.744467861 6.95462571,0.787818219 L7.09292083,0.151598246 C6.9794268,0.105039516 6.86205767,0.070172176 6.74240154,0.0474680084 C6.5709309,0.0156103192 6.39706553,0.000952975653 6.22305922,0.00368597682 C6.02821562,0.00434784704 5.83473643,0.0385736647 5.65001719,0.105055185 C5.45617461,0.174664648 5.2789053,0.288968394 5.13067486,0.439928562 C4.96450889,0.612962446 4.83537433,0.822638334 4.7522023,1.05445474 C4.64676546,1.3568942 4.59680921,1.67833061 4.60507983,2.00109326 C4.59800136,2.31505249 4.64206332,2.62792833 4.73528322,2.92564355 C4.8091937,3.15694818 4.92875133,3.36843866 5.08580251,3.54569178 C5.22810033,3.70177554 5.40240504,3.82008816 5.59484626,3.89121484 C5.79161312,3.963211 5.99823844,3.99934164 6.20614013,3.9981061 C6.38050573,3.99840076 6.55446958,3.9801678 6.72548246,3.94367439 C6.87475336,3.91604214 7.01689128,3.85488288 7.14257467,3.7642075 L7.00133709,3.15244236 Z M7.32353531,2.6586126 L8.60791449,2.6586126 L8.60791449,2.02752025 L7.32353531,2.02752025 L7.32353531,2.6586126 Z M11.6055349,3.15244236 C11.5190515,3.20738881 11.4261722,3.24982952 11.3293124,3.27866083 C11.2024872,3.31438438 11.0716383,3.33097869 10.9405413,3.32796492 C10.7915556,3.33128876 10.6438026,3.29838524 10.508369,3.23172334 C10.3859548,3.16953918 10.2789627,3.07723557 10.1961016,2.96232579 C10.1085147,2.83786878 10.045104,2.6958308 10.0096238,2.54462154 C9.9669469,2.36780201 9.94629282,2.18570038 9.94820021,2.00306542 C9.92111636,1.64564369 10.012269,1.28940949 10.2056645,0.996867559 C10.3748278,0.782046762 10.6266605,0.662503284 10.8886806,0.672643865 C11.0195968,0.671056818 11.1504325,0.680287557 11.2800264,0.700254156 C11.3763885,0.714978828 11.4702792,0.744467861 11.5588235,0.787818219 L11.6971186,0.151598246 C11.5836246,0.105039516 11.4662554,0.070172176 11.3465993,0.0474680084 C11.1751287,0.0156103192 11.0012633,0.000952975653 10.827257,0.00368597682 C10.6324134,0.00434784704 10.4389342,0.0385736647 10.254215,0.105055185 C10.0603724,0.174664648 9.88310306,0.288968394 9.73487262,0.439928562 C9.56870666,0.612962446 9.43957209,0.822638334 9.35640006,1.05445474 C9.25096323,1.3568942 9.20100697,1.67833061 9.20927759,2.00109326 C9.20219913,2.31505249 9.24626108,2.62792833 9.33948098,2.92564355 C9.41339147,3.15694818 9.53294909,3.36843866 9.69000027,3.54569178 C9.83229809,3.70177554 10.0066028,3.82008816 10.199044,3.89121484 C10.3958109,3.963211 10.6024362,3.99934164 10.8103379,3.9981061 C10.9847035,3.99840076 11.1586673,3.9801678 11.3296802,3.94367439 C11.4789511,3.91604214 11.621089,3.85488288 11.7467724,3.7642075 L11.6055349,3.15244236 Z M12.1204635,2.81796341 C12.1740654,3.04583668 12.2687819,3.26023945 12.3992606,3.44905576 C12.5232561,3.62431427 12.6859188,3.76378361 12.8726271,3.85492703 C13.0853069,3.95481271 13.3158015,4.00354878 13.5479193,3.99771167 C13.9773122,4.02341029 14.393062,3.83151929 14.6708316,3.47942708 C14.9589061,3.0508918 15.099074,2.52827495 15.0673266,2.00109326 C15.0700501,1.72551226 15.0390116,1.45074115 14.9750073,1.18382867 C14.9211826,0.955531394 14.8255348,0.741001792 14.6936355,0.552736319 C14.5682917,0.377938639 14.405038,0.238612112 14.2180622,0.146865053 C14.0070828,0.0473669362 13.7783425,-0.00136982758 13.5479193,0.00408040954 C13.1175697,-0.0229418094 12.700511,0.169112942 12.4224324,0.522365 C12.1356614,0.951614497 11.9964574,1.47416929 12.028512,2.00109326 C12.0264299,2.27608431 12.0579619,2.55018223 12.1223025,2.81638568 L12.1204635,2.81796341 Z M12.9708314,0.992528799 C13.1861263,0.672091656 13.592172,0.577482473 13.9120474,0.773224208 C14.013431,0.843752863 14.0962515,0.94098891 14.1525927,1.05563803 C14.2178797,1.18806449 14.263544,1.33058352 14.2879453,1.47807547 C14.3179866,1.6498645 14.3326429,1.82434023 14.3317143,1.99912109 C14.3574473,2.35161898 14.2862187,2.70447089 14.1268462,3.01399648 C13.9977422,3.21852816 13.7791432,3.33685931 13.5490227,3.32678162 C13.4249962,3.33039343 13.3025587,3.29620045 13.1959288,3.22817344 C13.0946233,3.1594032 13.0110304,3.06446955 12.9528089,2.95207054 C12.8850778,2.82126747 12.8376249,2.67952681 12.8123069,2.53239413 C12.7803517,2.35620637 12.7649495,2.17702668 12.7663312,1.99754336 C12.7426619,1.64839706 12.8136834,1.29936257 12.9708314,0.992528799 Z M18.4761543,3.92079729 L19.1771929,3.92079729 L19.1771929,0.0790226258 L18.5427272,0.0790226258 L17.6371884,1.82359853 L17.4838132,2.27364626 L17.4632161,2.27364626 L17.294393,1.83464265 L16.338097,0.0790226258 L15.698482,0.0790226258 L15.698482,3.92079729 L16.3638434,3.92079729 L16.3638434,1.92220671 L16.2612255,1.16529033 L16.2869719,1.16529033 L16.5120693,1.77429444 L17.315358,3.21160727 L17.5404554,3.21160727 L18.3025498,1.7798165 L18.5232335,1.16529033 L18.5541292,1.16529033 L18.4772577,1.92772877 L18.4772577,3.92079729 L18.4761543,3.92079729 Z M22.2156397,0.503037797 C22.1415219,0.379638366 22.0383815,0.279370937 21.9166133,0.212340884 C21.7831849,0.139754844 21.639754,0.090614197 21.4917972,0.0667952116 C21.3302258,0.0396737587 21.1668873,0.026483768 21.0033506,0.0273519399 C20.9052689,0.0273519399 20.8054708,0.0291926259 20.7039563,0.0328739979 C20.6024418,0.0365553699 20.5043602,0.042077428 20.4097114,0.049440172 C20.3144496,0.0569343937 20.2258083,0.0660063462 20.1412129,0.0766560295 C20.0566175,0.0873057129 19.983424,0.0987442617 19.9186901,0.109788378 L19.9186901,3.89634246 C20.0156575,3.91967861 20.1139514,3.93614887 20.2129351,3.94564655 C20.3203345,3.95669067 20.4260175,3.96497376 20.529984,3.97049581 C20.6339506,3.97601787 20.731174,3.9787789 20.8216543,3.9787789 L21.042338,3.9787789 C21.2164367,3.97917754 21.389945,3.95706114 21.5591057,3.91290864 C21.7179235,3.87274151 21.8692638,3.8040623 22.0067258,3.70977579 C22.1364447,3.62002756 22.2442683,3.49831259 22.3212001,3.35478634 C22.4026225,3.19828586 22.4432764,3.0211734 22.4388981,2.84202381 C22.4416922,2.70935598 22.4217451,2.57726568 22.3800491,2.45232429 C22.3444093,2.34844939 22.2896195,2.25333949 22.21895,2.17267149 C22.1521682,2.0949308 22.0716553,2.03218581 21.9820828,1.98807698 C21.8890491,1.94394597 21.7911649,1.91266692 21.6907803,1.89499086 L21.6907803,1.86185851 C21.7965529,1.83723739 21.8970986,1.79161932 21.9872321,1.72735695 C22.0650571,1.67137394 22.1327324,1.60067051 22.1869509,1.51870204 C22.2382533,1.43974074 22.2756497,1.35137897 22.2972927,1.25798202 C22.3191512,1.16473132 22.3302683,1.06895886 22.3303953,0.972807163 C22.3356947,0.807067751 22.2958154,0.643267431 22.2156397,0.501460066 L22.2156397,0.503037797 Z M20.9283181,3.34295336 L20.7955401,3.3374313 C20.7525068,3.3374313 20.7127837,3.33269811 20.6752675,3.32914822 C20.6473805,3.32767246 20.6197994,3.32223441 20.5932467,3.31297647 L20.5932467,2.26417988 L20.9669378,2.26417988 C21.0557922,2.26419988 21.1445747,2.26959905 21.2328616,2.28035162 C21.3164053,2.28965478 21.3978016,2.31448005 21.4734069,2.35371611 C21.5431696,2.39017211 21.6029691,2.44533354 21.6470114,2.51385579 C21.6954786,2.59853784 21.7187033,2.69706068 21.7135843,2.79626962 C21.7156578,2.88172749 21.6962181,2.96620537 21.65731,3.0408179 C21.6207526,3.10890395 21.5704909,3.16738577 21.5101875,3.2120017 C21.4455906,3.2588038 21.3737221,3.29286478 21.2979633,3.31258204 C21.2168,3.33453314 21.1333986,3.34553085 21.0496941,3.34531996 C21.0151204,3.34400518 20.9749069,3.34242745 20.9290537,3.34058676 L20.9283181,3.34295336 Z M20.5932467,1.6942246 L20.5932467,0.676588192 C20.6509134,0.667746623 20.7089937,0.662347723 20.767219,0.660416451 C20.8407802,0.656866557 20.9239044,0.654894393 21.0129135,0.654894393 C21.0884118,0.654602315 21.1637709,0.661865058 21.2380109,0.676588192 C21.3055946,0.689560993 21.3704836,0.715338695 21.4296379,0.752713707 C21.4856445,0.788632758 21.5323187,0.839092754 21.5653584,0.899442678 C21.6016286,0.970948087 21.6192877,1.05160269 21.6164835,1.13294685 C21.6206188,1.26401189 21.5687473,1.38993445 21.4756137,1.47492001 C21.3779316,1.56493823 21.2638092,1.63210842 21.1405423,1.67213637 C21.0888662,1.68051449 21.036808,1.68591283 20.9845925,1.68830811 C20.9213298,1.69185801 20.8661589,1.69383017 20.8183441,1.69383017 L20.5932467,1.69383017 L20.5932467,1.6942246 Z M23.0487207,2.81638568 C23.1024749,3.04420029 23.1971779,3.25857255 23.3275178,3.44747803 C23.451679,3.62256321 23.6142972,3.7619944 23.8008844,3.8533493 C24.0135642,3.95323498 24.2440588,4.00197105 24.4761765,3.99613394 C24.90559,4.02195736 25.3213896,3.8300434 25.5990888,3.47784935 C25.8871633,3.04931407 26.0273312,2.52669722 25.9955839,1.99951553 C25.9982373,1.72396308 25.9673254,1.44921874 25.9036323,1.18225094 C25.8498076,0.953953663 25.7541599,0.739424062 25.6222606,0.551158588 C25.4966963,0.376434017 25.3333428,0.237130093 25.1463194,0.145287322 C24.9353508,0.0457524191 24.7066029,-0.00298598185 24.4761765,0.00250267867 C24.0458373,-0.0244566037 23.6288037,0.167586554 23.3506896,0.520787269 C23.0641961,0.950180399 22.9250209,1.47262675 22.9567692,1.99951553 C22.9539578,2.27494729 22.9848724,2.54958326 23.0487207,2.81638568 L23.0487207,2.81638568 Z M23.8979852,0.992134366 C24.1132801,0.671697223 24.5193258,0.57708804 24.8392012,0.772829776 C24.9405848,0.843358431 25.0234053,0.940594477 25.0797465,1.0552436 C25.1450027,1.18772055 25.1907828,1.33021351 25.2154669,1.47768104 C25.2451978,1.64951036 25.2597293,1.82396684 25.2588681,1.99872666 C25.284496,2.3511697 25.2134092,2.70395308 25.0543678,3.01360204 C24.9251454,3.21819715 24.70641,3.33652682 24.4761765,3.32638719 C24.35215,3.329999 24.2297126,3.29580602 24.1230826,3.22777901 C24.0218006,3.15910222 23.9383079,3.0641388 23.8803305,2.95167611 C23.8123394,2.82096184 23.7647539,2.67919627 23.7394607,2.53199969 C23.7076872,2.35578413 23.6922866,2.17662396 23.693485,1.99714893 C23.6701118,1.64805683 23.7413875,1.29916549 23.8987208,0.992528799 L23.8979852,0.992134366 Z" id="C-c-combo"></path>
            <path d="M5.66573739,5.84485529 C5.51486705,5.62651929 5.30512587,5.44912623 5.05759562,5.33050649 C4.78669506,5.2022259 4.49550562,5.11539654 4.19514001,5.07333209 C3.86701526,5.02441798 3.53522399,5.00012624 3.2029475,5.00068979 C3.00195357,5.00068979 2.7993625,5.00390303 2.5951743,5.01032952 C2.39098609,5.01675601 2.19183502,5.02651051 1.99772108,5.03959301 C1.80360714,5.05267551 1.62177889,5.06885649 1.45223634,5.08813597 C1.28269378,5.10741544 1.13194834,5.12680967 1,5.14631866 L1,11.8431814 C1.19688886,11.8845062 1.39646874,11.9137177 1.59745322,11.9306276 C1.81564712,11.9501366 2.03040102,11.9647109 2.24171493,11.9743507 C2.45302884,11.9839904 2.65045991,11.9888103 2.83400816,11.9888103 L3.28624449,11.9888103 C3.63975467,11.9895704 3.99207263,11.9504998 4.33556548,11.8724449 C4.65815802,11.8014889 4.9655808,11.6800837 5.24482957,11.5133647 C5.50795769,11.3549943 5.72701305,11.1404659 5.88393129,10.8874704 C6.04901093,10.6103663 6.13148843,10.2969713 6.12276515,9.97995803 C6.12818427,9.7455626 6.08771427,9.51221439 6.00334822,9.29140541 C5.93038643,9.10778329 5.81914109,8.93951046 5.67605737,8.79633608 C5.53749636,8.66054288 5.37151851,8.5517242 5.1877011,8.47615911 C4.998524,8.39803054 4.79950631,8.34261934 4.59540787,8.31125076 L4.59540787,8.25203524 C4.81036541,8.20842077 5.01473009,8.12774328 5.19802108,8.01414031 C5.35592839,7.91515279 5.49329612,7.79022249 5.60344893,7.64542038 C5.70761753,7.50589671 5.78333596,7.34961943 5.82680282,7.18443441 C5.87164595,7.01946149 5.89442527,6.84993279 5.89461984,6.67972534 C5.90677,6.38657548 5.82723603,6.09646789 5.66573739,5.84485529 Z M3.05220205,10.8678466 L2.78203968,10.8582069 C2.69530269,10.8549936 2.61397141,10.8501738 2.53804583,10.8437473 C2.48198796,10.8408186 2.42659078,10.8309789 2.37329469,10.8144838 L2.37329469,8.96055588 L3.13181334,8.96055588 C3.31236105,8.96067883 3.492757,8.97033396 3.67213809,8.98947509 C3.84175562,9.00592949 4.00700976,9.04984967 4.16049436,9.11926726 C4.30233181,9.18376016 4.42395032,9.28135352 4.51358516,9.40260666 C4.61181465,9.55247498 4.6589858,9.72668134 4.64885063,9.90215158 C4.65291084,10.0532456 4.61345058,10.2025849 4.53459369,10.3345626 C4.45940522,10.4550992 4.35641377,10.558476 4.2331028,10.6371815 C4.10186106,10.7199598 3.95581499,10.7801243 3.801875,10.8148281 C3.63713631,10.8534573 3.46788825,10.8727706 3.29803876,10.8723222 C3.2277646,10.8723222 3.14581903,10.8708304 3.05220205,10.8678466 Z M2.37329469,7.95113774 L2.37329469,6.15504825 C2.49033766,6.13945027 2.6082146,6.12991073 2.72638549,6.12647331 C2.87872808,6.12004682 3.04495349,6.11683358 3.22506174,6.11683358 C3.37847949,6.11636489 3.53160915,6.12927387 3.68245807,6.15539252 C3.81983411,6.1781468 3.95176141,6.22361529 4.07203738,6.28966028 C4.18568618,6.35307658 4.28037971,6.44223881 4.34735974,6.54890034 C4.42130665,6.67531799 4.45722347,6.8180812 4.4512967,6.96203191 C4.45963193,7.19376754 4.35448791,7.41642685 4.16565435,7.56692538 C3.96664586,7.72439341 3.73485274,7.84161831 3.48490414,7.91120169 C3.37987139,7.92608823 3.27406474,7.93574162 3.16793327,7.9401209 C3.03967065,7.94654739 2.9271337,7.94976064 2.83032245,7.94976064 L2.37329469,7.94976064 L2.37329469,7.95113774 Z M7.40060001,11.8917244 L8.82328319,11.8917244 L8.82328319,9.10618476 L9.57221899,9.23081278 L11.2245218,11.8903473 L12.866136,11.8903473 L11.2035132,9.29966804 L10.694517,8.99877055 C11.139859,8.87521948 11.5301309,8.6197828 11.806495,8.27097043 C12.0992332,7.87215952 12.2450381,7.39517773 12.2218743,6.91211185 C12.2346196,6.58610273 12.1539504,6.26282666 11.9882004,5.97568029 C11.8390763,5.73286669 11.6247724,5.53055286 11.3664215,5.38868918 C11.0923859,5.24141517 10.7931021,5.13961003 10.4818517,5.08779169 C10.1513442,5.02941987 9.81570244,5.00014284 9.47933916,5.00034551 C9.33387656,5.00034551 9.17416256,5.00355875 9.00019716,5.00998525 C8.82623175,5.01641174 8.6478435,5.02616623 8.4650324,5.03924873 C8.28148415,5.05233123 8.09793591,5.07011884 7.91438766,5.09261156 C7.73083942,5.11510428 7.55883973,5.13931838 7.39838858,5.16525386 L7.39838858,11.8917244 L7.40060001,11.8917244 Z M10.4346746,6.43219067 C10.6341696,6.60946396 10.7405689,6.85943852 10.7258455,7.1162677 C10.758485,7.43144217 10.6269764,7.74206501 10.3723861,7.95113774 C10.0960013,8.13098218 9.76338712,8.21976801 9.42700211,8.20349228 L8.82328319,8.20349228 L8.82328319,6.23319897 C8.93067009,6.2098173 9.04034042,6.19678141 9.15057403,6.19429574 C9.29235092,6.18786925 9.43609352,6.18465601 9.58180183,6.18465601 C9.8893139,6.16395525 10.1938717,6.25234899 10.4346746,6.43219067 L10.4346746,6.43219067 Z M13.915457,11.8917244 L18.2797035,11.8917244 L18.2797035,10.7074139 L15.3392458,10.7074139 L15.3392458,9.04765778 L17.9678926,9.04765778 L17.9678926,7.86369156 L15.3392458,7.86369156 L15.3392458,6.28002055 L18.227735,6.28002055 L18.227735,5.09743143 L13.915457,5.09743143 L13.915457,11.8917244 Z M23.7658794,11.8917244 L25.2615396,11.8917244 L22.6446871,5.04888847 L21.5942604,5.04888847 L18.9755651,11.8913801 L20.399354,11.8913801 L20.9499987,10.3868926 L23.1839061,10.3868926 L23.7658794,11.8917244 Z M21.8434142,7.8151486 L22.0616081,6.73790803 L22.1135766,6.73790803 L22.3317705,7.80516459 L22.8720953,9.31998034 L21.313778,9.31998034 L21.8434142,7.8151486 Z M30.0938709,11.8917244 L31.8497421,11.8917244 L29.4286007,8.69856161 L28.846996,8.31985767 L29.4079607,7.95113774 L31.5272427,5.09743143 L29.9055313,5.09743143 L27.9001377,7.97041722 L27.568424,8.10640636 L27.568424,5.09743143 L26.1461094,5.09743143 L26.1461094,11.8917244 L27.5695297,11.8917244 L27.5695297,8.98981936 L27.9436291,8.98981936 L30.0938709,11.8917244 Z M32.8470946,11.8917244 L37.2113411,11.8917244 L37.2113411,10.7074139 L34.2708835,10.7074139 L34.2708835,9.04765778 L36.8995302,9.04765778 L36.8995302,7.86369156 L34.2708835,7.86369156 L34.2708835,6.28002055 L37.1593726,6.28002055 L37.1593726,5.09743143 L32.8470946,5.09743143 L32.8470946,11.8917244 Z M38.5308245,11.8917244 L39.9542448,11.8917244 L39.9542448,9.10618476 L40.7024435,9.23081278 L42.3547462,11.8903473 L43.9963604,11.8903473 L42.3337377,9.29966804 L41.8247414,8.99877055 C42.2699722,8.87519827 42.6601198,8.61975828 42.9363509,8.27097043 C43.2293914,7.87227722 43.3753436,7.39523709 43.3520987,6.91211185 C43.3648441,6.58610273 43.2841749,6.26282666 43.1184249,5.97568029 C42.9688415,5.73252407 42.7538767,5.53006728 42.4948031,5.38834491 C42.2207141,5.24117807 41.9214508,5.13937991 41.6102333,5.08744741 C41.2796042,5.02905816 40.9438384,4.99978108 40.6073522,5.00000123 C40.4621353,5.00000123 40.3025442,5.003444 40.1282102,5.00964097 C39.9538762,5.01583794 39.7762251,5.02582196 39.5930454,5.03890446 C39.4098658,5.05198695 39.2244747,5.06954505 39.0424007,5.09226728 C38.8603267,5.11498952 38.6870985,5.13943314 38.5264016,5.16490958 L38.5264016,11.8917244 L38.5308245,11.8917244 Z M41.5648991,6.43219067 C41.7642585,6.60952604 41.8705196,6.85949225 41.8557014,7.1162677 C41.8884934,7.43139169 41.7571156,7.74202968 41.5026106,7.95113774 C41.2261122,8.13103201 40.893364,8.21981899 40.556858,8.20349228 L39.9542448,8.20349228 L39.9542448,6.23319897 C40.0616422,6.20987185 40.1713065,6.19683666 40.2815356,6.19429574 C40.4234354,6.18775449 40.5675465,6.18465601 40.7127634,6.18465601 C41.0200232,6.16416592 41.3242705,6.25254591 41.5648991,6.43219067 L41.5648991,6.43219067 Z M45.4614292,8.29128274 L45.7315916,9.87495375 L46.5837272,9.87495375 L46.853521,8.29128274 L46.853521,5.09743143 L45.4614292,5.09743143 L45.4614292,8.29059418 L45.4614292,8.29128274 Z M45.5443577,11.7949827 C45.708305,11.9349404 45.9251011,12.0082636 46.1469709,11.9987943 C46.3755031,12.0104536 46.5996923,11.9371843 46.7705926,11.7949827 C46.925923,11.6522942 47.0090013,11.4546589 46.9991065,11.2513704 C47.0096575,11.0493986 46.9263616,10.8530027 46.7705926,10.712578 C46.5981697,10.573283 46.3745943,10.5019423 46.1469709,10.5135863 C45.925998,10.5039315 45.7097384,10.5753436 45.5443577,10.712578 C45.3885887,10.8530027 45.3052928,11.0493986 45.3158438,11.2513704 C45.306055,11.454541 45.389125,11.6520314 45.5443577,11.7946384 L45.5443577,11.7949827 Z" id="Breaker_"></path>
        </g>
    </g>
</svg>