<svg width="17" height="21" viewBox="0 0 17 21" xmlns="http://www.w3.org/2000/svg" xmlns:xlink="http://www.w3.org/1999/xlink"><title>svg/game_page/map_prohozhdenie copy_active</title><defs><path d="M10.054 9.828a.33.33 0 0 0 .579 0l2.6-4.713a3.539 3.539 0 0 0 .03-3.34A3.214 3.214 0 0 0 10.704.018a3.742 3.742 0 0 0-.742 0 3.214 3.214 0 0 0-2.559 1.757 3.539 3.539 0 0 0 .031 3.34l2.62 4.713zm.297-7.118a.7.7 0 0 1 .699.702.7.7 0 0 1-.699.701.7.7 0 0 1-.698-.701.7.7 0 0 1 .698-.702z" id="a"/></defs><g fill="none" fill-rule="evenodd"><path d="M8.686 5a8 8 0 1 1 0 16 8 8 0 1 1 0-16z" fill="#003384"/><path d="M5.613 13.235a2.008 2.008 0 0 1-1.805-.949c-.377-.617-.377-1.169 0-1.786a2.008 2.008 0 0 1 1.805-.948v.044c.137.519.647.857 1.19.79.543-.068.95-.52.95-1.056 0-.535-.407-.987-.95-1.055a1.087 1.087 0 0 0-1.19.79V9.02a2.553 2.553 0 0 0-2.26 1.22c-.47.78-.47 1.529 0 2.308a2.553 2.553 0 0 0 2.26 1.22L11 13.77c1.066.048 2.223.69 2.223 1.734a1.952 1.952 0 0 1-1.865 1.966l-4.946-.002a1.087 1.087 0 0 0-1.19-.789c-.543.068-.95.52-.95 1.055 0 .536.407.988.95 1.055A1.087 1.087 0 0 0 6.412 18l4.946.002c1.403 0 2.5-1.128 2.5-2.5S12.403 13.235 11 13.235H5.613z" fill="#FFF" fill-rule="nonzero" opacity=".9"/><g fill-rule="nonzero" transform="translate(0 1)"><use fill="#003384" fill-rule="evenodd" xlink:href="#a"/><path stroke="#FFF" d="M9.617 10.07L6.996 5.355a4.035 4.035 0 0 1-.04-3.804A3.713 3.713 0 0 1 9.914-.48a4.21 4.21 0 0 1 .84 0 3.71 3.71 0 0 1 2.953 2.023 4.04 4.04 0 0 1-.036 3.812l-2.599 4.713a.83.83 0 0 1-1.454.001zm.734-6.86a.2.2 0 0 0-.198.202.2.2 0 0 0 .198.201.2.2 0 0 0 .199-.201.2.2 0 0 0-.199-.202z"/></g></g></svg>