<svg width="33" height="30" viewBox="0 0 33 30" fill="none" xmlns="http://www.w3.org/2000/svg"><rect opacity=".9" width="33" height="30" rx="2" fill="#F00"/><mask id="a" maskUnits="userSpaceOnUse" x="0" y="0" width="33" height="30"><rect width="33" height="30" rx="2" fill="#fff"/></mask><g mask="url(#a)"><path fill-rule="evenodd" clip-rule="evenodd" d="M24.705 8.448a2.657 2.657 0 0 1 1.856 1.894C27 12.013 27 15.5 27 15.5s0 3.486-.439 5.158a2.657 2.657 0 0 1-1.856 1.894C23.067 23 16.5 23 16.5 23s-6.567 0-8.205-.448a2.658 2.658 0 0 1-1.856-1.894C6 18.986 6 15.5 6 15.5s0-3.487.439-5.158a2.657 2.657 0 0 1 1.856-1.894C9.933 8 16.5 8 16.5 8s6.567 0 8.205.448zM19.84 15.5l-5.489 3.166v-6.332L19.84 15.5z" fill="#fff"/></g></svg>