<svg width="187" height="50" viewBox="0 0 187 50" xmlns="http://www.w3.org/2000/svg"><title>7AD32F09-4789-4FE6-ACED-C4A3C2720B41</title><defs><linearGradient x1="0%" y1="0%" y2="0%" id="a"><stop stop-color="#024A9A" offset="0%"/><stop stop-color="#00669E" offset="100%"/></linearGradient></defs><g fill="none" fill-rule="evenodd"><path d="M6 0h175a6 6 0 0 1 6 6v38a6 6 0 0 1-6 6H6a6 6 0 0 1-6-6V6a6 6 0 0 1 6-6z" fill="#000"/><path d="M6 0h175a6 6 0 0 1 6 6v38a6 6 0 0 1-6 6H6a6 6 0 0 1-6-6V6a6 6 0 0 1 6-6z" fill="url(#a)" opacity=".3"/><g fill="#FFF"><path d="M85.668 39.102h-2.215L82.24 35.29h-4.212l-1.156 3.813H74.71l4.18-12.976h2.58l4.2 12.976zm-3.794-5.412l-1.093-3.39c-.116-.346-.334-1.161-.655-2.445h-.044a94.692 94.692 0 0 1-.616 2.445l-1.079 3.39h3.487zm14.541.617a5.321 5.321 0 0 1-1.29 3.774 3.77 3.77 0 0 1-2.869 1.232 2.869 2.869 0 0 1-2.657-1.328h-.04v4.934h-2.081V32.827c0-1.001-.026-2.028-.077-3.08h1.83l.114 1.482h.043a3.7 3.7 0 0 1 5.922-.367 5.164 5.164 0 0 1 1.104 3.445h.001zm-2.118.076a3.86 3.86 0 0 0-.616-2.253 2.129 2.129 0 0 0-1.811-.924c-.511 0-1.005.18-1.396.51-.417.34-.706.813-.818 1.34-.057.207-.09.42-.096.634v1.56a2.497 2.497 0 0 0 .625 1.721c.41.466 1.007.724 1.627.704a2.129 2.129 0 0 0 1.83-.906 3.988 3.988 0 0 0 .654-2.38v-.006zm12.878-.076a5.318 5.318 0 0 1-1.292 3.774 3.767 3.767 0 0 1-2.87 1.232 2.869 2.869 0 0 1-2.656-1.328h-.033v4.934h-2.08V32.827c0-1.001-.025-2.028-.076-3.08h1.829l.115 1.482h.039a3.702 3.702 0 0 1 5.922-.367 5.17 5.17 0 0 1 1.102 3.445zm-2.119.076a3.856 3.856 0 0 0-.617-2.253 2.126 2.126 0 0 0-1.81-.924c-.51 0-1.006.18-1.396.51-.417.34-.706.813-.818 1.34-.057.207-.09.42-.097.634v1.56a2.502 2.502 0 0 0 .624 1.721 2.08 2.08 0 0 0 1.629.704 2.128 2.128 0 0 0 1.83-.906 3.993 3.993 0 0 0 .661-2.38l-.006-.006zm14.156 1.08a3.458 3.458 0 0 1-1.148 2.695 5.107 5.107 0 0 1-3.535 1.136 6.204 6.204 0 0 1-3.365-.803l.482-1.734a5.69 5.69 0 0 0 3.006.828c.654.04 1.3-.148 1.83-.531a1.73 1.73 0 0 0 .655-1.417c.012-.5-.184-.981-.54-1.332a5.027 5.027 0 0 0-1.79-1.004c-2.273-.847-3.41-2.087-3.41-3.722a3.295 3.295 0 0 1 1.196-2.623 4.712 4.712 0 0 1 3.177-1.023 6.312 6.312 0 0 1 2.946.616l-.52 1.695a5.122 5.122 0 0 0-2.484-.597 2.509 2.509 0 0 0-1.714.54 1.541 1.541 0 0 0-.52 1.175c-.01.493.211.963.597 1.27.572.433 1.21.771 1.888 1.003.932.33 1.776.87 2.465 1.578a3.31 3.31 0 0 1 .79 2.25h-.006zm6.875-4.16h-2.295v4.545c0 1.154.404 1.732 1.213 1.733.31.006.622-.026.925-.097l.056 1.58a4.688 4.688 0 0 1-1.617.23 2.491 2.491 0 0 1-1.926-.75 3.685 3.685 0 0 1-.694-2.525V31.3h-1.366v-1.56h1.366v-1.714l2.043-.616v2.33h2.295v1.562zm10.343 3.043a5.137 5.137 0 0 1-1.233 3.542 4.4 4.4 0 0 1-3.429 1.425 4.184 4.184 0 0 1-3.283-1.366 4.983 4.983 0 0 1-1.223-3.443 5.092 5.092 0 0 1 1.262-3.563 4.366 4.366 0 0 1 3.4-1.386 4.275 4.275 0 0 1 3.312 1.367 4.935 4.935 0 0 1 1.202 3.424h-.008zm-2.159.066a4.215 4.215 0 0 0-.557-2.22 2.055 2.055 0 0 0-1.868-1.122 2.085 2.085 0 0 0-1.907 1.122 4.293 4.293 0 0 0-.559 2.26 4.22 4.22 0 0 0 .56 2.22 2.125 2.125 0 0 0 3.754-.019c.4-.678.601-1.454.583-2.24h-.006zm8.918-2.841a3.617 3.617 0 0 0-.655-.058 1.967 1.967 0 0 0-1.695.829 3.12 3.12 0 0 0-.521 1.849v4.911h-2.078l.02-6.412c0-1.08-.027-2.062-.079-2.947h1.814l.076 1.79h.057a3.203 3.203 0 0 1 1.04-1.483c.434-.324.962-.5 1.504-.5.174 0 .347.012.52.038v1.983h-.003zm9.295 2.41c.006.315-.02.631-.075.942h-6.228a2.715 2.715 0 0 0 .904 2.12c.58.455 1.304.687 2.04.655a6.913 6.913 0 0 0 2.525-.443l.326 1.443a7.785 7.785 0 0 1-3.137.574 4.543 4.543 0 0 1-3.42-1.28 4.731 4.731 0 0 1-1.243-3.443 5.363 5.363 0 0 1 1.157-3.524 3.984 3.984 0 0 1 3.273-1.503 3.487 3.487 0 0 1 3.064 1.503c.574.875.863 1.908.826 2.955h-.012zm-1.983-.54a2.822 2.822 0 0 0-.404-1.598 1.815 1.815 0 0 0-1.657-.867 1.974 1.974 0 0 0-1.656.847 3.098 3.098 0 0 0-.615 1.618h4.332zM36.444 23.708a6.323 6.323 0 0 1 3.012-5.306 6.477 6.477 0 0 0-5.1-2.758c-2.146-.225-4.226 1.283-5.32 1.283-1.115 0-2.799-1.261-4.61-1.224a6.79 6.79 0 0 0-5.717 3.487c-2.472 4.277-.627 10.567 1.739 14.027 1.185 1.692 2.567 3.584 4.38 3.517 1.772-.073 2.438-1.13 4.574-1.13 2.12 0 2.741 1.13 4.59 1.088 1.901-.031 3.1-1.702 4.243-3.413a13.995 13.995 0 0 0 1.94-3.951 6.109 6.109 0 0 1-3.731-5.62zm-4.265-10.315a6.225 6.225 0 0 0 1.425-4.461 6.335 6.335 0 0 0-4.1 2.121 5.923 5.923 0 0 0-1.461 4.296 5.236 5.236 0 0 0 4.136-1.956z"/><path fill-rule="nonzero" opacity=".2" d="M57 14h1v23h-1z"/><path d="M74.6 10.26c.324-.288.7-.508 1.128-.66a4.34 4.34 0 0 1 1.458-.228c.444 0 .843.054 1.197.162.354.108.655.26.903.456s.44.428.573.696c.134.268.201.562.201.882 0 .432-.107.812-.32 1.14a2.106 2.106 0 0 1-.904.762c.22.092.42.205.6.34.18.133.335.284.465.452a1.893 1.893 0 0 1 .405 1.182c0 .376-.07.728-.21 1.056-.14.328-.343.613-.609.855a2.9 2.9 0 0 1-.98.573c-.389.14-.83.21-1.327.21-.616 0-1.17-.1-1.662-.303a3.916 3.916 0 0 1-1.266-.819l.336-.552a.425.425 0 0 1 .12-.11.29.29 0 0 1 .156-.046c.084 0 .184.045.3.135.116.09.264.19.444.297.18.108.4.207.657.297.258.09.573.135.945.135.316 0 .6-.038.85-.114.25-.076.46-.186.63-.33.17-.144.3-.32.39-.528a1.75 1.75 0 0 0 .134-.702c0-.224-.043-.43-.129-.618a1.333 1.333 0 0 0-.375-.483 1.777 1.777 0 0 0-.6-.312 2.663 2.663 0 0 0-.798-.11h-1.176v-.955h1.128c.244 0 .471-.03.681-.09.21-.06.39-.148.54-.264.15-.116.268-.258.354-.426.086-.168.13-.36.13-.576 0-.196-.04-.376-.12-.54a1.195 1.195 0 0 0-.349-.423 1.652 1.652 0 0 0-.558-.273 2.687 2.687 0 0 0-.75-.096 2.925 2.925 0 0 0-1.404.327 3.71 3.71 0 0 0-.38.225.472.472 0 0 1-.256.102.266.266 0 0 1-.156-.042.411.411 0 0 1-.114-.138l-.282-.546zm10.35 5.058a8.902 8.902 0 0 0-1.257.117 3.575 3.575 0 0 0-.846.243c-.218.1-.376.218-.474.354a.762.762 0 0 0-.147.456c0 .16.026.298.078.414a.77.77 0 0 0 .213.285c.09.074.196.128.318.162s.253.051.393.051c.188 0 .36-.019.516-.057.156-.038.303-.093.441-.165.138-.072.27-.158.396-.258s.25-.214.37-.342v-1.26zm-3.45-2.484a3.47 3.47 0 0 1 1.086-.726c.388-.16.818-.24 1.29-.24.34 0 .642.056.906.168.264.112.486.268.666.468.18.2.316.442.408.726.092.284.138.596.138.936v3.888h-.474a.466.466 0 0 1-.24-.05c-.056-.035-.1-.102-.132-.202l-.12-.576c-.16.148-.316.28-.468.393a2.607 2.607 0 0 1-1.017.468c-.19.042-.4.063-.633.063a2.19 2.19 0 0 1-.666-.099 1.539 1.539 0 0 1-.543-.297 1.397 1.397 0 0 1-.366-.5 1.75 1.75 0 0 1-.135-.718c0-.24.066-.47.198-.693.132-.222.346-.419.642-.59.296-.173.682-.314 1.158-.424.476-.11 1.06-.173 1.752-.189v-.474c0-.472-.102-.829-.306-1.07-.204-.243-.502-.364-.894-.364-.264 0-.485.033-.663.1-.178.065-.332.14-.462.221a8.28 8.28 0 0 0-.336.222.485.485 0 0 1-.279.1.307.307 0 0 1-.186-.058.523.523 0 0 1-.132-.14l-.192-.343zm10.062-.042h-2.868v5.262H87.62v-6.078h3.942v.816zm2.088 3.798c.196.264.41.45.642.558.232.108.492.162.78.162.568 0 1.004-.202 1.308-.606.304-.404.456-.98.456-1.728 0-.396-.035-.736-.105-1.02a1.995 1.995 0 0 0-.303-.699 1.179 1.179 0 0 0-.486-.399 1.616 1.616 0 0 0-.654-.126c-.348 0-.653.08-.915.24-.262.16-.503.386-.723.678v2.94zm-.054-3.672c.256-.316.552-.57.888-.762a2.28 2.28 0 0 1 1.152-.288c.352 0 .67.067.954.201.284.134.526.332.726.594.2.262.354.587.462.975.108.388.162.834.162 1.338 0 .448-.06.865-.18 1.251-.12.386-.293.72-.519 1.002a2.44 2.44 0 0 1-.828.666 2.44 2.44 0 0 1-1.1.243c-.373 0-.692-.063-.958-.189a2.249 2.249 0 0 1-.705-.525v2.688h-1.074v-8.136h.642c.152 0 .246.074.282.222l.096.72zm10.782-.942l-3.39 7.872a.56.56 0 0 1-.135.192c-.054.048-.137.072-.249.072h-.792l1.11-2.412-2.508-5.724h.924c.092 0 .165.023.22.07a.362.362 0 0 1 .11.152l1.626 3.828c.064.168.118.344.162.528.056-.188.116-.366.18-.534l1.578-3.822a.341.341 0 0 1 .318-.222h.846zm.516.624c.228-.216.505-.39.831-.522.326-.132.72-.198 1.18-.198.367 0 .691.045.971.135.28.09.515.21.705.357.19.148.334.317.432.507a1.274 1.274 0 0 1-.099 1.347 1.607 1.607 0 0 1-.864.588c.388.116.693.302.915.558.222.256.333.57.333.942 0 .28-.064.533-.192.76-.128.225-.3.417-.516.575a2.416 2.416 0 0 1-.753.363 3.167 3.167 0 0 1-.897.126c-.196 0-.395-.018-.597-.054a2.934 2.934 0 0 1-1.134-.462 2.095 2.095 0 0 1-.453-.42l.3-.39a.235.235 0 0 1 .204-.102c.072 0 .15.031.231.093.082.062.183.131.303.207a1.917 1.917 0 0 0 1.08.3c.22 0 .417-.027.591-.08.174-.055.321-.13.441-.226a.977.977 0 0 0 .372-.774.86.86 0 0 0-.375-.726c-.25-.184-.629-.276-1.137-.276h-.69v-.708h.69c.22 0 .418-.023.594-.069.176-.046.326-.109.45-.189a.832.832 0 0 0 .282-.29.755.755 0 0 0-.231-.993 1.328 1.328 0 0 0-.41-.193 2.06 2.06 0 0 0-.577-.072 2.22 2.22 0 0 0-1.029.228 2.5 2.5 0 0 0-.279.156.354.354 0 0 1-.186.072.251.251 0 0 1-.129-.03.377.377 0 0 1-.11-.126l-.247-.414zm10.986-.624v6.078h-1.068v-4.128c0-.08.004-.166.012-.258s.018-.184.03-.276c-.036.08-.072.154-.108.222a1.64 1.64 0 0 1-.114.186l-2.934 3.99a.997.997 0 0 1-.165.183.324.324 0 0 1-.219.087h-.648v-6.078h1.074v4.128c0 .076-.004.16-.012.25s-.018.18-.03.272a4.201 4.201 0 0 1 .216-.396l2.934-3.99a.95.95 0 0 1 .168-.183.335.335 0 0 1 .222-.087h.642zm6.744.816h-2.334v5.262h-1.068v-5.262h-2.334v-.816h5.736v.816zm4.836 1.56c0-.248-.035-.475-.105-.68a1.53 1.53 0 0 0-.306-.535 1.365 1.365 0 0 0-.489-.348 1.65 1.65 0 0 0-.654-.123c-.512 0-.917.15-1.215.447-.298.298-.483.711-.555 1.24h3.324zm.864 2.85c-.132.16-.29.3-.474.417a2.951 2.951 0 0 1-.59.291 3.976 3.976 0 0 1-1.317.228 3.09 3.09 0 0 1-1.162-.213 2.548 2.548 0 0 1-.918-.624 2.863 2.863 0 0 1-.603-1.017 4.135 4.135 0 0 1-.216-1.392c0-.424.065-.82.195-1.188a2.8 2.8 0 0 1 .561-.957c.244-.27.542-.482.894-.636a2.935 2.935 0 0 1 1.188-.23c.364 0 .701.06 1.011.182.31.122.578.298.804.528.226.23.403.514.531.852.128.338.192.723.192 1.155 0 .168-.018.28-.054.336-.036.056-.104.084-.204.084H124.1c.012.384.065.718.16 1.002.093.284.224.521.392.711.168.19.368.332.6.426.232.094.492.141.78.141.268 0 .5-.03.693-.093a3.297 3.297 0 0 0 .852-.402.465.465 0 0 1 .243-.093c.088 0 .156.034.204.102l.3.39zm6.81.102c.4 0 .716-.093.948-.279.232-.186.348-.44.348-.765 0-.144-.022-.275-.066-.393a.763.763 0 0 0-.216-.309 1.027 1.027 0 0 0-.399-.204 2.22 2.22 0 0 0-.609-.072h-1.314v2.022h1.308zm-1.308-4.608v1.908h1.17c.176 0 .34-.025.49-.075.15-.05.278-.12.386-.21a.947.947 0 0 0 .282-1.068.69.69 0 0 0-.204-.282 1.086 1.086 0 0 0-.378-.198 1.908 1.908 0 0 0-.576-.075h-1.17zm1.2-.72c.376 0 .698.038.966.114.268.076.488.18.66.31.172.13.298.282.378.458.08.176.12.364.12.564 0 .132-.018.27-.054.414a1.286 1.286 0 0 1-.189.414c-.09.132-.212.251-.366.357a1.819 1.819 0 0 1-.579.25c.464.08.822.24 1.074.482.252.242.378.561.378.957 0 .296-.059.553-.177.771a1.63 1.63 0 0 1-.486.55 2.16 2.16 0 0 1-.723.33 3.508 3.508 0 0 1-.888.107h-2.34v-6.078h2.226z"/></g></g></svg>