<svg id="a_small" xmlns="http://www.w3.org/2000/svg" width="28" height="28" viewBox="0 0 28 28"><defs><style>.cls-1{fill:#fff;stroke:#e0e0e0;stroke-linejoin:round;stroke-width:2px}.cls-2,.cls-3{fill:#0d3d8a;fill-rule:evenodd}.cls-3{fill:#303435}</style></defs><circle class="cls-1" cx="14" cy="14" r="11"/><path class="cls-2" d="M253.036 71.469l-1.829 1.831-.707.7-.707-.707-1.829-1.828.708-.707L250 72.09v-9.121h1v9.121l1.328-1.329z" transform="translate(-240 -53)"/><path id="а" class="cls-3" d="M254.168 70.315a2.945 2.945 0 0 0 1.349-.276 2.216 2.216 0 0 0 .836-.708v.526a.322.322 0 0 0 .323.324h1.12a.307.307 0 0 0 .236-.094.326.326 0 0 0 .087-.229v-4.236a2.507 2.507 0 0 0-.728-1.875 3.213 3.213 0 0 0-2.319-.715 3.758 3.758 0 0 0-1.632.317 2.579 2.579 0 0 0-.978.742 1.421 1.421 0 0 0-.33.762.28.28 0 0 0 .087.216.3.3 0 0 0 .209.081h1.052a.2.2 0 0 0 .2-.162l.223-.222a2.254 2.254 0 0 1 .438-.33 1.38 1.38 0 0 1 .715-.162 1.292 1.292 0 0 1 .944.3 1.189 1.189 0 0 1 .3.877v.279l-1.848.27a4.45 4.45 0 0 0-2.036.769A1.833 1.833 0 0 0 252 69.29a2.3 2.3 0 0 0 .9.748 2.864 2.864 0 0 0 1.261.276zm.459-1.295a1.519 1.519 0 0 1-.857-.236.755.755 0 0 1-.357-.668q0-.8 1.551-1.038l1.348-.216v.27a1.93 1.93 0 0 1-.472 1.4 1.618 1.618 0 0 1-1.213.486z" transform="translate(-240 -53)"/></svg>