<svg width="27" height="17" viewBox="0 0 27 17" fill="none" xmlns="http://www.w3.org/2000/svg"><path fill-rule="evenodd" clip-rule="evenodd" d="M3.478 13.163h8.044l1.206 3.23c.046.13.131.263.255.4.124.138.34.207.65.207h.857a.48.48 0 0 0 .36-.158c.1-.105.15-.23.15-.376a.926.926 0 0 0-.093-.34L9.25.8a2.099 2.099 0 0 0-.347-.534C8.748.09 8.516 0 8.207 0h-1.39c-.31 0-.542.089-.696.267-.155.178-.27.356-.348.534L.093 16.126a.953.953 0 0 0-.093.34c0 .145.05.27.15.376.101.105.22.158.36.158h.858c.309 0 .525-.069.649-.206a1.24 1.24 0 0 0 .255-.401l1.206-3.23zm7.233-2.186H4.289l3.223-8.67 3.199 8.67z" fill="#fff"/><g opacity=".6" fill="#fff"><rect x="21" y="6" width="2" height="9" rx="1"/><path fill-rule="evenodd" clip-rule="evenodd" d="M25.5 9.5a1 1 0 1 1 0 2h-7a1 1 0 1 1 0-2h7z"/></g></svg>