<svg xmlns="http://www.w3.org/2000/svg" width="8.5" height="16.82" viewBox="0 0 8.5 16.82"><defs><style>.cls-1{fill:#fff;fill-rule:evenodd}</style></defs><path class="cls-1" d="M.279 8.96H2.12v7.58a.27.27 0 0 0 .271.27h3.121a.27.27 0 0 0 .27-.27V8.99h2.116a.267.267 0 0 0 .269-.24l.322-2.79a.268.268 0 0 0-.067-.21.262.262 0 0 0-.2-.09H5.785V3.91a.729.729 0 0 1 .843-.8h1.594a.27.27 0 0 0 .271-.27V.28a.27.27 0 0 0-.271-.27h-2.2a.93.93 0 0 0-.1-.01A4.23 4.23 0 0 0 3.17 1.04a2.9 2.9 0 0 0-.959 2.57v2.05H.278a.27.27 0 0 0-.271.27v2.76a.27.27 0 0 0 .272.27z"/></svg>