<svg width="22" height="18" viewBox="0 0 22 18" fill="none" xmlns="http://www.w3.org/2000/svg"><g opacity=".4" fill="#fff"><mask id="a"><path fill-rule="evenodd" clip-rule="evenodd" d="M7 5.756l-5 1.63v3.129l5 1.695V5.756zm.013 8.57L7 14.322l-5.642-1.913A2 2 0 0 1 0 10.515V7.386a2 2 0 0 1 1.38-1.901L7 3.652l.015-.005A4 4 0 0 1 15 4v10a4 4 0 0 1-7.987.326zM9 14a2 2 0 1 0 4 0V4a2 2 0 1 0-4 0v10z"/></mask><path d="M7 5.756h2V3l-2.62.854L7 5.756zm-5 1.63l-.62-1.901-1.38.45v1.451h2zm0 3.129H0v1.433l1.358.46L2 10.516zm5 1.695l-.642 1.894L9 15v-2.79H7zm0 2.112l.642-1.894L7 14.322zm.013.004l1.994-.16-.106-1.312-1.246-.422-.642 1.894zM1.358 12.41l-.642 1.894.642-1.894zm.022-6.924L.76 3.583l.62 1.902zM7 3.652l-.62-1.901L7 3.652zm.015-.005l.62 1.902 1.258-.41.115-1.318-1.993-.174zm-.635.207l-5 1.63 1.24 3.804 5-1.63-1.24-3.804zM0 7.386v3.129h4V7.386H0zm1.358 5.023l5 1.695 1.284-3.788-5-1.695-1.284 3.788zM9 12.21V5.756H5v6.454h4zm-2.642 4.006l.013.004 1.284-3.788-.013-.004-1.284 3.788zM.716 14.303l5.642 1.913 1.284-3.788L2 10.515.716 14.303zM-2 10.515a4 4 0 0 0 2.716 3.788L2 10.515h-4zm0-3.129v3.129h4V7.386h-4zM.76 3.583A4 4 0 0 0-2 7.386h4L.76 3.583zm5.62-1.832L.76 3.583 2 7.386l5.62-1.832L6.38 1.75zm.015-.005l-.015.005 1.24 3.803.015-.005-1.24-3.803zM9.008 3.82A2 2 0 0 1 11 2v-4a6 6 0 0 0-5.977 5.473l3.985.348zM11 2a2 2 0 0 1 2 2h4a6 6 0 0 0-6-6v4zm2 2v10h4V4h-4zm0 10a2 2 0 0 1-2 2v4a6 6 0 0 0 6-6h-4zm-2 2a2 2 0 0 1-1.993-1.835l-3.987.322A6 6 0 0 0 11 20v-4zm-4-2a4 4 0 0 0 4 4v-4H7zm4 4a4 4 0 0 0 4-4h-4v4zm4-4V4h-4v10h4zm0-10a4 4 0 0 0-4-4v4h4zm-4-4a4 4 0 0 0-4 4h4V0zm0 5.104V4H7v1.104h4zm0 7.784V5.104H7v7.784h4zM11 14v-1.112H7V14h4z" mask="url(#a)"/><rect x="18.354" y="1.732" width="2" height="3" rx="1" transform="rotate(45 18.354 1.732)"/><rect width="2" height="3" rx="1" transform="scale(1 -1) rotate(45 28.814 14.02)"/><rect x="22" y="8" width="2" height="5" rx="1" transform="rotate(90 22 8)"/></g></svg>