<svg width="92" height="15" viewBox="0 0 92 15" xmlns="http://www.w3.org/2000/svg"><title>83EC1AB6-3662-4128-B941-EFA0D30D2866</title><path d="M0 3.713C0 1.46 1.448 0 4.175 0h6.171c2.726 0 4.176 1.46 4.176 3.713v7.13c0 2.253-1.45 3.714-4.176 3.714h-6.17C1.447 14.557 0 13.097 0 10.844V3.713zm4.068 8.366c.324.327.767.506 1.225.495h3.93c.459.01.902-.169 1.226-.495a1.7 1.7 0 0 0 .491-1.235V3.713a1.7 1.7 0 0 0-.491-1.235 1.673 1.673 0 0 0-1.226-.495H5.3a1.672 1.672 0 0 0-1.226.495 1.698 1.698 0 0 0-.491 1.235v7.13c-.016.463.161.91.486 1.236zm57.024-8.366C61.092 1.46 62.54 0 65.267 0h6.172c2.726 0 4.175 1.46 4.175 3.713v7.13c0 2.253-1.45 3.714-4.175 3.714h-6.172c-2.726 0-4.175-1.46-4.175-3.713V3.713zm4.068 8.366a1.67 1.67 0 0 0 1.226.495h3.929c.459.01.901-.168 1.226-.495.324-.327.501-.773.49-1.235V3.713a1.698 1.698 0 0 0-.49-1.235 1.672 1.672 0 0 0-1.226-.495h-3.93a1.672 1.672 0 0 0-1.225.495 1.698 1.698 0 0 0-.491 1.235v7.13c-.01.463.167.91.491 1.236zM19.153 7.782c-1.965-.472-3.192-1.73-3.192-3.837 0-2.237 1.449-3.697 4.175-3.697h7.997v1.11l-.737.866h-6.14a1.672 1.672 0 0 0-1.225.495 1.698 1.698 0 0 0-.492 1.235c.018.85.636 1.575 1.475 1.722l5.54 1.114c1.965.472 3.193 1.73 3.193 3.836 0 2.22-1.45 3.681-4.175 3.681h-8.73V12.33h7.614c.458.01.901-.168 1.225-.495a1.7 1.7 0 0 0 .492-1.235 1.782 1.782 0 0 0-1.474-1.698l-5.546-1.12zM43.501.248v1.11l-.736.866h-4.421v12.085h-3.577V2.228h-5.158V.248H43.5zm1.745 0H55.1c2.726 0 4.175 1.46 4.175 3.712v1.72a3.17 3.17 0 0 1-1.717 2.846 5.477 5.477 0 0 1-1.716.619l3.428 3.932v1.238h-2.83l-4.176-4.919h-3.438v4.919H45.25L45.246.248zM53.98 7.41c.458.011.901-.168 1.225-.495.325-.326.502-.773.492-1.235V3.96a1.698 1.698 0 0 0-.492-1.235 1.672 1.672 0 0 0-1.225-.495h-5.158v5.184l5.158-.004zm30.679-.989h7.261v7.888H81.823c-2.726 0-4.175-1.46-4.175-3.713V3.96c0-2.252 1.449-3.712 4.175-3.712H91.94v1.11l-.738.866h-8.259a1.672 1.672 0 0 0-1.225.495 1.698 1.698 0 0 0-.492 1.235v6.637c-.01.462.167.908.492 1.235.324.327.767.505 1.225.495h5.404V8.389h-3.684l-.004-1.968z" fill="#FFF" fill-rule="evenodd"/></svg>