<svg xmlns="http://www.w3.org/2000/svg" viewBox="0 0 167.1 33.8"><style>.st0{fill:#fff}</style><g id="Logo_CBR"><path id="C-c-combo" class="st0" d="M48.3 8c-.2.1-.5.2-.8.3-.3.1-.7.1-1.1.1-.4 0-.8-.1-1.2-.2-.2-.2-.5-.4-.7-.7-.2-.3-.4-.7-.5-1.1-.1-.4-.2-.9-.2-1.4-.1-.9.2-1.8.7-2.6.5-.4 1.2-.7 1.9-.7.4 0 .7 0 1.1.1.3 0 .5.1.8.2l.4-1.6c-.3-.1-.6-.2-1-.3-.5-.1-1-.1-1.5-.1s-1.1.1-1.6.3c-.5.2-1 .5-1.4.8-.5.4-.8 1-1 1.6-.3.8-.4 1.6-.4 2.4 0 .8.1 1.6.4 2.3.2.6.5 1.1 1 1.6.4.4.9.7 1.4.9.5.2 1.1.3 1.7.3.5 0 .9 0 1.4-.1.4-.1.8-.2 1.1-.5L48.3 8zm.9-1.2h3.5V5.2h-3.5v1.6zM60.9 8c-.2.1-.5.2-.8.3-.3.1-.7.1-1.1.1-.4 0-.8-.1-1.2-.2-.3-.2-.6-.4-.8-.7-.2-.3-.4-.7-.5-1.1-.1-.4-.2-.9-.2-1.4-.1-.9.2-1.8.7-2.6.5-.5 1.1-.8 1.9-.8.4 0 .7 0 1.1.1.3 0 .5.1.8.2l.4-1.6c-.3-.1-.6-.2-1-.3h-1.5c-.5 0-1.1.1-1.6.3-.5.2-1 .5-1.4.8-.5.4-.8 1-1 1.6-.3.8-.4 1.6-.4 2.4 0 .8.1 1.6.4 2.3.2.6.5 1.1 1 1.6.3.4.8.7 1.3.9.5.2 1.1.3 1.7.3.5 0 .9 0 1.4-.1.4-.1.8-.2 1.1-.5L60.9 8zm.8-1.2h3.5V5.2h-3.5v1.6zM73.4 8c-.2.1-.5.2-.8.3-.3.1-.7.1-1.1.1-.4 0-.8-.1-1.2-.2-.3-.2-.6-.4-.8-.7-.2-.3-.4-.7-.5-1.1-.1-.4-.2-.9-.2-1.4-.1-.9.2-1.8.7-2.6.5-.4 1.2-.7 1.9-.7.4 0 .7 0 1.1.1.3 0 .5.1.8.2l.4-1.6c-.3-.1-.6-.2-1-.3-.5-.1-1-.1-1.4-.1-.5 0-1.1.1-1.6.3-.5.2-1 .5-1.4.8-.5.4-.8 1-1 1.6-.3.8-.4 1.6-.4 2.4 0 .8.1 1.6.4 2.3.2.6.5 1.1 1 1.6.4.4.9.7 1.4.9.5.2 1.1.3 1.7.3.5 0 .9 0 1.4-.1.4-.1.8-.2 1.1-.5L73.4 8zm1.4-.8c.1.6.4 1.1.8 1.6.3.4.8.8 1.3 1 .6.3 1.2.4 1.8.4 1.2.1 2.3-.4 3.1-1.3.8-1.1 1.2-2.4 1.1-3.7 0-.7-.1-1.4-.3-2.1-.1-.6-.4-1.1-.8-1.6-.3-.4-.8-.8-1.3-1-.6-.4-1.2-.5-1.8-.5-1.2-.1-2.3.4-3.1 1.3-.8 1.1-1.2 2.4-1.1 3.7 0 .8.1 1.5.3 2.2zm2.3-4.7c.6-.8 1.7-1.1 2.6-.6.3.2.5.4.7.7.2.3.3.7.4 1.1.1.4.1.9.1 1.3.1.9-.1 1.8-.6 2.6-.4.5-.9.8-1.6.8-.3 0-.7-.1-1-.2-.3-.2-.5-.4-.7-.7-.2-.3-.3-.7-.4-1.1-.1-.4-.1-.9-.1-1.4 0-.8.2-1.7.6-2.5zm15 7.5H94V.2h-1.7l-2.5 4.4-.4 1.1h-.1l-.5-1.1L86.2.1h-1.7V10h1.8V4.9L86 3h.1l.6 1.5 2.2 3.6h.6l2.1-3.6.6-1.5h.1l-.2 1.9V10zm10.1-8.7c-.2-.3-.5-.6-.8-.7-.4-.2-.8-.3-1.2-.4-.4-.1-.9-.1-1.3-.1h-1.6c-.3 0-.5 0-.7.1s-.5.1-.6.1v9.6c.3.1.5.1.8.1.3 0 .6 0 .9.1H99c.5 0 .9-.1 1.4-.2.4-.1.8-.3 1.2-.5.4-.2.6-.5.9-.9.2-.4.3-.8.3-1.3 0-.3 0-.7-.2-1-.1-.3-.2-.5-.4-.7-.2-.2-.4-.4-.6-.5-.3-.1-.5-.2-.8-.2v-.1c.3-.1.6-.2.8-.3.2-.1.4-.3.5-.5.1-.2.2-.4.3-.7.1-.2.1-.5.1-.7 0-.4-.1-.9-.3-1.2zm-3.5 7.2h-.9V5.8h1.7c.2 0 .4.1.7.2.2.1.4.2.5.4.1.2.2.5.2.7 0 .2 0 .4-.2.6-.1.2-.2.3-.4.4l-.6.3c-.2.1-.4.1-.7.1h-.3zm-.9-4.2V1.7H99c.2 0 .4 0 .6.1.2 0 .4.1.5.2.2.1.3.2.4.4.1.2.1.4.1.6 0 .3-.1.7-.4.9-.3.2-.6.4-.9.5h-.9l-.6-.1zm6.7 2.9c.1.6.4 1.1.8 1.6.3.4.8.8 1.3 1 .6.3 1.2.4 1.8.4 1.2.1 2.3-.4 3.1-1.3.8-1.1 1.2-2.4 1.1-3.7 0-.7-.1-1.4-.2-2.1-.1-.6-.4-1.1-.8-1.6-.3-.4-.8-.8-1.3-1-.7-.4-1.3-.5-1.9-.5-1.2-.1-2.3.4-3.1 1.3-.8 1.1-1.2 2.4-1.1 3.7 0 .8.1 1.5.3 2.2zm2.3-4.7c.6-.8 1.7-1.1 2.6-.6.3.2.5.4.7.7.2.3.3.7.4 1.1.1.4.1.9.1 1.3.1.9-.1 1.8-.6 2.6-.4.5-.9.8-1.6.8-.3 0-.7-.1-1-.2-.3-.2-.5-.4-.7-.7-.2-.3-.3-.7-.4-1.1-.1-.4-.1-.9-.1-1.4 0-.8.2-1.7.6-2.5z"/><path id="Breaker_" class="st0" d="M54.9 15.9c-.4-.6-1-1.1-1.6-1.5-.7-.4-1.5-.6-2.3-.7-.9-.1-1.8-.2-2.7-.2h-1.6c-.6 0-1.1 0-1.6.1-.5 0-1 .1-1.5.1-.5.1-.9.1-1.2.2v19.5c.5.1 1.1.2 1.6.3.6.1 1.2.1 1.7.1h2.8c1 0 1.9-.1 2.8-.3.9-.2 1.7-.6 2.5-1 .7-.5 1.3-1.1 1.7-1.8.4-.8.7-1.7.6-2.6 0-.7-.1-1.4-.3-2-.2-.5-.5-1-.9-1.4-.4-.4-.8-.7-1.3-.9-.5-.2-1.1-.4-1.6-.5v-.2c.6-.1 1.1-.4 1.6-.7.4-.3.8-.7 1.1-1.1.3-.4.5-.9.6-1.3.1-.5.2-1 .2-1.5.1-1-.1-1.9-.6-2.6zm-7.1 14.6h-1.4c-.2 0-.3 0-.4-.1V25h2c.5 0 1 0 1.5.1.5 0 .9.2 1.3.4s.7.5 1 .8c.3.4.4.9.4 1.5 0 .4-.1.9-.3 1.3-.2.4-.5.7-.8.9-.4.2-.8.4-1.2.5-.4.1-.9.2-1.4.2-.2-.2-.4-.2-.7-.2zM46 22v-5.2c.3 0 .6-.1 1-.1h1.4c.4 0 .8 0 1.2.1.4.1.7.2 1.1.4.3.2.6.4.7.8.2.4.3.8.3 1.2 0 .7-.3 1.3-.8 1.8s-1.2.8-1.8 1c-.3 0-.6.1-.9.1h-.9L46 22zm13.6 11.5h3.9v-8.1l2 .4 4.5 7.7h4.5L70 26l-1.4-.9c1.2-.4 2.3-1.1 3-2.1.8-1.2 1.2-2.5 1.1-3.9 0-.9-.2-1.9-.6-2.7-.4-.7-1-1.3-1.7-1.7-.7-.4-1.6-.7-2.4-.9-.9-.2-1.8-.3-2.7-.3H64c-.5 0-1 0-1.5.1-.5 0-1 .1-1.5.2s-1 .1-1.4.2v19.5zm8.3-15.9c.5.5.8 1.2.8 2 .1.9-.3 1.8-1 2.4-.7.5-1.7.8-2.6.7h-1.6V17c.3-.1.6-.1.9-.1h1.2c.8-.1 1.6.2 2.3.7zm9.4 15.9h11.8V30h-8v-4.8h7.1v-3.4h-7.1v-4.6H89v-3.4H77.3v19.7zm26.7 0h4.1L101 13.6h-2.9L91 33.5h3.9l1.5-4.4h6.1l1.5 4.4zm-5.2-11.9l.6-3.1h.1l.6 3.1 1.5 4.4h-4.2l1.4-4.4zm22.4 11.9h4.8l-6.6-9.3-1.6-1.1 1.5-1.1 5.7-8.3h-4.4l-5.4 8.3-.9.4v-8.7h-3.9v19.7h3.9V25h1l5.9 8.5zm7.5 0h11.8V30h-8v-4.8h7.1v-3.4h-7.1v-4.6h7.8v-3.4h-11.7c.1-.1.1 19.7.1 19.7zm15.4 0h3.9v-8.1l2 .4 4.5 7.7h4.5l-4.5-7.5-1.4-.9c1.2-.4 2.3-1.1 3-2.1.8-1.2 1.2-2.5 1.1-3.9 0-.9-.2-1.9-.6-2.7-.4-.7-1-1.3-1.7-1.7-.7-.4-1.6-.7-2.4-.9-.9-.2-1.8-.3-2.7-.3h-1.3c-.5 0-1 0-1.5.1s-1 .1-1.5.2-1 .1-1.4.2v19.5zm8.2-15.9c.5.5.8 1.2.8 2 .1.9-.3 1.8-1 2.4-.8.5-1.7.8-2.6.7h-1.6V17c.3-.1.6-.1.9-.1h1.2c.8-.1 1.7.2 2.3.7zm10.6 5.4l.7 4.6h2.3l.7-4.6v-9.3h-3.8V23h.1zm.2 10.2c.4.4 1 .6 1.6.6.6 0 1.2-.2 1.7-.6.4-.4.6-1 .6-1.6 0-.6-.2-1.2-.6-1.6-.5-.4-1.1-.6-1.7-.6-.6 0-1.2.2-1.6.6-.4.4-.6 1-.6 1.6 0 .6.2 1.2.6 1.6z"/></g><path class="st0" d="M33.3 7.7c-.7-1.9-1.8-3.6-3.2-5.1C28.6 1.2 26.9.5 25 .5c-1.4 0-2.7.4-4.1 1.1-1.3.8-2.5 1.1-3.5 1.1s-2.1-.4-3.5-1.1C12.6.9 11.2.5 9.8.5c-1.9 0-3.6.7-5.1 2.1-1.4 1.5-2.5 3.1-3.2 5.1-.7 1.9-1 3.9-1 5.8 0 5.8.8 8.9 2.4 9.4.2 0 .4.1.6.1.7 0 1.5-.3 2.3-.8 1.1-.7 2.4-1.7 3.9-3.1.7-.7 3.9-4.5 7.7-4.5 3.8 0 6.7 3.5 7.7 4.5 1.5 1.4 2.8 2.5 3.9 3.1.8.5 1.6.8 2.3.8.2 0 .4 0 .7-.1 1.6-.4 2.4-3.6 2.4-9.4-.1-1.9-.4-3.9-1.1-5.8zM13 10.6h-2.4V13H7.9v-2.4H5.5V7.9h2.4V5.5h2.7v2.4H13v2.7zm10.9-5.4c.3-.3.6-.4 1-.4s.7.1 1 .4c.3.3.4.6.4 1s-.1.7-.4 1c-.3.3-.6.4-1 .4s-.7-.1-1-.4c-.3-.3-.4-.6-.4-1s.1-.7.4-1zm-1.8 5.2c-.4 0-.7-.1-1-.4-.3-.3-.4-.6-.4-1s.1-.7.4-1c.3-.3.6-.4 1-.4s.7.1 1 .4c.3.3.4.6.4 1s-.1.7-.4 1c-.3.3-.6.4-1 .4zm3.8 2.4c-.3.3-.6.4-1 .4s-.7-.1-1-.4c-.3-.3-.4-.6-.4-1s.1-.7.4-1c.3-.3.6-.4 1-.4s.7.1 1 .4c.3.3.4.6.4 1s-.1.7-.4 1zm2.8-2.8c-.3.3-.6.4-1 .4s-.7-.1-1-.4c-.3-.3-.4-.6-.4-1s.1-.7.4-1c.3-.3.6-.4 1-.4s.7.1 1 .4c.3.3.4.6.4 1s-.1.7-.4 1zM14 17.1c.9-.5 1.8-1 2.9-1.1v17.6c-1-.1-2-.6-2.9-1.1V17.1zM24.2 20l.6.6v8.3l-.6.6-.5.5c-.4.4-1 1-1.7 1.6V17.9c.7.6 1.3 1.2 1.7 1.6l.5.5zm-11.4-2v13.7c-.8-.7-1.4-1.4-1.8-1.8l-.4-.4-.6-.6v-8.3l.6-.6.4-.4c.4-.3 1-1 1.8-1.6zm5.1-2c1 .1 2 .5 2.9 1.1v15.4c-.9.5-1.8 1-2.9 1.1V16z" id="Layer_2"/></svg>