<svg width="95" height="15" viewBox="0 0 95 15" fill="none" xmlns="http://www.w3.org/2000/svg"><path fill-rule="evenodd" clip-rule="evenodd" d="M27.397 5.151c-.086.055-.18.098-.276.126a1.321 1.321 0 0 1-.389.05.875.875 0 0 1-.744-.366 1.204 1.204 0 0 1-.187-.418 2.215 2.215 0 0 1-.061-.541 1.608 1.608 0 0 1 .257-1.006.83.83 0 0 1 .683-.325c.131-.001.262.008.392.028.096.015.19.044.278.088l.138-.637a1.804 1.804 0 0 0-.35-.104 2.618 2.618 0 0 0-.52-.043c-.194 0-.387.034-.572.1a1.4 1.4 0 0 0-.52.336 1.73 1.73 0 0 0-.378.614 2.671 2.671 0 0 0-.147.947 2.88 2.88 0 0 0 .13.924c.074.232.194.443.35.62a1.3 1.3 0 0 0 .51.346c.196.072.403.108.61.107.175 0 .35-.018.52-.055.15-.027.292-.088.417-.179l-.14-.612zm.322-.492h1.285v-.631h-1.285v.63zm4.282.493a1.096 1.096 0 0 1-.276.127 1.321 1.321 0 0 1-.389.049.875.875 0 0 1-.744-.366 1.204 1.204 0 0 1-.187-.417 2.21 2.21 0 0 1-.061-.542 1.608 1.608 0 0 1 .258-1.006.83.83 0 0 1 .683-.324c.13-.002.261.007.39.027a.96.96 0 0 1 .28.088l.138-.636a1.813 1.813 0 0 0-.35-.105 2.616 2.616 0 0 0-.52-.043c-.195 0-.388.035-.573.101-.194.07-.371.184-.52.335a1.73 1.73 0 0 0-.378.614 2.671 2.671 0 0 0-.147.947 2.88 2.88 0 0 0 .13.925c.074.23.194.442.35.62a1.3 1.3 0 0 0 .51.345c.197.072.403.108.611.107.175 0 .349-.018.52-.054.149-.028.29-.09.417-.18L32 5.152zm.323-.493h1.284v-.631h-1.284v.63zm4.282.493c-.087.055-.18.098-.277.127a1.321 1.321 0 0 1-.389.049.875.875 0 0 1-.744-.366 1.204 1.204 0 0 1-.186-.417 2.21 2.21 0 0 1-.062-.542 1.608 1.608 0 0 1 .258-1.006.83.83 0 0 1 .683-.324c.13-.002.261.007.391.027.096.015.19.044.279.088l.138-.636a1.813 1.813 0 0 0-.35-.105 2.616 2.616 0 0 0-.52-.043c-.195 0-.388.035-.573.101-.194.07-.37.184-.52.335a1.73 1.73 0 0 0-.378.614 2.671 2.671 0 0 0-.147.947 2.88 2.88 0 0 0 .13.925c.074.23.194.442.351.62a1.3 1.3 0 0 0 .509.345c.197.072.403.108.611.107.175 0 .349-.018.52-.054.149-.028.291-.09.417-.18l-.142-.612zm.514-.334c.054.228.149.442.28.631.123.175.286.315.473.406.212.1.443.149.675.143a1.33 1.33 0 0 0 1.123-.519c.288-.428.428-.95.396-1.478a3.36 3.36 0 0 0-.092-.817 1.832 1.832 0 0 0-.281-.631 1.282 1.282 0 0 0-.476-.406c-.21-.1-.44-.148-.67-.143a1.328 1.328 0 0 0-1.126.518c-.286.43-.425.952-.393 1.48-.003.274.029.548.093.814l-.002.002zm.85-1.825a.69.69 0 0 1 .942-.22.74.74 0 0 1 .24.283c.066.132.111.275.136.422.03.172.045.346.044.521.025.353-.046.705-.205 1.015a.652.652 0 0 1-.578.313.622.622 0 0 1-.353-.099.749.749 0 0 1-.243-.276 1.447 1.447 0 0 1-.14-.42 2.877 2.877 0 0 1-.047-.534c-.023-.35.048-.699.205-1.005zm5.506 2.928h.701V2.079h-.634l-.906 1.745-.153.45h-.02l-.17-.44-.956-1.755h-.64v3.842h.666V3.922l-.103-.757h.026l.225.61.803 1.437h.226l.762-1.432.22-.615h.031l-.077.763V5.92zm3.74-3.418a.8.8 0 0 0-.3-.29 1.33 1.33 0 0 0-.424-.146 2.857 2.857 0 0 0-.489-.04 8.265 8.265 0 0 0-.593.022 5.759 5.759 0 0 0-.491.06v3.787a2.1 2.1 0 0 0 .294.05 6.452 6.452 0 0 0 .609.033h.22c.174 0 .348-.022.517-.066.159-.04.31-.109.448-.203a1.011 1.011 0 0 0 .432-.868 1.155 1.155 0 0 0-.059-.39.836.836 0 0 0-.161-.28.75.75 0 0 0-.237-.184 1.142 1.142 0 0 0-.291-.093v-.033a.801.801 0 0 0 .606-.604 1.24 1.24 0 0 0 .033-.285.9.9 0 0 0-.114-.472v.002zm-1.288 2.84l-.133-.006c-.043 0-.082-.004-.12-.008a.298.298 0 0 1-.082-.016V4.264h.374c.089 0 .178.006.266.016.083.01.165.034.24.074a.46.46 0 0 1 .174.16.516.516 0 0 1 .067.282.503.503 0 0 1-.204.416.634.634 0 0 1-.212.1.942.942 0 0 1-.248.033 53.298 53.298 0 0 1-.12-.004l-.002.002zm-.335-1.649V2.677a1.47 1.47 0 0 1 .174-.017c.074-.003.157-.005.246-.005.075 0 .15.007.225.022a.554.554 0 0 1 .192.076.405.405 0 0 1 .135.146.481.481 0 0 1 .052.234.445.445 0 0 1-.141.342.91.91 0 0 1-.335.197 1.366 1.366 0 0 1-.156.016 3.024 3.024 0 0 1-.167.006h-.225zm2.456 1.122c.053.228.148.443.279.631.124.176.286.315.473.406.213.1.443.149.675.143a1.33 1.33 0 0 0 1.123-.518c.288-.429.428-.951.397-1.478a3.385 3.385 0 0 0-.092-.818 1.832 1.832 0 0 0-.282-.63 1.287 1.287 0 0 0-.476-.407c-.21-.1-.44-.148-.67-.143a1.328 1.328 0 0 0-1.125.519c-.287.43-.426.952-.394 1.479-.003.275.028.55.092.816zm.849-1.824a.69.69 0 0 1 .941-.22.74.74 0 0 1 .24.283c.066.133.112.275.136.423.03.172.045.346.044.52.026.353-.046.706-.205 1.016a.652.652 0 0 1-.578.312.622.622 0 0 1-.353-.098.745.745 0 0 1-.243-.276 1.437 1.437 0 0 1-.14-.42 2.903 2.903 0 0 1-.047-.535 1.918 1.918 0 0 1 .206-1.004h-.001zM29.666 7.845a1.552 1.552 0 0 0-.608-.514 2.983 2.983 0 0 0-.863-.258 6.655 6.655 0 0 0-.992-.072 19.31 19.31 0 0 0-1.205.039 11.98 11.98 0 0 0-.998.106v6.697c.197.041.396.07.598.088a14.918 14.918 0 0 0 1.236.058h.452c.354 0 .706-.039 1.05-.117.322-.07.63-.192.909-.359.263-.158.482-.373.639-.626a1.68 1.68 0 0 0 .239-.907 1.81 1.81 0 0 0-.12-.689 1.469 1.469 0 0 0-.815-.815 2.571 2.571 0 0 0-.593-.165v-.059c.215-.044.42-.124.603-.238a1.52 1.52 0 0 0 .405-.369c.105-.14.18-.295.224-.46.045-.166.067-.335.068-.505a1.433 1.433 0 0 0-.23-.835zm-2.614 5.023l-.27-.01a5.064 5.064 0 0 1-.244-.014.675.675 0 0 1-.165-.03v-1.853h.759c.18 0 .36.01.54.028.17.017.335.06.488.13a.903.903 0 0 1 .354.284c.098.15.145.324.135.5a.8.8 0 0 1-.114.432.969.969 0 0 1-.302.302 1.375 1.375 0 0 1-.431.178 2.177 2.177 0 0 1-.504.057c-.07 0-.152-.001-.246-.004zm-.679-2.917V8.155c.117-.016.235-.025.353-.029.153-.006.319-.01.5-.01.152 0 .306.013.457.04.137.022.269.068.389.134a.763.763 0 0 1 .275.259c.074.126.11.27.104.413a.74.74 0 0 1-.285.605c-.2.157-.431.275-.681.344-.105.015-.21.025-.317.03-.128.006-.24.009-.338.009h-.457v.001zm5.028 3.94h1.422v-2.785l.75.125 1.651 2.66h1.642L35.203 11.3l-.509-.301a2.148 2.148 0 0 0 1.112-.728c.293-.399.439-.876.416-1.359a1.735 1.735 0 0 0-.234-.936 1.67 1.67 0 0 0-.622-.587 2.862 2.862 0 0 0-.884-.301A5.747 5.747 0 0 0 33.479 7a13.051 13.051 0 0 0-1.014.04 13.617 13.617 0 0 0-1.067.126v6.726h.003zm3.034-5.459a.85.85 0 0 1 .29.684.953.953 0 0 1-.353.835c-.276.18-.609.269-.945.252h-.604v-1.97a1.72 1.72 0 0 1 .328-.039c.141-.006.285-.01.43-.01.308-.02.613.068.854.248zm3.48 5.46h4.365v-1.185h-2.94v-1.66h2.628V9.865h-2.629V8.28h2.889V7.097h-4.313v6.795zm9.85 0h1.496l-2.616-6.843h-1.05l-2.62 6.842H44.4l.551-1.504h2.234l.582 1.505zm-1.922-4.077l.219-1.077h.052l.218 1.067.54 1.515h-1.558l.53-1.505zm8.25 4.077h1.757l-2.421-3.193-.582-.38.561-.368 2.12-2.854h-1.622L51.9 9.97l-.332.136V7.097h-1.422v6.795h1.423V10.99h.375l2.15 2.902zm2.754 0h4.364v-1.185h-2.94v-1.66H60.9V9.865h-2.63V8.28h2.89V7.097h-4.313v6.795zm5.684 0h1.423v-2.786l.748.125 1.653 2.66h1.641L66.334 11.3l-.51-.301a2.147 2.147 0 0 0 1.112-.728 2.12 2.12 0 0 0 .416-1.359 1.735 1.735 0 0 0-.234-.936 1.67 1.67 0 0 0-.623-.588 2.868 2.868 0 0 0-.885-.3A5.746 5.746 0 0 0 64.607 7a13.61 13.61 0 0 0-1.014.039c-.183.013-.369.03-.55.053a15.82 15.82 0 0 0-.517.073v6.727h.005zm3.034-5.46a.85.85 0 0 1 .29.684.953.953 0 0 1-.352.835c-.277.18-.61.269-.946.252h-.603v-1.97a1.73 1.73 0 0 1 .327-.039c.142-.006.286-.01.432-.01.307-.02.611.069.852.248zm3.896 1.86l.27 1.583h.853l.27-1.584V7.097H69.46v3.194zm.083 3.503c.164.14.381.213.603.204a.905.905 0 0 0 .624-.204.692.692 0 0 0 .228-.544.677.677 0 0 0-.228-.538.92.92 0 0 0-.624-.2.884.884 0 0 0-.603.2.678.678 0 0 0-.228.538.693.693 0 0 0 .228.544z" fill="#fff"/></svg>