<svg xmlns="http://www.w3.org/2000/svg" width="16.469" height="16.5" viewBox="0 0 16.469 16.5"><defs><style>.cls-1{fill:#fff;fill-rule:evenodd}</style></defs><path class="cls-1" d="M15.42.06L.374 7.04a.7.7 0 0 0 .043 1.24l3.824 1.34 1.427 5.39a.619.619 0 0 0 1.095.32l1.977-2.41 3.879 3.39a.778.778 0 0 0 1.271-.58l2.569-14.62A.835.835 0 0 0 15.42.06zm-1.886 3.25l-6.989 7.36a.459.459 0 0 0-.125.28l-.269 2.85a.072.072 0 0 1-.141.02L4.903 9.57a.477.477 0 0 1 .161-.51l8.253-6.1c.19-.14.384.17.217.35z"/></svg>