<svg width="22" height="12" viewBox="0 0 22 12" fill="none" xmlns="http://www.w3.org/2000/svg"><path fill-rule="evenodd" clip-rule="evenodd" d="M20.5 4.5a1 1 0 1 1 0 2h-7a1 1 0 1 1 0-2h7z" fill="#fff" opacity=".6"/><path fill-rule="evenodd" clip-rule="evenodd" d="M2.453 8.864h5.675l.85 2.175a.831.831 0 0 0 .18.27c.087.092.24.138.458.138h.605a.346.346 0 0 0 .253-.106.346.346 0 0 0 .107-.253.619.619 0 0 0-.066-.23L6.525.54A1.408 1.408 0 0 0 6.28.18C6.17.06 6.007 0 5.79 0h-.982c-.218 0-.382.06-.49.18a1.4 1.4 0 0 0-.246.36L.065 10.859a.619.619 0 0 0-.065.229c0 .098.035.182.106.253a.347.347 0 0 0 .254.106h.605c.218 0 .37-.046.458-.139a.831.831 0 0 0 .18-.27l.85-2.174zm5.102-1.472h-4.53L5.3 1.554l2.256 5.838z" fill="#fff"/></svg>