<svg id="A_big" xmlns="http://www.w3.org/2000/svg" width="28" height="28" viewBox="0 0 28 28"><defs><style>.cls-1{fill:#fff;stroke:#e0e0e0;stroke-linejoin:round;stroke-width:2px}.cls-2,.cls-3{fill:#0d3d8a;fill-rule:evenodd}.cls-3{fill:#303435}</style></defs><circle class="cls-1" cx="14" cy="14" r="11"/><path class="cls-2" d="M298.036 63.5l-.708.707L296 62.879V72h-1v-9.121l-1.328 1.328-.708-.707 1.829-1.828.707-.707.707.707z" transform="translate(-278 -53)"/><path id="Ð" class="cls-3" d="M286.42 72.195h1.068a.348.348 0 0 0 .348-.228l.552-1.452h3.552l.552 1.452a.348.348 0 0 0 .348.228h1.068a.251.251 0 0 0 .174-.072.235.235 0 0 0 .078-.18l-.024-.108-2.88-7.74a.433.433 0 0 0-.432-.3H289.5a.433.433 0 0 0-.432.3l-2.88 7.74-.024.108a.246.246 0 0 0 .252.252zm3.744-6.768l1.356 3.7h-2.712z" transform="translate(-278 -53)"/></svg>