<svg width="33" height="30" viewBox="0 0 33 30" fill="none" xmlns="http://www.w3.org/2000/svg"><rect opacity=".9" width="33" height="30" rx="2" fill="#505050"/><path fill-rule="evenodd" clip-rule="evenodd" d="M25.816 9.023h-2.29c-.579 0-.845.325-1.001.672 0 0-1.18 2.96-2.825 4.88-.533.555-.778.74-1.067.74-.156 0-.356-.185-.356-.694V9.879c0-.6-.178-.879-.668-.879h-3.603a.562.562 0 0 0-.577.556c0 .578.823.716.91 2.336v3.515c0 .763-.132.902-.422.902-.778 0-2.668-2.983-3.802-6.384C9.892 9.255 9.67 9 9.09 9H6.778C6.112 9 6 9.325 6 9.672c0 .623.778 3.77 3.625 7.933 1.89 2.844 4.582 4.372 7.006 4.372 1.468 0 1.646-.348 1.646-.926v-2.15c0-.694.133-.81.6-.81.334 0 .935.184 2.292 1.549 1.556 1.619 1.823 2.36 2.69 2.36h2.29c.669 0 .98-.348.801-1.018-.2-.67-.955-1.642-1.934-2.799-.534-.648-1.335-1.364-1.58-1.711-.333-.463-.243-.649 0-1.065-.022 0 2.78-4.117 3.07-5.505.156-.509 0-.879-.69-.879z" fill="#fff"/></svg>